<svg width="1160" height="601" viewBox="0 0 1160 601" fill="none" xmlns="http://www.w3.org/2000/svg">
<rect width="1160" height="601" fill="url(#paint0_linear_418_159)"/>
<path d="M406.388 362C402.596 362 399.12 361.105 395.96 359.314C392.905 357.418 390.43 354.943 388.534 351.888C386.743 348.728 385.848 345.252 385.848 341.46V268.78C385.848 264.988 386.743 261.565 388.534 258.51C390.43 255.35 392.905 252.875 395.96 251.084C399.12 249.188 402.596 248.24 406.388 248.24H499.292V265.304H408.758C407.073 265.304 405.651 265.883 404.492 267.042C403.439 268.095 402.912 269.465 402.912 271.15V339.09C402.912 340.775 403.439 342.197 404.492 343.356C405.651 344.409 407.073 344.936 408.758 344.936H499.292V362H406.388ZM527.3 362V248.24H615.78C619.467 248.24 622.89 249.188 626.05 251.084C629.21 252.875 631.685 255.35 633.476 258.51C635.372 261.565 636.32 264.988 636.32 268.78V292.006C636.32 293.375 636.162 294.745 635.846 296.114C635.635 297.483 635.214 298.747 634.582 299.906C636.689 302.855 638.269 305.647 639.322 308.28C640.481 310.808 641.06 313.389 641.06 316.022V341.46C641.06 345.252 640.112 348.728 638.216 351.888C636.425 354.943 633.95 357.418 630.79 359.314C627.63 361.105 624.154 362 620.362 362H527.3ZM548.314 344.936H620.046C621.099 344.936 621.995 344.567 622.732 343.83C623.469 342.987 623.838 342.039 623.838 340.986V316.496C623.838 315.443 623.469 314.547 622.732 313.81C621.995 312.967 621.099 312.546 620.046 312.546H548.314C547.261 312.546 546.313 312.967 545.47 313.81C544.733 314.547 544.364 315.443 544.364 316.496V340.986C544.364 342.039 544.733 342.987 545.47 343.83C546.313 344.567 547.261 344.936 548.314 344.936ZM548.314 295.482H615.306C616.359 295.482 617.255 295.113 617.992 294.376C618.729 293.533 619.098 292.585 619.098 291.532V269.254C619.098 268.201 618.729 267.305 617.992 266.568C617.255 265.725 616.359 265.304 615.306 265.304H548.314C547.261 265.304 546.313 265.725 545.47 266.568C544.733 267.305 544.364 268.201 544.364 269.254V291.532C544.364 292.585 544.733 293.533 545.47 294.376C546.313 295.113 547.261 295.482 548.314 295.482ZM669.505 362V248.082H686.569V344.936H783.265V362H669.505Z" fill="white"/>
<defs>
<linearGradient id="paint0_linear_418_159" x1="0" y1="601" x2="235.625" y2="-254.573" gradientUnits="userSpaceOnUse">
<stop offset="0.00113387" stop-color="#942C00"/>
<stop offset="1" stop-color="#FF832A"/>
</linearGradient>
</defs>
</svg>
