<svg width="1160" height="601" viewBox="0 0 1160 601" fill="none" xmlns="http://www.w3.org/2000/svg">
<rect width="1160" height="601" fill="url(#paint0_linear_415_131)"/>
<g clip-path="url(#clip0_415_131)">
<path d="M722.489 317.035C721.953 314.296 721.332 311.542 720.643 308.837C713.014 279.148 696.461 252.534 673.23 232.609C672.938 232.353 672.642 232.096 672.349 231.853L671.49 231.133C667.888 228.153 664.072 225.443 660.074 223.025L671.787 179.188L654.235 194.097C651.516 196.418 648.34 198.138 644.913 199.144L642.993 199.71L638.513 196.277C636.094 194.42 633.686 192.435 631.361 190.367C628.698 188.005 626.1 185.5 623.641 182.964L618.464 177.584L613.292 182.964C611.21 185.136 609.016 187.265 606.774 189.297C604.491 191.377 602.123 193.395 599.738 195.276L596.044 198.209L593.59 197.287C590.399 196.086 587.48 194.257 585.006 191.907L569.225 177L574.2 205.308C571.416 205.764 568.652 206.332 565.935 207.042C564.374 206.714 562.788 206.514 561.195 206.445H561.082H560.972C560.523 206.445 560.076 206.445 559.624 206.445H559.019C554.482 206.472 549.953 206.819 545.464 207.485C543.932 207.716 542.4 207.982 540.895 208.285C530.55 210.374 520.624 214.177 511.524 219.538L511.447 218.67L501.106 226.468C493.056 232.561 483.273 235.91 473.188 236.026L441.086 236.477L470.302 249.798C473.904 251.444 477.656 252.737 481.506 253.659C467.781 263.4 455.791 275.391 446.039 289.129L437.692 300.888L437 301.331L453.302 300.478L453.21 300.517L496.836 298.173L483.228 308.361L488.911 307.564C481.359 316.791 475.594 327.353 471.914 338.705C471.809 339.028 471.704 339.356 471.602 339.681L470.713 342.54L459.986 348.527L468.734 348.942L468.103 350.968L454.906 347.433L464.073 362.765L452.324 359.96L480.464 380.918C491.142 388.865 504.087 393.15 517.383 393.138C517.674 393.138 517.965 393.138 518.254 393.138H518.979L519.687 392.979C524.423 391.917 529.069 390.49 533.586 388.709L534.5 390.758C535.828 390.375 537.141 389.949 538.438 389.477C538.438 389.595 538.438 389.713 538.438 389.831L539.526 424.615L542.543 416.983L544.525 423.587L551.433 421.487C554.68 420.497 557.87 419.332 560.99 417.995L577.385 417.867C581.47 417.835 585.543 417.395 589.542 416.555C590.405 416.378 591.294 416.171 592.257 415.925L592.974 415.741L593.638 415.413C598.044 413.245 602.177 410.56 605.949 407.412L606.1 407.289L607.67 408.57C609.172 406.992 610.646 405.327 612.043 403.628C619.349 394.765 624.996 384.649 628.71 373.768C631.198 374.071 633.701 374.281 636.201 374.383L636.411 374.529L638.771 374.475H639.215C642.999 374.469 646.639 375.925 649.38 378.541L651.148 380.219C651.936 381.151 652.702 382.085 653.446 383.019C653.804 383.462 654.156 383.91 654.516 384.374C659.368 390.59 663.669 397.22 667.371 404.187L660.179 424.059L672.093 422.319C673.779 422.063 676.435 421.418 676.946 421.295L677.125 421.248L678.657 420.782L678.795 420.734C679.178 420.6 681.137 419.906 682.279 419.401C690.139 415.94 696.699 410.062 701.01 402.617L701.237 402.225L701.258 402.173L701.584 401.576C701.646 401.471 701.702 401.364 701.756 401.256C711.185 383.819 717.02 364.658 718.914 344.912L721.026 323.137C721.256 322.745 721.478 322.353 721.697 321.966L723.003 319.645L722.489 317.035ZM483.483 353.481C483.19 353.494 482.898 353.499 482.607 353.499C480.404 353.46 478.207 353.244 476.038 352.854C475.422 352.753 474.822 352.644 474.238 352.526L479.647 349.452L485.235 349.708C487.565 349.818 489.95 349.874 492.323 349.874C494.34 349.874 496.307 349.836 498.138 349.759C499.523 349.708 500.917 349.636 502.309 349.544C497.204 351.911 491.01 353.197 483.483 353.481Z" fill="white"/>
<path d="M603.794 325.108C611.753 305.018 612.106 282.7 604.784 262.367C602.556 260.041 600.201 257.839 597.73 255.773C593.287 254.828 588.924 253.536 584.682 251.91C577.027 248.978 569.82 244.981 563.274 240.038C562.084 239.144 560.919 238.214 559.777 237.264C554.734 236.191 549.606 235.566 544.453 235.396C541.72 235.846 539.014 236.37 536.334 236.969C511.242 242.627 488.16 255.034 469.567 272.857C463.047 279.099 457.132 285.945 451.9 293.306L455.645 293.119C460.734 290.078 466.549 288.477 472.473 288.487C472.861 288.487 473.239 288.487 473.63 288.51C470.185 289.361 466.903 290.772 463.912 292.686L478.582 291.917L481.185 291.769C482.015 291.297 482.868 290.859 483.739 290.465C485.575 289.628 487.485 288.965 489.445 288.484C492.023 287.851 494.669 287.531 497.324 287.531C499.975 287.528 502.616 287.848 505.19 288.484C501.619 288.502 498.076 289.108 494.701 290.278C493.904 290.552 493.117 290.859 492.351 291.195L496.22 290.987L510.383 290.232L515.235 289.975L522.338 289.599C521.207 290.178 520.093 290.782 518.995 291.413C517.941 292.009 516.904 292.629 515.884 293.275C513.864 294.549 511.901 295.9 509.994 297.328C513.082 296.898 516.19 296.633 519.306 296.534C515.403 297.652 511.583 299.044 507.874 300.699C506.279 301.406 504.704 302.163 503.15 302.971C502.422 303.64 501.701 304.316 500.991 305.021C499.985 306.002 499.007 307.006 498.047 308.041C489.293 317.464 482.709 328.7 478.761 340.955C478.664 341.247 478.567 341.547 478.478 341.839C478.697 341.716 478.922 341.595 479.149 341.48C485.808 337.984 493.458 336.877 500.83 338.342C500.816 338.368 500.8 338.394 500.782 338.419C495.452 338.517 490.227 339.924 485.565 342.518C487.801 342.622 490.05 342.675 492.313 342.676C494.17 342.676 496.019 342.643 497.86 342.566C500.826 342.457 503.766 342.251 506.679 341.949C507.765 341.844 508.848 341.718 509.928 341.585C511.389 341.406 512.837 341.203 514.27 340.973C517.789 340.425 521.264 339.748 524.695 338.944C525.821 338.681 526.943 338.403 528.061 338.111C528.013 338.183 527.959 338.255 527.908 338.324C525.252 340.012 522.982 342.19 520.609 344.529C519.664 345.456 518.704 346.409 517.697 347.372C515.128 349.814 512.255 352.283 508.567 354.412C502.863 357.742 495.212 360.258 483.734 360.691C480.717 360.806 477.76 360.435 474.871 359.974C473.53 359.758 472.202 359.492 470.897 359.172C470.657 359.118 470.417 359.059 470.182 358.998L470.657 359.792C471.844 361.704 473.147 363.541 474.56 365.292C475.241 366.146 475.955 366.984 476.703 367.808C483.486 371.939 490.8 375.122 498.442 377.268C493.833 376.923 489.258 376.211 484.761 375.139C494.199 382.155 505.64 385.936 517.388 385.922C517.644 385.922 517.879 385.922 518.124 385.922C524.69 384.448 531.063 382.217 537.118 379.274C539.064 378.331 540.966 377.319 542.824 376.236C541.802 377.109 540.747 377.968 539.682 378.798C537.385 380.581 535.002 382.251 532.531 383.808C537.414 382.406 542.078 380.325 546.387 377.627C545.892 381.45 545.643 385.3 545.643 389.155C545.643 389.306 545.643 389.455 545.643 389.603C546.813 386.651 548.403 383.883 550.363 381.388C548.285 388.027 547.003 394.892 546.545 401.836C547 405.022 547.633 408.181 548.44 411.296C548.721 412.403 549.03 413.5 549.354 414.593C554.375 413.064 559.248 411.082 563.912 408.671C577.935 401.419 589.762 390.527 598.159 377.13C601.556 371.724 604.351 365.961 606.493 359.943C604.313 352.426 601.134 345.237 597.043 338.57C599.674 334.285 601.933 329.781 603.794 325.108V325.108Z" fill="#0DA258"/>
<path d="M690.727 341.813C690.747 341.359 690.757 340.903 690.757 340.442C690.759 335.306 689.566 330.241 687.274 325.649C684.982 321.057 681.653 317.065 677.553 313.989L670.729 323.76L669.569 325.425C668.365 323.638 667.098 321.898 665.766 320.204C662.739 316.345 659.396 312.746 655.772 309.444C655.392 309.104 655.006 308.76 654.625 308.42C654.329 308.163 654.035 307.907 653.734 307.651C652.61 306.678 651.453 305.738 650.261 304.833C641.964 298.417 632.587 293.548 622.575 290.456C630.212 296.471 637.216 303.252 643.48 310.695C644.123 311.463 644.757 312.232 645.385 313.018C646.128 313.927 646.851 314.852 647.556 315.78C649 317.658 650.393 319.569 651.734 321.513C656.174 327.942 660.076 334.728 663.401 341.802C668.14 342.421 672.951 341.472 677.103 339.1C678.128 338.511 679.104 337.842 680.023 337.099C681.43 340.831 682.148 344.788 682.143 348.778C682.143 349.803 682.094 350.827 682.005 351.852C681.971 352.236 681.928 352.621 681.879 352.997C681.859 353.128 681.846 353.253 681.821 353.392C681.643 354.687 681.388 355.97 681.055 357.235C680.952 357.611 680.848 357.98 680.738 358.351C680.715 358.446 680.684 358.544 680.651 358.643C681.471 358.736 687.698 358.718 688.918 358.549C693.516 357.911 697.927 356.306 701.862 353.838C705.797 351.37 709.167 348.095 711.751 344.228C709.93 363.07 704.35 381.352 695.344 397.987C695.341 398.005 695.333 398.022 695.321 398.036C695.153 398.344 694.987 398.651 694.811 398.953C694.796 398.975 694.783 398.998 694.772 399.022C691.24 405.142 685.851 409.97 679.392 412.802C678.424 413.23 676.409 413.937 676.409 413.937L675.196 414.309C675.196 414.309 672.463 414.993 671.048 415.198L675.221 403.698L675.239 403.649L675.185 403.631C670.978 395.257 665.956 387.321 660.191 379.94C659.815 379.458 659.437 378.976 659.054 378.5C657.655 376.749 656.212 375.036 654.728 373.358L654.324 373.32C650.249 369.43 644.835 367.265 639.209 367.274C638.995 367.274 638.778 367.274 638.566 367.274L638.533 367.243C638.022 367.243 637.531 367.22 637.033 367.205C632.539 367.042 628.064 366.534 623.648 365.686C622.599 365.484 621.553 365.263 620.511 365.022C608.68 362.286 597.546 357.108 587.82 349.818C587.94 348.893 588.075 347.974 588.257 347.062C587.383 347.425 586.507 347.779 585.618 348.115C577.98 342.013 571.404 334.682 566.159 326.421C562.27 320.305 559.156 313.727 556.888 306.839C556.888 306.839 556.888 306.824 556.888 306.819C557.128 306.363 557.376 305.909 557.636 305.458C557.228 305.427 556.822 305.404 556.413 305.381C556.226 304.79 556.053 304.198 555.882 303.588C555.808 303.332 555.736 303.089 555.67 302.832C556.906 302.581 558.159 302.371 559.429 302.202C558.581 302.159 557.726 302.141 556.875 302.141C556.41 302.141 555.951 302.141 555.491 302.154C555.072 300.616 554.694 299.051 554.362 297.478C554.122 296.349 553.907 295.214 553.718 294.074L554.74 293.63C555.08 293.482 555.422 293.341 555.762 293.203C556.444 292.916 557.128 292.642 557.818 292.375C558.073 292.275 558.308 292.178 558.558 292.088C562.211 290.701 565.955 289.567 569.763 288.694C572.429 288.084 575.14 287.597 577.895 287.234C575.703 286.127 573.481 285.078 571.229 284.088C565.667 281.629 559.951 279.538 554.117 277.829C553.892 277.76 553.667 277.699 553.443 277.632C559.443 277.828 565.407 278.64 571.242 280.056L570.529 279.781C570.394 279.728 570.261 279.682 570.125 279.633C569.732 279.484 569.334 279.338 568.935 279.2C566.596 278.361 564.212 277.624 561.784 276.987C561.363 276.876 560.939 276.771 560.507 276.664C560.075 276.556 559.692 276.466 559.281 276.372L558.515 276.197C557.647 276.005 556.77 275.823 555.887 275.659C555.557 275.593 555.225 275.534 554.891 275.478C554.556 275.421 554.191 275.352 553.838 275.293L552.996 275.163C552.842 275.134 552.689 275.111 552.541 275.091C552.745 270.502 553.307 265.937 554.224 261.436C554.515 260.002 554.842 258.578 555.202 257.174C555.685 255.273 556.224 253.408 556.842 251.561C556.967 251.171 557.097 250.792 557.235 250.395C557.345 250.07 557.46 249.737 557.58 249.409C563.379 248.218 569.283 247.617 575.203 247.616C571.024 245.419 567.031 242.884 563.263 240.035C562.852 239.723 562.438 239.41 562.029 239.087C564.172 234.895 566.645 230.88 569.426 227.083C584.792 218.803 602.267 215.295 619.627 217.006C636.987 218.716 653.447 225.568 666.913 236.69C667.186 236.915 667.454 237.146 667.728 237.371C668.001 237.596 668.264 237.83 668.527 238.06C690.654 257.022 706.419 282.363 713.675 310.633C714.332 313.195 714.917 315.789 715.429 318.416C714.441 320.171 713.386 321.887 712.28 323.567C706.366 332.52 698.879 340.321 690.185 346.59C690.482 345.016 690.663 343.421 690.727 341.82V341.813Z" fill="#045742"/>
<path d="M581.877 235.665C581.883 240.401 580.359 245.012 577.535 248.807C577.381 249.015 577.223 249.22 577.06 249.422C575.006 252.005 572.398 254.09 569.43 255.523C566.463 256.956 563.211 257.699 559.917 257.697C558.333 257.695 556.754 257.523 555.207 257.184C552.379 256.564 549.703 255.386 547.333 253.718C550.461 252.822 553.636 252.103 556.845 251.564C556.97 251.174 557.1 250.795 557.238 250.398C556.681 250.206 556.119 250.024 555.56 249.85C556.232 249.696 556.906 249.547 557.583 249.412C563.382 248.221 569.286 247.62 575.205 247.618C571.026 245.422 567.033 242.886 563.265 240.038C562.854 239.726 562.44 239.413 562.032 239.09C561.266 238.493 560.511 237.884 559.769 237.264C554.726 236.19 549.598 235.565 544.445 235.396C541.712 235.845 539.005 236.37 536.325 236.969C530.168 238.353 524.109 240.15 518.192 242.349C514.422 243.748 510.729 245.303 507.112 247.014C503.447 247.771 499.714 248.152 495.972 248.151C494.022 248.15 492.074 248.047 490.136 247.841C484.306 247.226 478.614 245.668 473.279 243.23C484.888 243.082 496.147 239.223 505.419 232.214C505.419 232.268 505.419 232.325 505.419 232.378C516.207 223.878 528.837 218.04 542.289 215.337C543.678 215.057 545.083 214.811 546.503 214.6C550.663 213.979 554.861 213.657 559.067 213.634H559.623C560.045 213.634 560.464 213.634 560.885 213.634C566.54 213.885 571.88 216.317 575.791 220.422C579.702 224.527 581.882 229.987 581.877 235.665V235.665Z" fill="#045742"/>
<path d="M577.134 247.639C577.134 247.956 577.113 248.269 577.098 248.586C577.098 248.863 577.08 249.137 577.065 249.416C577.065 249.783 577.031 250.149 577.014 250.513C576.83 254.227 576.502 257.899 576.03 261.529C575.966 262.041 575.9 262.533 575.829 263.032C575.013 268.866 573.836 274.643 572.304 280.329C572.289 280.373 572.278 280.422 572.266 280.465C571.934 281.683 571.588 282.894 571.229 284.098C565.667 281.639 559.951 279.548 554.117 277.839C553.892 277.77 553.667 277.709 553.442 277.642C559.442 277.838 565.407 278.65 571.241 280.066L570.529 279.792C570.394 279.738 570.261 279.692 570.125 279.643C569.732 279.494 569.334 279.348 568.935 279.21C566.596 278.371 564.212 277.634 561.784 276.997C561.363 276.886 560.939 276.781 560.507 276.674C560.075 276.566 559.692 276.477 559.281 276.382L558.515 276.208C557.646 276.015 556.77 275.834 555.887 275.67C555.557 275.608 555.225 275.544 554.891 275.488C554.556 275.431 554.191 275.362 553.838 275.303L552.996 275.173C552.842 275.144 552.689 275.121 552.541 275.101C548.229 274.459 543.875 274.137 539.515 274.14C539.074 274.14 538.637 274.14 538.195 274.14C530.366 272.795 522.439 272.109 514.496 272.091C516.958 269.723 519.554 267.499 522.271 265.43C532.662 258.359 544.452 253.619 556.837 251.535C557.668 251.395 558.5 251.267 559.335 251.151C558.64 250.877 557.94 250.615 557.23 250.369C556.673 250.177 556.111 249.995 555.552 249.821C556.224 249.667 556.898 249.519 557.575 249.383C563.374 248.192 569.278 247.591 575.198 247.59H575.267C575.9 247.618 576.518 247.623 577.134 247.639Z" fill="#045742"/>
<path d="M631.551 351.891C629.675 352.283 627.821 352.777 625.999 353.372C624.013 370.155 617.243 386.009 606.501 399.031C605.212 400.598 603.868 402.118 602.468 403.591C603.846 401.594 605.085 399.505 606.177 397.337C606.397 396.909 606.609 396.476 606.815 396.038C605.199 398.054 603.437 399.948 601.544 401.705C601.517 401.732 601.488 401.756 601.457 401.777C598.097 404.598 594.41 407.001 590.475 408.934C589.688 409.137 588.894 409.324 588.092 409.488C584.553 410.235 580.948 410.625 577.332 410.653C580.237 409.18 582.78 407.079 584.777 404.501C586.775 401.924 588.177 398.933 588.884 395.746C588.955 395.403 589.027 395.057 589.08 394.706C589.08 394.706 589.08 394.706 589.08 394.686C590.009 390.134 591.515 385.721 593.563 381.554C591.751 374.427 590.837 367.1 590.842 359.746C590.842 358.426 590.871 357.12 590.929 355.816C589.638 358.765 588.612 361.824 587.864 364.956C587.157 359.933 587.143 354.836 587.821 349.808C587.941 348.884 588.076 347.964 588.258 347.052C587.384 347.416 586.508 347.769 585.619 348.105C577.137 351.345 568.203 353.239 559.139 353.718C561.908 352.534 564.501 350.974 566.845 349.081C562.62 350.324 558.318 351.373 553.937 352.227C551.463 352.713 548.962 353.132 546.436 353.482C545.036 353.356 543.644 353.197 542.26 353.005C537.907 352.403 533.606 351.472 529.393 350.221C530.544 349.628 531.669 348.998 532.769 348.33C537.521 346.571 541.805 343.738 545.29 340.05C548.775 336.363 551.366 331.921 552.864 327.067C554.515 323.968 555.864 320.715 556.892 317.356C557.06 316.813 557.219 316.269 557.367 315.719C557.553 315.042 557.727 314.353 557.878 313.669C556.71 314.866 555.594 316.116 554.545 317.42C554.463 317.512 554.391 317.604 554.312 317.699C553.35 318.894 552.439 320.136 551.579 321.424C551.853 320.115 552.169 318.821 552.54 317.55C552.976 316.013 553.48 314.509 554.039 313.039C554.853 310.912 555.801 308.84 556.879 306.834C556.879 306.834 556.879 306.819 556.879 306.814C557.119 306.358 557.367 305.904 557.627 305.454C557.219 305.423 556.813 305.4 556.404 305.377L556.187 305.361C555.617 305.323 555.048 305.295 554.471 305.269C553.651 305.226 552.826 305.192 552.001 305.164C550.581 305.121 549.158 305.097 547.723 305.097C548.947 304.645 550.193 304.238 551.459 303.875C552.835 303.476 554.236 303.134 555.661 302.851C556.897 302.6 558.15 302.39 559.42 302.221C558.572 302.177 557.717 302.159 556.866 302.159C556.401 302.159 555.942 302.159 555.482 302.172C553.904 302.216 552.345 302.324 550.806 302.495C546.525 302.962 542.315 303.939 538.265 305.405C537.06 305.482 535.861 305.575 534.669 305.684C538.678 302.468 542.96 299.612 547.467 297.148C549.5 296.042 551.582 295.017 553.712 294.074L554.734 293.631C555.073 293.482 555.416 293.341 555.755 293.203C556.437 292.916 557.122 292.642 557.811 292.376C558.067 292.276 558.302 292.178 558.552 292.089C562.208 290.701 565.954 289.567 569.764 288.694C569.424 289.719 569.067 290.738 568.694 291.751C568.023 293.616 567.31 295.463 566.554 297.292C567.945 298.378 569.244 299.578 570.438 300.878C572.544 300.636 574.661 300.515 576.78 300.514C586.318 300.509 595.692 302.999 603.978 307.737C612.264 312.475 619.175 319.299 624.029 327.534C624.645 328.558 625.22 329.621 625.766 330.697C629.102 337.297 631.07 344.507 631.551 351.891V351.891Z" fill="#045742"/>
<path d="M605.113 212.642L605.369 212.686C610.807 213.674 616.14 215.178 621.295 217.179C617.895 216.785 614.474 216.587 611.051 216.587C609.406 216.587 607.773 216.633 606.15 216.723C604.527 216.814 602.931 216.947 601.361 217.123C595.653 217.746 590.02 218.935 584.546 220.671L585.271 224.408L584.86 224.326L578.081 223.005L577.943 223.064C577.922 223.029 577.898 222.997 577.872 222.966H577.857V222.951C574.979 218.864 570.799 215.882 566.006 214.497C570.598 213.215 575.286 212.31 580.025 211.792C580.876 211.696 581.74 211.611 582.615 211.535H582.783C585.036 211.365 587.313 211.279 589.615 211.279C590.238 211.279 590.859 211.279 591.477 211.3L605.113 212.642Z" fill="#0DA258"/>
<path d="M658.883 199.603C655.396 202.572 651.328 204.774 646.94 206.069C647.235 206.931 647.384 207.837 647.382 208.749C647.382 210.963 646.505 213.086 644.944 214.652C643.383 216.218 641.266 217.097 639.059 217.097C636.851 217.097 634.734 216.218 633.173 214.652C631.612 213.086 630.735 210.963 630.735 208.749C630.736 208.072 630.822 207.398 630.99 206.743C631.459 204.84 632.581 203.163 634.16 202.008C631.562 200.024 629.042 197.945 626.6 195.773C623.791 193.283 621.081 190.684 618.471 187.978C616.257 190.281 613.97 192.502 611.608 194.638C609.211 196.824 606.742 198.925 604.201 200.94C605.663 202.207 606.639 203.945 606.96 205.856C607.041 206.316 607.081 206.783 607.08 207.25C607.076 209.198 606.394 211.083 605.15 212.58C603.907 214.076 602.181 215.09 600.271 215.444C598.361 215.799 596.388 215.472 594.693 214.521C592.998 213.57 591.688 212.055 590.989 210.237C590.623 209.284 590.436 208.271 590.438 207.25C590.439 206.146 590.656 205.053 591.076 204.032C586.996 202.495 583.262 200.156 580.094 197.154L583.187 214.756L586.586 234.082C595.758 235.914 605.088 236.834 614.44 236.828C626.578 236.838 638.666 235.288 650.411 232.217L650.204 232.158L654.738 215.197L658.883 199.603Z" fill="#045742"/>
<path d="M614.316 254.213C614.316 254.213 612.618 274.935 634.396 266.625L614.316 254.213Z" fill="white"/>
</g>
<defs>
<linearGradient id="paint0_linear_415_131" x1="1160" y1="1.90416e-05" x2="924.375" y2="855.573" gradientUnits="userSpaceOnUse">
<stop stop-color="#045742"/>
<stop offset="1" stop-color="#000219"/>
</linearGradient>
<clipPath id="clip0_415_131">
<rect width="286" height="247.602" fill="white" transform="translate(437 177)"/>
</clipPath>
</defs>
</svg>
