<svg width="1160" height="601" viewBox="0 0 1160 601" fill="none" xmlns="http://www.w3.org/2000/svg">
<rect width="1160" height="601" fill="url(#paint0_linear_415_128)"/>
<path d="M532.921 294V246.727H542.916V266.232H563.205V246.727H573.177V294H563.205V274.472H542.916V294H532.921ZM591.343 294.669C589.081 294.669 587.065 294.277 585.295 293.492C583.525 292.692 582.125 291.515 581.094 289.961C580.078 288.391 579.571 286.437 579.571 284.098C579.571 282.128 579.932 280.474 580.656 279.135C581.379 277.796 582.364 276.719 583.61 275.903C584.857 275.088 586.272 274.472 587.857 274.057C589.458 273.641 591.135 273.349 592.889 273.18C594.951 272.964 596.613 272.764 597.875 272.58C599.137 272.379 600.052 272.087 600.622 271.702C601.191 271.318 601.476 270.748 601.476 269.994V269.856C601.476 268.394 601.014 267.263 600.091 266.463C599.183 265.663 597.89 265.262 596.213 265.262C594.443 265.262 593.035 265.655 591.989 266.44C590.943 267.209 590.25 268.179 589.912 269.348L580.817 268.609C581.279 266.455 582.187 264.593 583.541 263.023C584.895 261.438 586.642 260.223 588.781 259.376C590.935 258.515 593.428 258.084 596.259 258.084C598.229 258.084 600.114 258.315 601.914 258.776C603.73 259.238 605.338 259.953 606.739 260.923C608.154 261.892 609.27 263.139 610.086 264.662C610.901 266.17 611.309 267.978 611.309 270.087V294H601.984V289.083H601.707C601.137 290.191 600.376 291.169 599.422 292.015C598.467 292.846 597.321 293.5 595.982 293.977C594.643 294.439 593.097 294.669 591.343 294.669ZM594.159 287.883C595.605 287.883 596.882 287.598 597.99 287.029C599.098 286.444 599.968 285.66 600.599 284.675C601.23 283.69 601.545 282.574 601.545 281.328V277.565C601.237 277.765 600.814 277.95 600.276 278.119C599.752 278.273 599.16 278.419 598.498 278.558C597.837 278.681 597.175 278.796 596.513 278.904C595.851 278.996 595.251 279.081 594.713 279.158C593.559 279.327 592.551 279.597 591.689 279.966C590.827 280.335 590.158 280.835 589.681 281.466C589.204 282.082 588.965 282.851 588.965 283.775C588.965 285.113 589.45 286.137 590.419 286.844C591.404 287.537 592.651 287.883 594.159 287.883ZM629.048 294.669C626.786 294.669 624.77 294.277 623 293.492C621.231 292.692 619.83 291.515 618.799 289.961C617.784 288.391 617.276 286.437 617.276 284.098C617.276 282.128 617.637 280.474 618.361 279.135C619.084 277.796 620.069 276.719 621.315 275.903C622.562 275.088 623.977 274.472 625.562 274.057C627.163 273.641 628.84 273.349 630.594 273.18C632.656 272.964 634.318 272.764 635.58 272.58C636.842 272.379 637.758 272.087 638.327 271.702C638.896 271.318 639.181 270.748 639.181 269.994V269.856C639.181 268.394 638.719 267.263 637.796 266.463C636.888 265.663 635.595 265.262 633.918 265.262C632.148 265.262 630.74 265.655 629.694 266.44C628.648 267.209 627.955 268.179 627.617 269.348L618.522 268.609C618.984 266.455 619.892 264.593 621.246 263.023C622.6 261.438 624.347 260.223 626.486 259.376C628.64 258.515 631.133 258.084 633.964 258.084C635.934 258.084 637.819 258.315 639.619 258.776C641.435 259.238 643.043 259.953 644.444 260.923C645.859 261.892 646.975 263.139 647.791 264.662C648.606 266.17 649.014 267.978 649.014 270.087V294H639.689V289.083H639.412C638.842 290.191 638.081 291.169 637.127 292.015C636.173 292.846 635.026 293.5 633.687 293.977C632.349 294.439 630.802 294.669 629.048 294.669ZM631.864 287.883C633.31 287.883 634.588 287.598 635.695 287.029C636.803 286.444 637.673 285.66 638.304 284.675C638.935 283.69 639.25 282.574 639.25 281.328V277.565C638.942 277.765 638.519 277.95 637.981 278.119C637.457 278.273 636.865 278.419 636.203 278.558C635.542 278.681 634.88 278.796 634.218 278.904C633.557 278.996 632.956 279.081 632.418 279.158C631.264 279.327 630.256 279.597 629.394 279.966C628.532 280.335 627.863 280.835 627.386 281.466C626.909 282.082 626.67 282.851 626.67 283.775C626.67 285.113 627.155 286.137 628.124 286.844C629.109 287.537 630.356 287.883 631.864 287.883ZM656.643 294V258.545H666.176V264.732H666.545C667.191 262.531 668.276 260.869 669.8 259.746C671.323 258.607 673.077 258.038 675.062 258.038C675.555 258.038 676.086 258.068 676.655 258.13C677.225 258.192 677.725 258.276 678.156 258.384V267.109C677.694 266.971 677.055 266.847 676.24 266.74C675.424 266.632 674.678 266.578 674.001 266.578C672.554 266.578 671.262 266.894 670.123 267.525C669 268.14 668.107 269.002 667.445 270.11C666.799 271.218 666.476 272.495 666.476 273.941V294H656.643ZM693.073 246.727V294H683.239V246.727H693.073ZM717.107 294.692C713.46 294.692 710.321 293.954 707.689 292.477C705.073 290.984 703.058 288.876 701.642 286.152C700.226 283.413 699.518 280.174 699.518 276.434C699.518 272.787 700.226 269.587 701.642 266.832C703.058 264.078 705.05 261.931 707.62 260.392C710.205 258.853 713.237 258.084 716.715 258.084C719.054 258.084 721.231 258.461 723.247 259.215C725.278 259.953 727.048 261.069 728.556 262.562C730.079 264.054 731.264 265.932 732.111 268.194C732.957 270.441 733.38 273.072 733.38 276.088V278.789H703.442V272.695H724.124C724.124 271.279 723.816 270.025 723.201 268.933C722.585 267.84 721.731 266.986 720.639 266.37C719.561 265.739 718.307 265.424 716.876 265.424C715.384 265.424 714.06 265.77 712.906 266.463C711.767 267.14 710.875 268.055 710.229 269.21C709.582 270.348 709.251 271.618 709.236 273.018V278.812C709.236 280.566 709.559 282.082 710.205 283.359C710.867 284.636 711.798 285.621 712.998 286.314C714.199 287.006 715.622 287.352 717.269 287.352C718.361 287.352 719.361 287.198 720.269 286.891C721.177 286.583 721.954 286.121 722.601 285.506C723.247 284.89 723.739 284.136 724.078 283.244L733.172 283.844C732.711 286.029 731.764 287.937 730.333 289.568C728.918 291.184 727.086 292.446 724.84 293.354C722.608 294.246 720.031 294.692 717.107 294.692ZM739.797 294V258.545H749.169V264.801H749.584C750.323 262.723 751.554 261.085 753.277 259.884C755.001 258.684 757.063 258.084 759.463 258.084C761.895 258.084 763.964 258.692 765.672 259.907C767.381 261.108 768.519 262.739 769.089 264.801H769.458C770.181 262.77 771.489 261.146 773.382 259.93C775.29 258.699 777.544 258.084 780.145 258.084C783.454 258.084 786.139 259.138 788.201 261.246C790.278 263.339 791.317 266.309 791.317 270.156V294H781.507V272.095C781.507 270.125 780.984 268.648 779.937 267.663C778.891 266.678 777.583 266.186 776.013 266.186C774.228 266.186 772.836 266.755 771.835 267.894C770.835 269.017 770.335 270.502 770.335 272.349V294H760.802V271.887C760.802 270.148 760.302 268.763 759.302 267.732C758.317 266.701 757.017 266.186 755.401 266.186C754.308 266.186 753.323 266.463 752.446 267.017C751.584 267.555 750.9 268.317 750.392 269.302C749.884 270.271 749.63 271.41 749.63 272.718V294H739.797Z" fill="white"/>
<path d="M532.921 358.14V310.867H564.221V319.107H542.916V330.372H562.143V338.612H542.916V358.14H532.921ZM584.314 358.832C580.667 358.832 577.528 358.093 574.896 356.616C572.28 355.124 570.265 353.015 568.849 350.292C567.433 347.553 566.725 344.313 566.725 340.574C566.725 336.927 567.433 333.726 568.849 330.972C570.265 328.217 572.257 326.071 574.827 324.532C577.412 322.993 580.444 322.223 583.922 322.223C586.261 322.223 588.438 322.6 590.454 323.354C592.485 324.093 594.255 325.209 595.763 326.701C597.286 328.194 598.471 330.071 599.318 332.334C600.164 334.58 600.587 337.212 600.587 340.228V342.928H570.649V336.835H591.331C591.331 335.419 591.023 334.165 590.408 333.072C589.792 331.98 588.938 331.126 587.846 330.51C586.769 329.879 585.514 329.564 584.083 329.564C582.591 329.564 581.267 329.91 580.113 330.602C578.974 331.279 578.082 332.195 577.436 333.349C576.789 334.488 576.458 335.757 576.443 337.158V342.951C576.443 344.706 576.766 346.221 577.412 347.499C578.074 348.776 579.005 349.761 580.205 350.453C581.406 351.146 582.829 351.492 584.476 351.492C585.568 351.492 586.568 351.338 587.476 351.03C588.384 350.723 589.161 350.261 589.808 349.645C590.454 349.03 590.946 348.276 591.285 347.383L600.379 347.983C599.918 350.169 598.971 352.077 597.54 353.708C596.125 355.324 594.293 356.585 592.047 357.493C589.815 358.386 587.238 358.832 584.314 358.832ZM636.503 332.795L627.501 333.349C627.347 332.58 627.017 331.887 626.509 331.272C626.001 330.641 625.331 330.141 624.501 329.771C623.685 329.387 622.708 329.194 621.569 329.194C620.046 329.194 618.761 329.517 617.714 330.164C616.668 330.795 616.145 331.641 616.145 332.703C616.145 333.549 616.483 334.265 617.16 334.85C617.837 335.434 618.999 335.904 620.646 336.258L627.063 337.55C630.51 338.258 633.079 339.397 634.772 340.966C636.465 342.536 637.311 344.598 637.311 347.152C637.311 349.476 636.626 351.515 635.257 353.269C633.903 355.024 632.041 356.393 629.671 357.378C627.317 358.347 624.601 358.832 621.523 358.832C616.829 358.832 613.09 357.855 610.305 355.901C607.535 353.931 605.912 351.253 605.434 347.868L615.106 347.36C615.398 348.791 616.106 349.884 617.23 350.638C618.353 351.377 619.792 351.746 621.546 351.746C623.269 351.746 624.654 351.415 625.701 350.753C626.763 350.076 627.301 349.207 627.317 348.145C627.301 347.252 626.924 346.522 626.186 345.952C625.447 345.367 624.308 344.921 622.769 344.613L616.629 343.39C613.167 342.698 610.59 341.497 608.897 339.789C607.22 338.081 606.381 335.904 606.381 333.257C606.381 330.979 606.996 329.017 608.227 327.371C609.474 325.724 611.22 324.455 613.467 323.562C615.729 322.67 618.376 322.223 621.407 322.223C625.885 322.223 629.409 323.17 631.979 325.063C634.564 326.955 636.073 329.533 636.503 332.795ZM662.361 322.685V330.071H641.01V322.685H662.361ZM645.858 314.191H655.691V347.245C655.691 348.153 655.829 348.861 656.106 349.368C656.383 349.861 656.768 350.207 657.26 350.407C657.768 350.607 658.353 350.707 659.014 350.707C659.476 350.707 659.938 350.669 660.399 350.592C660.861 350.499 661.215 350.43 661.461 350.384L663.008 357.701C662.515 357.855 661.823 358.032 660.93 358.232C660.038 358.447 658.953 358.578 657.676 358.624C655.306 358.717 653.228 358.401 651.443 357.678C649.674 356.955 648.297 355.831 647.312 354.308C646.327 352.785 645.842 350.861 645.858 348.537V314.191ZM668.767 358.14V322.685H678.6V358.14H668.767ZM673.706 318.115C672.245 318.115 670.99 317.63 669.944 316.661C668.913 315.676 668.397 314.499 668.397 313.129C668.397 311.775 668.913 310.613 669.944 309.644C670.99 308.659 672.245 308.166 673.706 308.166C675.168 308.166 676.415 308.659 677.446 309.644C678.492 310.613 679.015 311.775 679.015 313.129C679.015 314.499 678.492 315.676 677.446 316.661C676.415 317.63 675.168 318.115 673.706 318.115ZM719.531 322.685L707.135 358.14H696.056L683.661 322.685H694.048L701.411 348.053H701.78L709.121 322.685H719.531ZM733.721 358.809C731.459 358.809 729.443 358.417 727.673 357.632C725.903 356.832 724.503 355.654 723.472 354.1C722.456 352.531 721.949 350.576 721.949 348.237C721.949 346.268 722.31 344.613 723.033 343.275C723.757 341.936 724.742 340.859 725.988 340.043C727.234 339.227 728.65 338.612 730.235 338.196C731.836 337.781 733.513 337.489 735.267 337.319C737.329 337.104 738.991 336.904 740.253 336.719C741.515 336.519 742.43 336.227 743 335.842C743.569 335.457 743.854 334.888 743.854 334.134V333.995C743.854 332.534 743.392 331.403 742.469 330.602C741.561 329.802 740.268 329.402 738.591 329.402C736.821 329.402 735.413 329.794 734.367 330.579C733.321 331.349 732.628 332.318 732.29 333.488L723.195 332.749C723.657 330.595 724.565 328.733 725.919 327.163C727.273 325.578 729.02 324.362 731.158 323.516C733.313 322.654 735.806 322.223 738.637 322.223C740.607 322.223 742.492 322.454 744.292 322.916C746.108 323.378 747.716 324.093 749.117 325.063C750.532 326.032 751.648 327.278 752.464 328.802C753.279 330.31 753.687 332.118 753.687 334.226V358.14H744.362V353.223H744.085C743.515 354.331 742.754 355.308 741.799 356.155C740.845 356.986 739.699 357.64 738.36 358.117C737.021 358.578 735.475 358.809 733.721 358.809ZM736.537 352.023C737.983 352.023 739.26 351.738 740.368 351.169C741.476 350.584 742.346 349.799 742.977 348.814C743.608 347.83 743.923 346.714 743.923 345.467V341.705C743.615 341.905 743.192 342.09 742.653 342.259C742.13 342.413 741.538 342.559 740.876 342.698C740.214 342.821 739.553 342.936 738.891 343.044C738.229 343.136 737.629 343.221 737.091 343.298C735.937 343.467 734.929 343.736 734.067 344.106C733.205 344.475 732.536 344.975 732.059 345.606C731.582 346.221 731.343 346.991 731.343 347.914C731.343 349.253 731.828 350.276 732.797 350.984C733.782 351.677 735.029 352.023 736.537 352.023ZM771.149 310.867V358.14H761.316V310.867H771.149Z" fill="white"/>
<path d="M378.91 225.518C379.154 224.829 379.605 224.233 380.2 223.811C380.796 223.389 381.507 223.162 382.237 223.162C382.966 223.162 383.678 223.389 384.273 223.811C384.869 224.233 385.32 224.829 385.563 225.518L392.146 244.155C392.384 244.83 392.821 245.416 393.399 245.837C393.977 246.258 394.669 246.493 395.383 246.512L415.116 247.018C415.847 247.036 416.553 247.282 417.138 247.72C417.723 248.158 418.158 248.767 418.384 249.463C418.609 250.16 418.614 250.909 418.396 251.608C418.179 252.307 417.751 252.922 417.171 253.367L401.514 265.367C400.946 265.803 400.524 266.402 400.304 267.084C400.083 267.766 400.074 268.499 400.278 269.186L405.894 288.112C406.102 288.813 406.088 289.562 405.855 290.255C405.621 290.948 405.179 291.552 404.589 291.982C403.999 292.413 403.291 292.65 402.561 292.66C401.831 292.671 401.116 292.454 400.515 292.04L384.236 280.832C383.648 280.428 382.952 280.211 382.239 280.211C381.525 280.211 380.829 280.428 380.241 280.832L363.959 292.037C363.357 292.451 362.642 292.667 361.913 292.657C361.183 292.647 360.475 292.41 359.885 291.979C359.295 291.548 358.853 290.945 358.619 290.252C358.385 289.559 358.372 288.81 358.58 288.109L364.195 269.186C364.4 268.498 364.391 267.764 364.17 267.081C363.948 266.399 363.525 265.8 362.957 265.364L347.299 253.363C346.719 252.918 346.291 252.304 346.074 251.605C345.857 250.906 345.861 250.156 346.086 249.46C346.312 248.763 346.747 248.154 347.332 247.716C347.917 247.278 348.624 247.033 349.354 247.014L369.087 246.508C369.801 246.49 370.493 246.254 371.071 245.834C371.649 245.413 372.086 244.826 372.324 244.151L378.91 225.518Z" fill="#FFAA01"/>
<path d="M378.91 306.281C379.154 305.592 379.605 304.995 380.2 304.573C380.796 304.151 381.507 303.925 382.237 303.925C382.966 303.925 383.678 304.151 384.273 304.573C384.869 304.995 385.32 305.592 385.563 306.281L392.146 324.917C392.384 325.592 392.821 326.179 393.399 326.6C393.977 327.021 394.669 327.256 395.383 327.274L415.116 327.78C415.847 327.799 416.553 328.044 417.138 328.482C417.723 328.92 418.158 329.53 418.384 330.226C418.609 330.923 418.614 331.672 418.396 332.371C418.179 333.07 417.751 333.684 417.171 334.129L401.514 346.13C400.946 346.566 400.524 347.165 400.304 347.847C400.083 348.528 400.074 349.261 400.278 349.948L405.894 368.875C406.102 369.576 406.088 370.325 405.855 371.018C405.621 371.711 405.179 372.314 404.589 372.745C403.999 373.176 403.291 373.413 402.561 373.423C401.831 373.434 401.116 373.217 400.515 372.803L384.236 361.595C383.648 361.19 382.952 360.974 382.239 360.974C381.525 360.974 380.829 361.19 380.241 361.595L363.959 372.8C363.357 373.213 362.642 373.43 361.913 373.42C361.183 373.409 360.475 373.172 359.885 372.742C359.295 372.311 358.853 371.707 358.619 371.014C358.385 370.321 358.372 369.573 358.58 368.871L364.195 349.948C364.4 349.261 364.391 348.527 364.17 347.844C363.948 347.161 363.525 346.562 362.957 346.126L347.299 334.126C346.719 333.681 346.291 333.067 346.074 332.368C345.857 331.668 345.861 330.919 346.086 330.223C346.312 329.526 346.747 328.917 347.332 328.479C347.917 328.041 348.624 327.795 349.354 327.777L369.087 327.271C369.801 327.252 370.493 327.017 371.071 326.596C371.649 326.176 372.086 325.589 372.324 324.914L378.91 306.281Z" fill="#A336FF"/>
<path d="M460.92 225.518C461.164 224.829 461.614 224.233 462.21 223.811C462.806 223.389 463.517 223.162 464.247 223.162C464.976 223.162 465.687 223.389 466.283 223.811C466.879 224.233 467.329 224.829 467.573 225.518L474.156 244.155C474.394 244.83 474.831 245.416 475.409 245.837C475.987 246.258 476.678 246.493 477.392 246.512L497.126 247.018C497.856 247.036 498.563 247.282 499.148 247.72C499.733 248.158 500.168 248.767 500.394 249.463C500.619 250.16 500.623 250.909 500.406 251.608C500.189 252.307 499.761 252.922 499.18 253.367L483.523 265.367C482.956 265.803 482.534 266.402 482.313 267.084C482.093 267.766 482.084 268.499 482.288 269.186L487.904 288.112C488.112 288.813 488.098 289.562 487.864 290.255C487.631 290.948 487.188 291.552 486.599 291.982C486.009 292.413 485.3 292.65 484.571 292.66C483.841 292.671 483.126 292.454 482.524 292.04L466.246 280.832C465.658 280.428 464.962 280.211 464.248 280.211C463.535 280.211 462.839 280.428 462.251 280.832L445.969 292.037C445.367 292.451 444.652 292.667 443.922 292.657C443.193 292.647 442.484 292.41 441.895 291.979C441.305 291.548 440.863 290.945 440.629 290.252C440.395 289.559 440.382 288.81 440.59 288.109L446.205 269.186C446.41 268.498 446.401 267.764 446.179 267.081C445.958 266.399 445.535 265.8 444.966 265.364L429.309 253.363C428.729 252.918 428.301 252.304 428.084 251.605C427.866 250.906 427.871 250.156 428.096 249.46C428.321 248.763 428.757 248.154 429.342 247.716C429.927 247.278 430.633 247.033 431.363 247.014L451.097 246.508C451.811 246.49 452.503 246.254 453.081 245.834C453.659 245.413 454.096 244.826 454.334 244.151L460.92 225.518Z" fill="#01DAC5"/>
<path d="M460.92 306.281C461.164 305.592 461.614 304.995 462.21 304.573C462.806 304.151 463.517 303.925 464.247 303.925C464.976 303.925 465.687 304.151 466.283 304.573C466.879 304.995 467.329 305.592 467.573 306.281L474.156 324.917C474.394 325.592 474.831 326.179 475.409 326.6C475.987 327.021 476.678 327.256 477.392 327.274L497.126 327.78C497.856 327.799 498.563 328.044 499.148 328.482C499.733 328.92 500.168 329.53 500.394 330.226C500.619 330.923 500.623 331.672 500.406 332.371C500.189 333.07 499.761 333.684 499.18 334.129L483.523 346.13C482.956 346.566 482.534 347.165 482.313 347.847C482.093 348.528 482.084 349.261 482.288 349.948L487.904 368.875C488.112 369.576 488.098 370.325 487.864 371.018C487.631 371.711 487.188 372.314 486.599 372.745C486.009 373.176 485.3 373.413 484.571 373.423C483.841 373.434 483.126 373.217 482.524 372.803L466.246 361.595C465.658 361.19 464.962 360.974 464.248 360.974C463.535 360.974 462.839 361.19 462.251 361.595L445.969 372.8C445.367 373.213 444.652 373.43 443.922 373.42C443.193 373.409 442.484 373.172 441.895 372.742C441.305 372.311 440.863 371.707 440.629 371.014C440.395 370.321 440.382 369.573 440.59 368.871L446.205 349.948C446.41 349.261 446.401 348.527 446.179 347.844C445.958 347.161 445.535 346.562 444.966 346.126L429.309 334.126C428.729 333.681 428.301 333.067 428.084 332.368C427.866 331.668 427.871 330.919 428.096 330.223C428.321 329.526 428.757 328.917 429.342 328.479C429.927 328.041 430.633 327.795 431.363 327.777L451.097 327.271C451.811 327.252 452.503 327.017 453.081 326.596C453.659 326.176 454.096 325.589 454.334 324.914L460.92 306.281Z" fill="#F1185C"/>
<defs>
<linearGradient id="paint0_linear_415_128" x1="0" y1="601" x2="235.625" y2="-254.573" gradientUnits="userSpaceOnUse">
<stop offset="0.194864" stop-color="#021531"/>
<stop offset="1" stop-color="#093A83"/>
</linearGradient>
</defs>
</svg>
