<svg width="1161" height="601" viewBox="0 0 1161 601" fill="none" xmlns="http://www.w3.org/2000/svg">
<rect x="0.996094" width="1160" height="601" fill="url(#paint0_linear_422_205)"/>
<path d="M858.894 322.067C852.923 326.666 844.848 329.139 837.368 329.139C814.703 329.139 803.798 312.314 803.798 293.703C803.798 275.09 815.856 258.719 835.847 258.719C845.913 258.719 852.175 263.481 856.032 267.904H856.31V236.153H877V329.143L858.894 322.067ZM840.729 276.862C829.972 276.862 824.46 285.298 824.46 293.868C824.46 302.57 829.977 311.141 840.729 311.141C850.936 311.141 857.277 302.706 857.277 294C857.279 285.566 850.936 276.862 840.729 276.862ZM725.564 327.488V260.393H745.444V269.827H745.718C748.889 263.94 756.747 258.719 766.263 258.719C784.74 258.719 790.156 272.637 790.156 286.03V327.488H769.458V290.849C769.458 283.486 767.307 276.793 758.866 276.793C750.563 276.793 746.268 283.486 746.268 291.119V327.49H725.564V327.488ZM690.002 322.257C682.986 326.71 675.509 329.143 668.058 329.143C654.583 329.143 642.989 322.224 642.989 308.431C642.989 285.233 671.152 284.819 688.408 284.819C688.408 277.502 682.335 272.807 675.156 272.807C668.394 272.807 662.731 275.845 658.311 280.816L647.268 269.493C654.861 262.312 665.905 258.723 676.813 258.723C700.973 258.723 707.458 271.014 707.458 293.381V329.145L690.002 322.257ZM683.298 298.076C676.949 298.076 662.863 298.628 662.863 307.74C662.863 312.712 668.11 315.059 672.666 315.059C680.814 315.059 688.404 310.779 688.404 302.493V298.076H683.298ZM607.821 236.153H628.528V327.484H607.821V236.153ZM569.287 236.153H589.995V327.484H569.287V236.153ZM516.873 258.723C537.581 258.723 554.147 272.531 554.147 293.935C554.147 315.338 537.581 329.147 516.873 329.147C496.164 329.147 479.596 315.336 479.596 293.935C479.596 272.531 496.164 258.723 516.873 258.723ZM516.873 310.919C527.226 310.919 533.439 304.014 533.439 293.937C533.439 283.854 527.226 276.952 516.873 276.952C506.517 276.952 500.306 283.854 500.306 293.937C500.306 304.014 506.517 310.919 516.873 310.919ZM400.228 327.488V239.415L420.937 232V269.827H421.211C424.382 263.94 431.411 258.719 440.928 258.719C459.404 258.719 464.82 272.637 464.82 286.03V327.488H444.122V290.849C444.122 283.486 441.971 276.793 433.528 276.793C425.227 276.793 420.93 283.486 420.93 291.119V327.49H400.228V327.488ZM319.526 268.323L338.37 261.573V269.076H338.546C341.571 263.456 348.293 256.367 358.985 256.367C377.461 256.367 382.666 270.283 382.666 283.677V370L362.374 361.589L362.359 288.495C362.359 281.13 360.207 274.437 351.763 274.437C343.462 274.437 339.168 281.13 339.168 288.765L339.142 352.016L319.528 343.888V268.323H319.526ZM302.953 274.276V337.027L284 329.185V281.076L302.953 274.276Z" fill="white"/>
<defs>
<linearGradient id="paint0_linear_422_205" x1="0.996094" y1="601" x2="236.621" y2="-254.573" gradientUnits="userSpaceOnUse">
<stop stop-color="#CA0088"/>
<stop offset="1" stop-color="#FF64CC"/>
</linearGradient>
</defs>
</svg>
