<svg width="1161" height="601" viewBox="0 0 1161 601" fill="none" xmlns="http://www.w3.org/2000/svg">
<rect x="0.996094" width="1160" height="601" fill="url(#paint0_linear_419_187)"/>
<path d="M349.996 278.398C350.099 278.353 350.233 278.339 350.298 278.264C358.41 269.133 369.1 263.908 379.964 259.075C393.098 253.232 406.85 249.926 421.343 250.335C432.445 250.647 442.87 253.115 451.658 260.355C460.738 267.835 465.533 277.286 464.596 289.249C464.48 290.715 464.191 292.17 463.93 294.017C471.946 288.549 480.528 286.146 490.198 287.193C490.092 285.631 489.992 284.134 489.872 282.37C487.376 282.974 485.083 283.53 482.618 284.124C482.533 282.912 482.437 281.8 482.378 280.687C482.076 274.759 481.805 268.831 481.468 262.906C481.407 261.848 481.801 261.357 482.694 260.794C489.367 256.582 497.009 254.918 504.355 252.491C512.854 249.683 521.409 247.043 529.943 244.331C530.427 244.176 530.918 244.042 531.532 243.864C531.532 245.659 531.532 247.345 531.532 249.545C533.506 245.955 537.117 245.47 539.771 243.572C540.725 242.889 541.209 243.569 541.789 244.084C549.451 250.863 557.11 257.643 564.772 264.423C565.369 264.952 565.97 265.477 566.708 266.126C568.624 265.106 570.556 264.08 572.671 262.957C570.79 260.719 569.039 258.639 567.147 256.394C568.301 255.055 569.437 253.723 570.584 252.408C579.756 241.911 588.929 231.41 598.118 220.926C598.595 220.384 599.182 219.882 599.817 219.539C602.025 218.348 604.273 217.232 606.683 216C612.481 224.63 618.262 233.236 624.194 242.069C616.044 246.449 607.984 250.781 599.409 255.388C609.134 256.006 617.421 259.009 624.544 265.491C625.052 262.528 625.46 259.806 626.027 257.118C626.167 256.455 626.823 255.903 627.252 255.309C627.314 255.223 627.451 255.199 627.544 255.134C631.505 252.295 635.862 251.293 640.753 251.639C645.422 251.969 650.132 251.735 654.821 251.684C655.501 251.677 656.222 251.385 656.839 251.069C659.126 249.899 661.364 248.639 663.654 247.472C664.131 247.228 664.742 247.149 665.291 247.149C673.76 247.129 682.225 247.166 690.694 247.101C691.96 247.091 692.362 247.537 692.54 248.687C694.497 261.296 696.492 273.901 698.483 286.506C698.5 286.606 698.592 286.691 698.778 286.983C705.204 282.514 712.378 280.255 720.295 280.19C720.295 277.004 720.315 273.935 720.288 270.866C720.257 267.385 720.222 263.901 720.102 260.42C720.065 259.366 720.476 258.865 721.307 258.258C725.622 255.106 730.026 254.897 735.227 256.249C746.202 259.109 757.362 261.268 768.463 263.644C769.73 263.915 770.355 264.413 770.482 265.683C770.571 266.568 770.822 267.44 771.041 268.525C772.641 267.681 774.055 266.846 775.549 266.181C776.225 265.878 777.111 265.666 777.801 265.83C789.119 268.522 800.423 271.278 811.727 274.028C811.936 274.079 812.122 274.217 812.486 274.395C811.38 277.766 810.295 281.106 809.187 284.44C799.008 315.07 788.834 345.705 778.597 376.318C778.295 377.218 777.464 378.134 776.633 378.628C774.533 379.875 772.356 381.577 770.087 381.79C767.887 381.996 765.532 380.582 763.249 379.864C757.321 377.997 751.409 376.081 745.46 374.276C744.132 373.874 743.679 373.26 743.734 371.883C743.847 369.099 743.768 366.312 743.768 363.445C735.176 362.206 726.882 361.008 718.273 359.765C718.743 355.399 719.217 351.025 719.673 346.793C715.935 347.744 712.258 348.677 708.479 349.638C708.86 351.976 709.213 354.451 709.68 356.902C709.914 358.131 709.498 358.715 708.472 359.484C704.301 362.608 699.928 362.741 694.957 361.694C685.246 359.649 675.425 358.128 665.641 356.435C664.34 356.209 663.739 355.797 663.66 354.307C663.52 351.643 663.025 348.997 662.655 346.137C660.609 347.242 658.676 348.289 656.627 349.395C655.24 346.872 653.901 344.445 652.476 341.853C650.623 342.845 648.896 343.816 647.118 344.692C646.538 344.98 645.796 345.234 645.189 345.138C634.317 343.435 623.456 341.678 612.368 339.896C613.116 335.21 613.847 330.628 614.592 325.959C611.98 327.222 609.539 328.589 606.961 329.598C604.373 330.614 601.685 331.503 598.959 332.018C597.318 332.327 597.133 332.989 597.143 334.359C597.191 341.722 597.133 349.089 597.198 356.456C597.208 357.664 596.817 358.296 595.756 358.797C593.597 359.817 591.51 361.76 589.358 361.811C587.277 361.863 585.142 360.03 583.048 358.996C567.697 351.42 552.352 343.837 537.001 336.257C536.397 335.959 535.786 335.684 534.893 335.265C534.893 336.096 534.893 336.693 534.893 337.291C534.903 342.371 534.886 347.455 534.944 352.536C534.955 353.514 534.725 354.115 533.767 354.499C532.765 354.901 531.779 355.399 530.887 355.999C528.148 357.846 525.034 358.402 521.855 358.856C514.169 359.954 506.494 361.114 498.811 362.24C498.31 362.312 497.798 362.299 497.115 362.336C496.768 358.608 496.429 354.952 496.061 351.039C495.474 351.451 495.066 351.708 494.692 352.007C489.247 356.332 483.305 359.631 476.316 360.658C463.477 362.546 453.323 358.2 445.97 347.476C445.682 347.054 445.397 346.625 445.108 346.202C445.077 346.161 445.016 346.14 444.745 345.972C445.846 350.229 446.904 354.3 447.961 358.375C448.86 361.845 449.712 365.333 450.69 368.783C450.961 369.741 450.718 370.136 449.955 370.706C445.713 373.891 441.058 376.095 435.939 377.592C427.848 379.96 419.864 382.71 411.601 385.37C400.544 360.349 389.504 335.368 378.378 310.196C376.199 311.126 374.046 311.974 371.966 312.966C370.891 313.477 370.414 313.21 369.834 312.228C363.611 301.652 357.332 291.116 351.06 280.578C350.748 280.052 350.353 279.579 349.996 279.084C349.996 278.854 349.996 278.628 349.996 278.398ZM388.927 292.029C391.372 297.481 393.75 302.798 396.136 308.109C401.79 320.697 407.447 333.281 413.101 345.869C416.551 353.555 419.977 361.252 423.468 368.92C423.643 369.305 424.422 369.772 424.759 369.669C430.155 368.014 435.524 366.274 440.972 364.53C440.083 361.125 439.231 357.846 438.377 354.575C435.843 344.888 433.31 335.2 430.773 325.513C430.557 324.689 430.574 324.095 431.473 323.522C436.928 320.041 441.84 315.929 445.977 310.913C451.078 304.727 454.967 298.013 456.124 289.911C457.46 280.571 453.92 273.207 446.966 267.331C441.796 262.964 435.819 260.383 428.985 259.421C422.133 258.457 415.346 258.337 408.549 259.312C398.639 260.733 389.192 263.774 380.17 268.072C375.934 270.09 371.836 272.397 367.486 274.673C371.873 282.071 376.054 289.125 380.287 296.269C383.191 294.844 385.979 293.475 388.927 292.029ZM773.067 368.234C782.895 338.533 792.692 308.922 802.517 279.229C795.462 277.67 788.593 276.156 781.632 274.618C778.501 287.512 775.391 300.323 772.281 313.138C770.297 305.139 768.649 297.203 766.98 289.269C765.765 283.485 764.529 277.704 763.29 271.924C763.07 270.894 762.947 270.042 761.44 269.768C754.887 268.58 748.378 267.149 741.849 265.827C739.782 265.408 737.706 265.055 735.413 264.632C735.289 267.279 735.176 269.651 735.059 272.071C737.129 272.655 739.051 273.197 741.025 273.753C740.888 275.185 740.764 276.479 740.644 277.77C740.376 280.646 740.208 283.537 739.796 286.393C739.659 287.357 739.724 287.955 740.424 288.638C747.39 295.411 749.614 303.879 748.443 313.175C747.276 322.43 742.68 330.068 735.893 336.443C735.316 336.982 734.942 337.94 734.843 338.746C734.444 342.059 734.19 345.389 733.851 349.065C739.068 349.882 744.372 350.713 749.796 351.561C752.189 338.091 754.533 324.902 756.874 311.716C756.977 311.727 757.08 311.734 757.187 311.744C757.609 329.124 758.031 346.501 758.457 363.915C763.366 365.368 768.151 366.782 773.067 368.234ZM589.22 328.156C588.077 327.995 587.01 327.895 585.963 327.689C575.242 325.578 566.646 320.319 560.872 310.845C560.519 310.264 559.897 309.715 559.273 309.461C555.346 307.848 551.381 306.324 547.433 304.762C543.698 303.286 539.97 301.796 536.105 300.261C544.793 291.116 553.348 282.109 561.954 273.05C555.682 267.094 549.582 261.299 543.441 255.467C537.135 264.292 530.935 272.967 524.509 281.954C523.966 272.923 523.452 264.361 522.919 255.559C514.31 258.11 505.821 260.626 497.187 263.184C497.297 265.453 497.404 267.653 497.517 270.018C500.057 269.414 502.36 268.868 504.739 268.305C505.028 272.154 505.265 275.724 505.563 279.287C505.972 284.148 506.394 289.012 506.892 293.866C506.978 294.693 507.283 295.672 507.832 296.255C512.92 301.662 515.36 308.177 515.745 315.441C516.098 322.135 514.32 328.427 511.255 334.349C510.747 335.331 510.376 336.148 510.572 337.346C510.898 339.354 510.836 341.424 510.997 343.463C511.145 345.351 511.368 347.236 511.567 349.189C516.579 348.516 521.344 347.85 526.112 347.253C527.2 347.115 527.492 346.645 527.485 345.588C527.44 339.138 527.461 332.687 527.461 326.234C527.461 322.475 527.461 318.719 527.461 314.696C548.113 324.998 568.579 335.207 589.213 345.502C589.22 339.57 589.22 333.978 589.22 328.156ZM653.609 303.732C653.733 303.697 653.853 303.663 653.976 303.629C657.828 311.878 661.676 320.123 665.689 328.719C668.363 321.857 670.893 315.362 673.609 308.4C675.538 321.091 677.392 333.295 679.235 345.42C686.31 346.491 693.155 347.524 700.003 348.557C700.371 344.953 699.815 344.091 696.952 342.423C687.686 337.026 682.802 328.856 682.338 318.228C681.947 309.224 685.338 301.422 690.769 294.374C691.311 293.67 691.593 292.517 691.497 291.624C691.167 288.538 690.625 285.473 690.148 282.404C688.788 273.64 687.439 264.876 686.018 256.122C685.943 255.666 685.218 254.979 684.782 254.969C680.725 254.876 676.66 254.876 672.603 254.948C672.174 254.955 671.467 255.525 671.381 255.937C670.718 259.191 670.169 262.47 669.596 265.741C668.429 272.37 667.268 278.999 666.105 285.627C666.012 285.631 665.919 285.634 665.83 285.634C664.206 276.843 662.579 268.055 660.945 259.215C654.526 259.215 648.295 259.191 642.068 259.267C641.632 259.274 640.925 259.947 640.825 260.41C640.269 262.998 639.851 265.618 639.411 268.23C637.805 277.725 636.201 287.22 634.609 296.719C634.392 298.002 634.557 299.032 635.824 299.928C637.516 301.119 638.961 302.657 640.551 304.079C638.017 306.742 635.639 309.283 633.208 311.771C632.443 312.554 631.787 313.234 631.735 314.487C631.677 315.99 631.186 317.47 630.936 318.97C630.362 322.399 629.82 325.836 629.247 329.402C635.927 330.552 642.398 331.664 648.999 332.801C650.544 323 652.075 313.368 653.609 303.732ZM621.921 274.423C619.628 271.515 616.954 269.222 613.823 267.55C602.615 261.56 591.369 262.442 580.367 267.979C567.632 274.388 561.775 287.189 565.321 300.879C568.349 312.564 578.761 319.423 591.119 320.178C599.759 320.707 607.826 318.355 615.536 314.676C620.531 312.29 624.921 309.053 628.715 304.896C624.231 300.883 619.827 296.942 615.292 292.881C610.394 298.981 604.235 301.943 596.161 301.878C604.922 292.537 613.353 283.554 621.921 274.423ZM477.116 348.149C479.024 347.902 480.964 347.792 482.835 347.38C491.317 345.512 497.98 340.854 502.937 333.813C507.619 327.157 510.026 319.759 508.485 311.627C505.845 297.7 493.658 291.724 481.709 293.605C472.337 295.081 465.08 300.179 459.725 307.872C455.235 314.325 452.983 321.503 454.425 329.395C456.45 340.483 465.695 348.255 477.116 348.149ZM689.351 317.624C689.537 319.008 689.612 320.892 690.052 322.688C693.042 334.881 704.48 340.895 716.347 338.609C724.991 336.944 731.743 332.166 736.666 324.953C741.186 318.328 743.195 311.033 741.149 303.062C738.028 290.903 726.11 285.507 714.699 287.811C709.546 288.851 704.967 291.068 700.947 294.456C693.9 300.392 689.726 307.772 689.351 317.624ZM605.3 227.61C601.915 231.702 598.733 235.557 595.54 239.401C592.711 242.807 589.859 246.195 587.051 249.617C586.783 249.947 586.546 250.558 586.67 250.911C587.398 253.019 588.132 253.284 590.123 252.291C590.528 252.089 590.926 251.876 591.328 251.674C598.987 247.853 606.649 244.036 614.517 240.112C611.417 235.91 608.403 231.818 605.3 227.61ZM556.276 290.131C553.907 292.695 551.573 295.225 549.307 297.68C551.545 298.531 554.199 299.54 556.877 300.56C556.674 296.986 556.482 293.657 556.276 290.131Z" fill="white"/>
<path d="M427.218 315.064C426.332 312.212 425.522 309.641 424.733 307.059C422.67 300.29 420.661 293.506 418.523 286.761C418.097 285.422 418.526 284.993 419.652 284.502C424.722 282.292 429.841 281.715 434.908 284.269C440.548 287.111 441.653 291.584 441.45 296.678C441.179 303.458 437.026 307.862 432.003 311.683C430.531 312.806 428.976 313.829 427.218 315.064ZM430.459 304.66C433.064 302.761 434.643 300.163 435.004 297.403C435.608 292.806 434.046 290.149 430.03 289.288C428.797 289.023 427.462 289.246 425.842 289.246C427.397 294.433 428.9 299.455 430.459 304.66Z" fill="white"/>
<path d="M585.343 301.885C577.568 297.028 576.809 285.301 583.709 279.136C589.747 273.739 598.631 274.34 603.63 279.17C604.416 279.929 604.491 280.423 603.739 281.264C597.677 288.051 591.659 294.875 585.625 301.686C585.549 301.772 585.439 301.82 585.343 301.885ZM596.771 281.333C592.507 279.713 588.518 281.559 586.04 284.429C584.049 286.733 583.455 291.566 585.542 294.223C589.253 289.959 592.947 285.723 596.771 281.333Z" fill="white"/>
<path d="M495.965 305.874C498.605 309.396 498.591 314.535 495.951 318.545C493.03 322.983 488.814 324.864 483.476 324.689C477.919 324.507 472.732 320.841 471.16 315.603C469.124 308.83 473.26 301.738 480.349 300.032C481.98 299.64 483.713 299.661 485.224 299.51C483.686 300.715 481.925 301.765 480.61 303.217C479.117 304.865 479.028 307.024 479.721 309.142C480.909 312.774 484.953 314.992 489.189 314.36C493.15 313.77 495.687 310.673 495.965 305.874Z" fill="white"/>
<path d="M719.571 292.894C712.915 294.872 711.933 298.854 712.603 301.747C713.636 306.22 717.865 308.136 721.662 307.813C725.239 307.511 729.454 304.779 729.035 299.657C731.593 302.328 731.332 308.448 728.49 312.513C724.882 317.676 717.24 319.502 711.03 316.684C705.737 314.281 702.565 308.05 703.719 302.815C705.061 296.718 711.13 291.967 719.571 292.894Z" fill="white"/>
<defs>
<linearGradient id="paint0_linear_419_187" x1="0.996094" y1="601" x2="236.621" y2="-254.573" gradientUnits="userSpaceOnUse">
<stop stop-color="#4160A6"/>
<stop offset="1" stop-color="#47A6EB"/>
</linearGradient>
</defs>
</svg>
