<svg width="1160" height="601" viewBox="0 0 1160 601" fill="none" xmlns="http://www.w3.org/2000/svg">
<rect width="1160" height="601" fill="url(#paint0_linear_414_101)"/>
<path fill-rule="evenodd" clip-rule="evenodd" d="M607.8 213.3C615.46 213.3 618.606 220.527 618.606 222.38C614.214 222.38 608.053 238.272 591.129 281.936L590.999 282.274C574.012 326.083 564.057 346.06 556.508 346.06C545.073 346.06 539.558 315.742 539.596 279.235C539.596 264.039 547.182 219.86 557.36 209.779C558.431 208.704 563.576 208 565.205 208C568.869 208 570.571 208.927 570.571 208.927C570.571 208.927 552.511 239.281 552.511 300.435C552.511 311.554 553.807 332.272 556.953 332.272C562.057 332.272 571.138 304.783 580.571 276.233V276.232C590.762 245.386 601.362 213.3 607.8 213.3ZM439.158 221.343C443.377 227.013 438.455 232.424 438.455 232.424C435.495 229.422 417.583 233.536 398.302 239.281C397.587 244.527 395.366 254.316 391.384 271.873V271.873V271.874L391.384 271.875L391.383 271.877L391.382 271.882C390.215 277.025 388.898 282.834 387.422 289.39C384.24 303.585 377.689 330.456 377.689 330.456C377.689 330.456 375.95 332.124 371.879 331.049C370.866 330.785 369.952 330.23 369.249 329.453C368.546 328.677 368.084 327.711 367.92 326.676C379.244 281.681 383.241 252.661 384.314 243.655C367.883 248.992 352.784 254.551 347.714 256.886C347.714 256.886 344.901 256.441 343.606 254.144C342.311 251.846 343.495 249.511 343.495 249.511C350.526 244.544 433.348 213.522 439.158 221.343ZM512.678 299.218C513.193 298.505 513.512 298.063 514.912 298.063C516.282 298.063 516.244 299.657 516.244 299.657C516.244 303.215 496.223 331.939 474.204 331.939C471.503 331.939 464.175 330.642 459.586 324.749C451.778 329.233 444.117 332.087 438.048 332.087C436.753 332.087 429.203 331.346 429.203 321.598C429.203 317.069 431.124 310.837 432.993 304.77C436.203 294.355 439.263 284.424 432.201 284.424C423.467 284.424 412.883 301.139 412.883 301.139C412.883 301.139 407.147 323.562 406.37 330.456C406.37 330.456 405.482 331.605 402.373 331.605C396.637 331.605 395.786 326.787 395.786 326.787C395.786 326.787 413.216 263.557 413.216 248.769C413.216 244.581 412.587 243.951 412.587 243.951C412.587 243.951 418.545 241.134 422.505 241.134C426.465 241.134 426.539 244.025 426.539 246.657C426.539 255.292 416.103 289.427 416.103 289.427C416.103 289.427 426.132 274.046 438.936 274.046C449.557 274.046 448.188 286.166 448.188 286.166C448.188 293.031 444.54 302.267 441.72 309.409C439.941 313.911 438.492 317.581 438.492 319.3C438.492 322.339 441.046 322.932 442.082 322.932C445.783 322.932 450.889 321.042 456.33 318.077C455.895 316.181 455.684 314.241 455.7 312.295C455.7 291.874 474.241 274.454 486.823 274.454C496.482 274.454 496.556 281.829 496.556 282.274C496.556 292.948 483.567 308.07 468.727 318.856C470.281 321.487 473.168 323.933 478.941 323.933C491.596 323.933 510.083 302.317 512.01 300.064C512.067 299.997 512.11 299.948 512.136 299.916C512.357 299.663 512.526 299.428 512.678 299.218ZM486.379 285.61C486.379 282.756 485.232 281.829 483.604 281.829C476.831 281.829 467.58 295.061 467.062 310.998C477.424 303.141 486.379 292.948 486.379 285.61ZM812.189 284.127C808.85 284.122 805.618 285.319 803.087 287.5C803.087 287.5 805.085 289.65 805.085 294.505C805.085 304.216 790.319 326.528 782.252 326.528C780.364 326.528 776.922 325.897 776.922 319.115C776.922 313.697 779.43 306.827 781.9 300.062V300.061C784.296 293.499 786.655 287.034 786.655 282.089C786.655 279.346 784.767 277.641 780.143 277.641C777.299 277.674 774.525 278.523 772.148 280.088C772.148 280.088 773.48 281.162 773.48 283.72C773.48 290.613 771.334 297.915 769.262 304.586C767.411 310.553 754.903 326.342 741.21 326.342C733.735 326.342 730.774 322.451 729.553 319.041C746.318 308.07 759.676 293.282 759.676 282.571C759.676 282.089 759.604 274.343 749.462 274.343C736.251 274.343 716.785 292.615 716.785 314.037C716.749 332.124 731.958 334.83 736.214 334.83C747.391 334.83 757.678 328.677 765.634 321.598C766.041 330.345 770.593 336.46 780.66 336.46C791.243 336.46 798.756 322.858 798.756 322.858L781.511 386.347C781.511 386.347 783.583 392.388 789.986 392.388C793.539 392.388 794.057 388.237 794.057 388.237C802.121 348.762 810.97 316.187 815.304 300.232C816.996 294.002 818 290.307 818 289.724C818 287.648 817.815 284.127 812.189 284.127ZM746.095 282.2C747.798 282.2 749.019 283.164 749.019 286.166C749.019 293.356 740.322 302.918 728.887 310.702C730.108 294.95 739.286 282.2 746.095 282.2ZM693.731 241.397C693.731 241.397 696.506 233.058 690.029 233.058C686.222 233.031 682.468 233.961 679.112 235.764C679.112 235.764 680.741 240.508 676.521 257.742C675.454 262.088 673.823 268.78 671.977 276.358C670.753 281.382 669.434 286.795 668.122 292.174C661.978 312.966 649.802 322.973 645.917 322.973C641.476 322.973 645.991 305.516 645.991 305.516L650.876 286.244L653.873 274.458C653.873 274.458 651.172 270.232 648.1 270.232C645.029 270.232 644.215 271.344 644.215 271.344L642.735 277.163L642.728 277.157C642.556 276.971 638.452 272.567 630.522 272.567C616.423 272.642 597.697 296.992 597.697 315.227C597.697 330.942 606.394 334.277 610.241 334.277C616.127 334.277 625.859 330.794 634.925 319.786C635.111 326.161 636.702 330.942 641.143 330.942C648.507 330.942 655.428 326.124 661.386 319.823C659.98 325.568 659.092 329.274 659.092 329.274C659.092 329.274 660.462 334.203 664.901 334.203C668.307 334.203 669.528 333.017 669.528 333.017L681.073 289.39L681.111 289.279H681.073L693.731 241.397ZM639.218 291.095C638.811 292.689 638.331 294.653 637.85 296.803C632.891 316.743 621.567 322.562 616.866 322.562C616.866 322.562 611.13 322.932 611.13 312.332C611.093 297.73 624.564 280.05 633.038 280.05C636.043 280.022 638.958 281.074 641.254 283.015L639.218 291.095ZM705.868 241.468C705.868 241.468 711.123 238.911 717.23 238.911C723.336 238.911 720.709 246.768 720.709 246.768L697.912 333.088C696.188 333.767 694.361 334.143 692.508 334.2C688.327 334.2 687.031 329.567 687.031 329.567C687.031 329.567 699.54 278.457 703.463 262.186C707.385 245.915 705.868 241.468 705.868 241.468Z" fill="white"/>
<defs>
<linearGradient id="paint0_linear_414_101" x1="0" y1="601" x2="235.625" y2="-254.573" gradientUnits="userSpaceOnUse">
<stop offset="0.00113387" stop-color="#520000"/>
<stop offset="1" stop-color="#E02C35"/>
</linearGradient>
</defs>
</svg>
