<svg width="399" height="114" viewBox="0 0 399 114" fill="none" xmlns="http://www.w3.org/2000/svg">
<path d="M21.3877 114C17.5957 114 14.1197 113.105 10.9597 111.314C7.90499 109.418 5.42966 106.943 3.53366 103.888C1.74299 100.728 0.847656 97.252 0.847656 93.46V20.78C0.847656 16.988 1.74299 13.5647 3.53366 10.51C5.42966 7.35003 7.90499 4.87469 10.9597 3.08403C14.1197 1.18803 17.5957 0.240028 21.3877 0.240028H114.292V17.304H23.7577C22.0723 17.304 20.6503 17.8834 19.4917 19.042C18.4383 20.0954 17.9117 21.4647 17.9117 23.15V91.09C17.9117 92.7754 18.4383 94.1974 19.4917 95.356C20.6503 96.4094 22.0723 96.936 23.7577 96.936H114.292V114H21.3877Z" fill="white"/>
<path d="M142.3 114V0.240028H230.78C234.466 0.240028 237.89 1.18803 241.05 3.08403C244.21 4.87469 246.685 7.35003 248.476 10.51C250.372 13.5647 251.32 16.988 251.32 20.78V44.006C251.32 45.3754 251.162 46.7447 250.846 48.114C250.635 49.4834 250.214 50.7474 249.582 51.906C251.688 54.8554 253.268 57.6467 254.322 60.28C255.48 62.808 256.06 65.3887 256.06 68.022V93.46C256.06 97.252 255.112 100.728 253.216 103.888C251.425 106.943 248.95 109.418 245.79 111.314C242.63 113.105 239.154 114 235.362 114H142.3ZM163.314 96.936H235.046C236.099 96.936 236.994 96.5674 237.732 95.83C238.469 94.9874 238.838 94.0394 238.838 92.986V68.496C238.838 67.4427 238.469 66.5474 237.732 65.81C236.994 64.9674 236.099 64.546 235.046 64.546H163.314C162.26 64.546 161.312 64.9674 160.47 65.81C159.732 66.5474 159.364 67.4427 159.364 68.496V92.986C159.364 94.0394 159.732 94.9874 160.47 95.83C161.312 96.5674 162.26 96.936 163.314 96.936ZM163.314 47.482H230.306C231.359 47.482 232.254 47.1134 232.992 46.376C233.729 45.5334 234.098 44.5854 234.098 43.532V21.254C234.098 20.2007 233.729 19.3054 232.992 18.568C232.254 17.7254 231.359 17.304 230.306 17.304H163.314C162.26 17.304 161.312 17.7254 160.47 18.568C159.732 19.3054 159.364 20.2007 159.364 21.254V43.532C159.364 44.5854 159.732 45.5334 160.47 46.376C161.312 47.1134 162.26 47.482 163.314 47.482Z" fill="white"/>
<path d="M284.505 114V0.0820312H301.569V96.936H398.265V114H284.505Z" fill="white"/>
</svg>
