<svg width="186" height="66" viewBox="0 0 186 66" fill="none" xmlns="http://www.w3.org/2000/svg">
<path d="M44.2598 39.8351C46.5794 33.9994 46.6825 27.5165 44.5495 21.61C43.8989 20.9339 43.2115 20.2942 42.4905 19.6936C41.1959 19.4193 39.9248 19.0441 38.6887 18.5715C36.4592 17.7195 34.3606 16.5582 32.4543 15.1219C32.1073 14.8616 31.7675 14.592 31.4351 14.313C29.9658 14.0018 28.4719 13.8205 26.9708 13.7711C26.1741 13.901 25.3856 14.0532 24.6051 14.2277C17.2922 15.872 10.5655 19.4777 5.14752 24.6573C3.2475 26.4708 1.52393 28.4605 0 30.5998L1.0898 30.5424C2.57271 29.6593 4.26722 29.1945 5.99318 29.1974C6.10569 29.1974 6.21746 29.1974 6.32924 29.204C5.327 29.4519 4.37196 29.8618 3.50178 30.4174L7.77569 30.1924L8.53458 30.1534C8.77651 30.0166 9.02507 29.8894 9.2795 29.7747C9.81469 29.5317 10.3713 29.3389 10.9421 29.1989C11.693 29.0149 12.4633 28.9218 13.2365 28.9217C14.0089 28.9206 14.7786 29.0135 15.5286 29.1982C14.4886 29.2022 13.4563 29.3761 12.4724 29.7129C12.2401 29.7933 12.0118 29.8823 11.7878 29.9798L12.9151 29.9203L17.0412 29.7048L18.4568 29.6313L20.5261 29.5225C20.1966 29.6901 19.8724 29.8666 19.5525 30.049C19.2451 30.2225 18.9429 30.4029 18.6458 30.5902C18.0575 30.9579 17.4851 31.3501 16.9287 31.7668C17.8284 31.6415 18.7342 31.5647 19.6422 31.5366C18.5046 31.8607 17.3915 32.265 16.311 32.7463C15.8458 32.9532 15.3879 33.1738 14.9374 33.4081C14.7248 33.6022 14.5153 33.7993 14.3086 34.0023C14.0145 34.2871 13.7284 34.5795 13.4505 34.8795C10.8989 37.616 8.9795 40.8794 7.8279 44.4392C7.79996 44.5245 7.77201 44.6113 7.74481 44.6966C7.80952 44.6598 7.87496 44.6231 7.94041 44.5914C9.8807 43.5761 12.1098 43.2547 14.2579 43.6803C14.254 43.6884 14.2494 43.696 14.2439 43.7031C12.6908 43.732 11.1684 44.1415 9.81043 44.8959C10.461 44.9268 11.1164 44.9422 11.7768 44.9422C12.3173 44.9422 12.8563 44.9326 13.3946 44.9098C14.2579 44.8785 15.1143 44.8189 15.9639 44.7312C16.2801 44.7003 16.5956 44.6642 16.9103 44.6253C17.3361 44.5731 17.7582 44.515 18.1788 44.4473C19.2049 44.2885 20.2175 44.0924 21.2166 43.859C21.5453 43.7855 21.8718 43.7031 22.1976 43.6178C22.1836 43.6384 22.1681 43.6597 22.1527 43.6789C21.3791 44.1693 20.718 44.8025 20.026 45.482C19.751 45.7511 19.4716 46.0283 19.1782 46.3078C18.4288 47.0174 17.592 47.7344 16.5176 48.3535C14.8543 49.3161 12.6261 50.0463 9.28244 50.1721C8.40369 50.2059 7.54111 50.0985 6.69986 49.964C6.30767 49.9017 5.9216 49.824 5.54167 49.7309C5.46813 49.7154 5.40195 49.6985 5.33356 49.6801L5.47181 49.911C5.81604 50.4674 6.1945 51.0018 6.605 51.5112C6.80502 51.7612 7.01312 52.0046 7.22932 52.2414C9.20574 53.4418 11.3369 54.3666 13.5637 54.9902C12.2201 54.8884 10.8867 54.6806 9.57585 54.3688C12.3265 56.4067 15.66 57.505 19.0833 57.5014C19.1568 57.5014 19.226 57.5014 19.2966 57.5014C21.2088 57.0736 23.0652 56.4261 24.8287 55.5718C25.3964 55.2978 25.9506 55.0036 26.4913 54.6894C26.1928 54.9438 25.8869 55.1924 25.5765 55.4328C24.9074 55.9515 24.2129 56.4368 23.4933 56.8889C24.9158 56.4811 26.2743 55.8767 27.5296 55.0931C27.3859 56.2011 27.3137 57.3173 27.3135 58.4346C27.3135 58.478 27.3135 58.5214 27.3135 58.5647C27.6541 57.707 28.117 56.903 28.6878 56.1778C28.0825 58.1076 27.7092 60.1027 27.576 62.1209C27.7084 63.0466 27.8928 63.964 28.1282 64.869C28.2106 65.1906 28.2993 65.5092 28.3944 65.8249C29.8568 65.3808 31.276 64.8051 32.6345 64.1049C36.7205 61.9995 40.1672 58.837 42.6155 54.9468C43.6049 53.3766 44.4187 51.7024 45.0422 49.9544C44.4078 47.7709 43.4825 45.6826 42.2912 43.7458C43.0586 42.5012 43.7173 41.1928 44.2598 39.8351Z" fill="#FEFEFE"/>
<path d="M37.8713 13.852C37.8734 15.2273 37.4305 16.5665 36.6086 17.6692C36.5638 17.7295 36.5175 17.7891 36.4704 17.8479C35.7238 18.7795 34.732 19.4841 33.6067 19.8826C32.4814 20.281 31.2671 20.3575 30.1007 20.1033C29.2774 19.9238 28.498 19.5823 27.8079 19.0988C28.7189 18.8381 29.644 18.6292 30.5787 18.473C30.6155 18.3597 30.6522 18.248 30.6934 18.1347C30.5316 18.0788 30.3677 18.0259 30.2044 17.9752C30.4 17.9303 30.5971 17.8876 30.7927 17.8479C32.4844 17.5016 34.2068 17.3274 35.9336 17.328C34.7159 16.6885 33.5524 15.9507 32.4546 15.122C32.334 15.0308 32.2141 14.9403 32.095 14.8462C31.8744 14.6734 31.6538 14.4962 31.4332 14.3153C29.9638 14.0041 28.47 13.8227 26.9688 13.7733C26.1722 13.9032 25.3836 14.0554 24.6032 14.23C22.8082 14.6323 21.0423 15.1549 19.3174 15.7941C18.2188 16.2005 17.1427 16.6522 16.0892 17.1493C15.0212 17.3688 13.9336 17.4791 12.8433 17.4788C12.2754 17.4789 11.7079 17.4492 11.1432 17.3898C9.44489 17.2113 7.78663 16.7596 6.23242 16.0522C9.61536 16.0106 12.8969 14.8913 15.6002 12.8571C15.6002 12.8725 15.6002 12.8887 15.6002 12.9041C18.7436 10.4348 22.4236 8.73899 26.343 7.95368C26.748 7.87279 27.1573 7.80146 27.5711 7.73969C28.7813 7.55895 30.0029 7.46409 31.2266 7.45584H31.3891C31.5119 7.45584 31.6332 7.45584 31.7567 7.45584C33.4037 7.52879 34.9589 8.2347 36.0981 9.42636C37.2373 10.618 37.8725 12.2034 37.8713 13.852Z" fill="#FEFEFE"/>
<path d="M36.4918 17.328C36.4918 17.4207 36.4867 17.5111 36.4823 17.603C36.4778 17.6949 36.4734 17.7692 36.4734 17.8479C36.469 17.9545 36.4631 18.0604 36.458 18.1663C36.4041 19.2448 36.3085 20.3111 36.1712 21.3651C36.1528 21.5122 36.1337 21.6593 36.1124 21.8063C35.8738 23.501 35.53 25.1791 35.0829 26.8311C35.0785 26.8436 35.0755 26.8575 35.0711 26.87C34.9731 27.2235 34.8726 27.5752 34.7696 27.9253C33.1501 27.211 31.4856 26.6036 29.7868 26.1067L29.5897 26.0501C31.3399 26.1048 33.0799 26.3394 34.7821 26.7502L34.5733 26.6707C34.5343 26.6553 34.4953 26.6413 34.4563 26.6274C34.3416 26.584 34.2254 26.5421 34.11 26.5016C33.4276 26.2565 32.7322 26.0423 32.0238 25.8589C31.9002 25.8266 31.7777 25.7954 31.6561 25.7655C31.537 25.7361 31.4186 25.7082 31.298 25.6802L31.0737 25.6295C30.8207 25.5736 30.5648 25.5206 30.3074 25.4736C30.2111 25.4552 30.1148 25.4368 30.017 25.4199C29.9192 25.403 29.8133 25.3839 29.7111 25.367L29.4647 25.3294C29.4206 25.3206 29.3757 25.314 29.3324 25.3081C28.0764 25.1215 26.8084 25.0281 25.5386 25.0287C25.41 25.0287 25.2827 25.0287 25.154 25.0287C22.8728 24.6403 20.5631 24.4435 18.249 24.4404C18.9662 23.7532 19.7224 23.108 20.5139 22.5079C22.7508 20.9903 25.2153 19.839 27.8146 19.0973C28.7257 18.8366 29.6507 18.6277 30.5854 18.4715C30.8273 18.431 31.0707 18.3928 31.3134 18.3597C31.1112 18.2796 30.9068 18.2046 30.7001 18.1332C30.5383 18.0773 30.3744 18.0244 30.2111 17.9736C30.4067 17.9288 30.6038 17.8861 30.7994 17.8464C32.4887 17.5011 34.2087 17.3274 35.9329 17.328H35.9528C36.133 17.328 36.3131 17.328 36.4918 17.328Z" fill="#FEFEFE"/>
<path d="M52.3484 47.6152C51.8017 47.7289 51.2616 47.8726 50.7306 48.0454C50.1525 52.921 48.1804 57.5263 45.0507 61.3091C44.6747 61.7641 44.2825 62.2053 43.8741 62.6328C44.275 62.0525 44.6359 61.4457 44.9544 60.8164C45.0181 60.6924 45.0799 60.5666 45.1397 60.4392C44.6699 61.0248 44.1576 61.5751 43.6072 62.0857C43.5996 62.0936 43.5912 62.1007 43.5822 62.107C42.6029 62.9261 41.5284 63.6241 40.3819 64.1858C40.1532 64.2447 39.9208 64.2991 39.6877 64.3469C38.655 64.5639 37.6031 64.6773 36.5477 64.6851C37.3943 64.2573 38.1354 63.647 38.7175 62.8981C39.2997 62.1492 39.7084 61.2805 39.9142 60.3546C39.9348 60.2553 39.9561 60.1546 39.9716 60.0524C39.9716 60.0524 39.9716 60.0524 39.9716 60.0472C40.2416 58.7251 40.6798 57.443 41.2754 56.2322C40.748 54.1618 40.4819 52.0336 40.4834 49.8971C40.4834 49.5142 40.4917 49.1335 40.5084 48.7551C40.1319 49.6118 39.8326 50.5005 39.6142 51.4104C39.4077 49.9512 39.4035 48.4704 39.6017 47.01C39.6363 46.7416 39.6796 46.4747 39.7289 46.2092C39.4745 46.3161 39.2183 46.4181 38.9605 46.5151C36.4889 47.4568 33.8856 48.0071 31.2443 48.1462C32.0509 47.8021 32.8063 47.3488 33.4894 46.799C32.2599 47.1608 31.0071 47.466 29.731 47.7145C29.0098 47.8557 28.2813 47.9783 27.5455 48.0822C27.1371 48.0454 26.7314 47.9994 26.3285 47.944C25.0599 47.7686 23.8062 47.4982 22.5781 47.1351C22.9134 46.964 23.2412 46.7811 23.5613 46.5865C24.9458 46.0753 26.1941 45.2522 27.2094 44.181C28.2247 43.1099 28.9798 41.8194 29.4162 40.4095C29.8985 39.5094 30.2926 38.5647 30.5928 37.5886C30.6421 37.4305 30.6884 37.2724 30.7318 37.1128C30.7862 36.9165 30.8362 36.7165 30.8789 36.5165C30.5391 36.8643 30.217 37.2276 29.9075 37.6063C29.8839 37.6327 29.8626 37.6592 29.8405 37.6872C29.5596 38.0372 29.2942 38.3978 29.0441 38.7689C29.1236 38.3887 29.2162 38.0129 29.3236 37.6445C29.451 37.1979 29.5969 36.7609 29.7611 36.3334C29.9987 35.7134 30.276 35.1094 30.5913 34.5251C30.5913 34.5251 30.5913 34.5207 30.5913 34.5192C30.6614 34.3869 30.735 34.2552 30.8119 34.1243C30.6928 34.1155 30.5744 34.1089 30.4553 34.1015L30.3928 34.0971C30.2266 34.0861 30.0604 34.078 29.8927 34.0707C29.6538 34.0582 29.4133 34.0486 29.1728 34.0405C28.7588 34.0273 28.3441 34.0207 27.9227 34.0207C28.2796 33.8888 28.6424 33.7704 29.011 33.6655C29.4126 33.5503 29.8207 33.4503 30.2354 33.3655C30.5957 33.2919 30.9605 33.2309 31.3311 33.1824C31.083 33.1701 30.8342 33.164 30.5847 33.164C30.4494 33.164 30.3148 33.1654 30.181 33.1684C29.7217 33.1806 29.2674 33.2118 28.8184 33.2618C27.5711 33.3975 26.3445 33.6814 25.1644 34.1074C24.8139 34.1295 24.4646 34.1565 24.1165 34.1883C25.2847 33.2567 26.5322 32.4292 27.8448 31.7153C28.4365 31.3937 29.0429 31.0952 29.664 30.8196C29.7619 30.7763 29.8611 30.7329 29.9582 30.691C30.0553 30.649 30.156 30.6071 30.2523 30.5667C30.4509 30.4828 30.6507 30.4027 30.8517 30.3262C30.9252 30.2968 30.9943 30.2689 31.0671 30.2424C32.133 29.8412 33.2251 29.5134 34.3358 29.2614C34.2348 29.5595 34.1309 29.8553 34.024 30.149C33.8279 30.6912 33.62 31.2278 33.4004 31.7587C33.8056 32.0755 34.1841 32.4249 34.5321 32.8036C37.606 32.4465 40.7176 32.9875 43.4905 34.3613C46.2634 35.7351 48.5789 37.8828 50.157 40.5448C50.3357 40.8448 50.5034 41.1514 50.663 41.464C51.6344 43.3795 52.2078 45.472 52.3484 47.6152Z" fill="#FEFEFE"/>
<path d="M44.6451 7.16534L44.7187 7.17785C46.3034 7.46507 47.8574 7.90212 49.3595 8.48311C48.3687 8.36847 47.3721 8.31102 46.3747 8.31103C45.8952 8.31103 45.4192 8.32427 44.9466 8.35074C44.4775 8.37722 44.012 8.41472 43.5494 8.4662C41.8865 8.64691 40.2455 8.99176 38.6505 9.4957L38.8615 10.5811L38.7409 10.5576L36.768 10.1752L36.7275 10.1921C36.7211 10.1824 36.7143 10.1731 36.7069 10.1641H36.7025V10.1597C35.8641 8.97264 34.6464 8.10641 33.25 7.70363C34.5868 7.33171 35.9518 7.06954 37.3312 6.91973C37.5813 6.89179 37.8328 6.86728 38.0857 6.8462L38.135 6.84179C38.7914 6.79276 39.455 6.76825 40.1256 6.76825C40.3075 6.76825 40.4884 6.76997 40.6683 6.7734L44.6451 7.16534Z" fill="#FEFEFE"/>
<path d="M60.3134 3.37751C59.2968 4.23964 58.111 4.8794 56.8322 5.25561C56.9179 5.50603 56.9614 5.76895 56.9609 6.03362C56.9609 6.67722 56.7052 7.29446 56.2501 7.74955C55.7951 8.20464 55.1778 8.46031 54.5342 8.46031C53.8906 8.46031 53.2734 8.20464 52.8183 7.74955C52.3632 7.29446 52.1075 6.67722 52.1075 6.03362C52.1079 5.83719 52.1326 5.64156 52.1811 5.45122C52.3178 4.89839 52.6451 4.41147 53.1054 4.0761C52.3509 3.4981 51.618 2.89437 50.9067 2.26491C50.0875 1.54131 49.298 0.786344 48.5381 0C47.8925 0.668687 47.226 1.31482 46.5387 1.93841C45.8401 2.57229 45.1199 3.18239 44.3782 3.76872C44.8036 4.13623 45.0877 4.64037 45.1819 5.19458C45.2054 5.32835 45.2169 5.46394 45.2165 5.59976C45.2144 6.16519 45.0148 6.71212 44.6524 7.14611C44.29 7.5801 43.7873 7.87391 43.2314 7.97679C42.6754 8.07967 42.1009 7.98517 41.6072 7.7096C41.1134 7.43404 40.7314 6.99471 40.5271 6.46749C40.4198 6.19081 40.3652 5.89651 40.3661 5.59976C40.3664 5.27905 40.4296 4.9615 40.5521 4.66512C39.3626 4.21889 38.2739 3.54018 37.3496 2.66862L38.2512 7.78157L39.2417 13.396C41.9142 13.9285 44.6328 14.1958 47.3578 14.1939C50.8945 14.1965 54.4169 13.7457 57.8389 12.8526L57.7794 12.8357L59.0993 7.90879L60.3134 3.37751Z" fill="#FEFEFE"/>
<path fill-rule="evenodd" clip-rule="evenodd" d="M69.5981 44.2893C69.5981 44.4238 69.5959 44.5562 69.59 44.6878L69.5937 44.6959C69.5745 45.1612 69.5217 45.6244 69.4356 46.0821C71.969 44.2598 74.1502 41.9924 75.8729 39.3903C76.197 38.903 76.5031 38.4042 76.7914 37.8938C76.6404 37.1325 76.4688 36.379 76.2766 35.6333C74.1618 27.4218 69.5688 20.061 63.1225 14.5521L63.1008 14.533C63.0311 14.4719 62.9621 14.4114 62.8894 14.352C62.846 14.3166 62.8033 14.2805 62.7606 14.2445C62.7244 14.214 62.6883 14.1835 62.6519 14.1535C59.0874 11.2197 54.7967 9.30315 50.233 8.60639C45.6693 7.90963 41.0021 8.45852 36.7246 10.1951C35.878 10.5378 35.0507 10.9264 34.2464 11.3591C33.4369 12.4621 32.7171 13.6282 32.094 14.8462C32.2083 14.9365 32.3233 15.0234 32.4389 15.1109L32.4536 15.122C33.5514 15.9507 34.7149 16.6885 35.9326 17.328C34.2088 17.328 32.4894 17.5022 30.8005 17.8479C30.7652 17.9435 30.7322 18.0399 30.6998 18.1347C30.6586 18.248 30.6218 18.3598 30.5851 18.473C30.4076 19.0083 30.2483 19.5518 30.1071 20.1033C30.0027 20.5121 29.9078 20.9249 29.8225 21.3416C29.5555 22.6489 29.3915 23.9752 29.332 25.3082C29.3754 25.314 29.4203 25.3207 29.4644 25.3295L29.7107 25.367C29.7788 25.3783 29.8484 25.3905 29.9163 25.4024C29.9503 25.4084 29.9839 25.4143 30.0167 25.4199C30.1145 25.4369 30.2108 25.4538 30.3071 25.4736C30.5645 25.5207 30.8204 25.5736 31.0734 25.6295L31.2976 25.6803C31.4182 25.7082 31.5366 25.7361 31.6558 25.7656C31.7773 25.7955 31.8999 25.8266 32.0234 25.8589C32.7318 26.0423 33.4272 26.2565 34.1097 26.5017C34.2251 26.5421 34.3413 26.584 34.456 26.6274C34.495 26.6414 34.534 26.6553 34.5729 26.6708L34.7818 26.7502C33.0784 26.3387 31.3372 26.1036 29.5857 26.0487L29.7828 26.1053C31.4816 26.6021 33.1461 27.2096 34.7656 27.9238C35.423 28.2111 36.0704 28.5156 36.7077 28.8372C35.9047 28.9435 35.1149 29.0852 34.3384 29.2622C33.2277 29.5142 32.1356 29.8419 31.0697 30.2432C31.0035 30.2672 30.9404 30.2925 30.8743 30.319L30.8542 30.327C30.6532 30.4035 30.4535 30.4836 30.2549 30.5675C30.2359 30.5754 30.2167 30.5835 30.1975 30.5915C30.119 30.6244 30.0387 30.6581 29.9608 30.6917C29.8637 30.7336 29.7644 30.777 29.6666 30.8204C29.7225 31.1528 29.785 31.4822 29.8549 31.8109C29.9512 32.2676 30.0615 32.7221 30.1836 33.1692C30.3174 33.1662 30.452 33.1647 30.5873 33.1647C30.8368 33.1647 31.0856 33.1709 31.3337 33.1831C30.9631 33.2317 30.5983 33.2927 30.238 33.3662C30.2523 33.4214 30.2679 33.4765 30.2835 33.5316C30.2887 33.55 30.2939 33.5684 30.299 33.5868C30.3066 33.6124 30.3142 33.638 30.3217 33.6636C30.3648 33.8094 30.4079 33.9552 30.4542 34.1016C30.4831 34.1034 30.512 34.1051 30.5408 34.1069C30.6308 34.1123 30.7206 34.1177 30.8108 34.1244C30.7339 34.2553 30.6603 34.3869 30.5902 34.5193V34.5252C31.2535 36.5256 32.1635 38.4356 33.2993 40.211C34.8274 42.6109 36.7436 44.7403 38.9697 46.5123C39.2275 46.4152 39.4837 46.3132 39.7381 46.2063C39.6888 46.4718 39.6454 46.7387 39.6109 47.0071C42.4454 49.1249 45.6897 50.6292 49.1375 51.4245C49.4409 51.4941 49.7456 51.5583 50.0515 51.6171C51.3376 51.863 52.6405 52.0105 53.9489 52.0583C53.9833 52.0594 54.0178 52.0606 54.0526 52.0618C54.1628 52.0655 54.2746 52.0694 54.3865 52.0694L54.396 52.0782H54.5835C56.2229 52.0756 57.8001 52.7048 58.9876 53.835L59.1053 53.846C59.5377 54.3338 59.9578 54.8316 60.3657 55.3395L60.3954 55.3768C60.496 55.5028 60.5975 55.63 60.6966 55.7572C62.3765 57.9015 63.8402 60.2068 65.0661 62.6394L65.0815 62.6446L65.0764 62.6585L63.8601 66C64.2726 65.9397 65.069 65.7412 65.069 65.7412L65.4227 65.6338C65.4227 65.6338 66.0095 65.4286 66.2919 65.3036C68.1743 64.4811 69.7445 63.0784 70.7732 61.3003C70.776 61.2935 70.7797 61.2871 70.7842 61.2812L70.9313 61.0143C70.9345 61.01 70.937 61.0053 70.9387 61.0003C73.5623 56.1676 75.1877 50.8568 75.7185 45.3835C74.9657 46.5067 73.9838 47.458 72.8374 48.1749C71.6909 48.8918 70.4058 49.3582 69.0664 49.5434C68.7098 49.5927 66.8964 49.5978 66.6574 49.5713C66.667 49.5419 66.675 49.514 66.6824 49.486C66.714 49.3787 66.7449 49.2713 66.7743 49.1625C66.8701 48.7954 66.9437 48.4229 66.9949 48.0469C66.9995 48.0234 67.0027 47.9993 67.0059 47.9752C67.0078 47.9609 67.0096 47.9465 67.0118 47.9322C67.0258 47.8205 67.0383 47.7116 67.0479 47.5998C67.0753 47.3067 67.0891 47.0101 67.0891 46.7101C67.0905 45.551 66.8811 44.4013 66.4714 43.3171C66.2034 43.5334 65.9187 43.7279 65.6198 43.8988C64.4102 44.5879 63.0087 44.8634 61.6283 44.6834C60.6587 42.6292 59.5212 40.6586 58.2272 38.7917C57.8365 38.2265 57.4308 37.6713 57.0102 37.1261C56.8051 36.857 56.594 36.5886 56.3778 36.3246C56.1962 36.0981 56.0101 35.8701 55.8226 35.6495C53.9978 33.4877 51.9569 31.518 49.7316 29.7711C52.6489 30.6689 55.3813 32.0834 57.7985 33.9472C58.1417 34.2094 58.4802 34.482 58.8141 34.7649C58.9023 34.8392 58.9869 34.9127 59.0736 34.9914C59.1869 35.0869 59.2971 35.1862 59.4074 35.2854L59.4075 35.2855C60.4636 36.2442 61.4377 37.2897 62.3195 38.4108C62.7078 38.903 63.0772 39.4084 63.4277 39.9271L63.766 39.444L65.7514 36.6055C66.946 37.4988 67.9158 38.6585 68.5835 39.9924C69.2513 41.3263 69.5987 42.7976 69.5981 44.2893ZM47.3254 19.2399C47.3254 19.2399 46.8305 25.2596 53.1759 22.8432L47.3254 19.2399Z" fill="#FEFEFE"/>
<path d="M95.9915 21.1345C99.2531 21.1345 102.197 22.699 104 25.2181L99.6774 27.6312C98.7758 26.4379 97.556 25.828 96.0446 25.828C94.6922 25.828 93.605 26.3053 92.7299 27.2334C91.8549 28.1615 91.4306 29.3283 91.4306 30.6806C91.4306 32.033 91.8549 33.1998 92.7299 34.1279C93.605 35.056 94.6922 35.5333 96.0446 35.5333C97.556 35.5333 98.7758 34.9234 99.6774 33.7301L104 36.1432C102.197 38.6623 99.2531 40.2268 95.9915 40.2268C90.6086 40.2268 86.2333 35.9575 86.2333 30.6806C86.1007 25.5098 90.7146 21.0284 95.9915 21.1345Z" fill="#FEFEFE"/>
<path d="M118.923 21.3997H123.908V31.4231C123.908 37.3364 120.779 40.2268 115.37 40.2268C109.987 40.2268 106.858 37.3364 106.858 31.4231V21.3997H111.87V31.4231C111.87 34.3135 113.169 35.6659 115.396 35.6659C117.624 35.6659 118.923 34.3135 118.923 31.4231V21.3997Z" fill="#FEFEFE"/>
<path d="M127.548 39.9616V21.3997H135.901C141.947 21.3997 144.387 23.3089 144.387 27.8433C144.387 30.9193 143.247 32.7755 140.701 33.6506L144.864 39.9616H139.136L135.53 34.287L134.682 34.3135H132.56V39.9616H127.548ZM136.167 25.9076H132.56V30.4685H136.167C138.341 30.4685 139.189 29.8056 139.189 28.188C139.189 26.5705 138.341 25.9076 136.167 25.9076Z" fill="#FEFEFE"/>
<path d="M147.385 39.9616V21.3997H155.737C161.783 21.3997 164.223 23.3089 164.223 27.8433C164.223 30.9193 163.083 32.7755 160.537 33.6506L164.7 39.9616H158.972L155.366 34.287L154.518 34.3135H152.396V39.9616H147.385ZM156.003 25.9076H152.396V30.4685H156.003C158.177 30.4685 159.025 29.8056 159.025 28.188C159.025 26.5705 158.177 25.9076 156.003 25.9076Z" fill="#FEFEFE"/>
<path d="M185.004 21.3997L177.633 33.571V39.9616H172.621V33.6506L165.249 21.3997H171.242L175.167 28.2941L179.091 21.3997H185.004Z" fill="#FEFEFE"/>
<path d="M95.9915 44.0681C99.2531 44.0681 102.197 45.6326 104 48.1518L99.6774 50.5648C98.7758 49.3715 97.556 48.7616 96.0446 48.7616C94.6922 48.7616 93.605 49.239 92.7299 50.1671C91.8549 51.0951 91.4306 52.2619 91.4306 53.6143C91.4306 54.9666 91.8549 56.1334 92.7299 57.0615C93.605 57.9896 94.6922 58.4669 96.0446 58.4669C97.556 58.4669 98.7758 57.857 99.6774 56.6637L104 59.0768C102.197 61.5959 99.2531 63.1604 95.9915 63.1604C90.6086 63.1604 86.2333 58.8912 86.2333 53.6143C86.1007 48.4434 90.7146 43.9621 95.9915 44.0681Z" fill="#FEFEFE"/>
<path d="M106.858 62.8952V44.3333H115.211C121.257 44.3333 123.696 46.2425 123.696 50.7769C123.696 53.8529 122.556 55.7091 120.01 56.5842L124.174 62.8952H118.446L114.84 57.2206L113.991 57.2471H111.87V62.8952H106.858ZM115.476 48.8412H111.87V53.4021H115.476C117.65 53.4021 118.499 52.7392 118.499 51.1217C118.499 49.5041 117.65 48.8412 115.476 48.8412Z" fill="#FEFEFE"/>
<path d="M141.915 44.3333V48.8147H131.706V51.3603H141.199V55.6296H131.706V58.4139H142.074V62.8952H126.694V44.3333H141.915Z" fill="#FEFEFE"/>
<path d="M172.769 44.3333L166.67 62.8952H161.552L158.211 52.2089L154.843 62.8952H149.725L143.626 44.3333H149.221L152.536 55.0992L155.771 44.3333H160.65L163.859 55.0992L167.173 44.3333H172.769Z" fill="#FEFEFE"/>
</svg>
