<svg width="286" height="248" viewBox="0 0 286 248" fill="none" xmlns="http://www.w3.org/2000/svg">
<g clip-path="url(#clip0_378_715)">
<path d="M285.489 140.035C284.953 137.296 284.332 134.542 283.643 131.837C276.014 102.148 259.461 75.5339 236.23 55.6087C235.938 55.3525 235.642 55.0963 235.349 54.853L234.49 54.1331C230.888 51.1533 227.072 48.4433 223.074 46.0251L234.787 2.18777L217.235 17.0974C214.516 19.4182 211.34 21.1378 207.913 22.1441L205.993 22.7102L201.513 19.2774C199.094 17.4202 196.686 15.4348 194.361 13.3674C191.698 11.0054 189.1 8.50001 186.641 5.96384L181.464 0.584087L176.292 5.96384C174.21 8.13624 172.016 10.2651 169.774 12.2966C167.491 14.3767 165.123 16.3954 162.738 18.2758L159.044 21.209L156.59 20.2868C153.399 19.0864 150.48 17.2572 148.006 14.907L132.225 0L137.2 28.3077C134.416 28.7637 131.652 29.3325 128.935 30.0421C127.374 29.7139 125.788 29.5142 124.195 29.4452H124.082H123.972C123.523 29.4452 123.076 29.4452 122.624 29.4452H122.019C117.482 29.4718 112.953 29.8193 108.464 30.4853C106.932 30.7158 105.4 30.9823 103.895 31.2845C93.5498 33.374 83.6235 37.1774 74.524 42.5385L74.4473 41.67L64.1061 49.4681C56.0555 55.561 46.2725 58.9103 36.188 59.0261L4.08644 59.477L33.302 72.7983C36.9041 74.4441 40.6564 75.737 44.5065 76.6589C30.7812 86.3999 18.7908 98.3913 9.0387 112.129L0.692141 123.888L0 124.331L16.3024 123.478L16.2104 123.517L59.8358 121.173L46.2279 131.361L51.9106 130.564C44.3587 139.791 38.5939 150.353 34.9136 161.705C34.8088 162.028 34.7041 162.356 34.602 162.681L33.7132 165.54L22.9862 171.527L31.7338 171.942L31.1029 173.968L17.9063 170.433L27.0727 185.765L15.3242 182.96L43.4644 203.918C54.1416 211.865 67.0873 216.15 80.3829 216.138C80.6741 216.138 80.9652 216.138 81.2538 216.138H81.9792L82.6866 215.979C87.4225 214.917 92.0694 213.49 96.5857 211.709L97.5 213.758C98.8281 213.375 100.141 212.949 101.438 212.477C101.438 212.595 101.438 212.713 101.438 212.831L102.526 247.615L105.543 239.983L107.525 246.587L114.433 244.487C117.68 243.497 120.87 242.332 123.99 240.995L140.385 240.867C144.47 240.835 148.543 240.395 152.542 239.555C153.405 239.378 154.294 239.171 155.257 238.925L155.974 238.741L156.639 238.413C161.044 236.245 165.177 233.56 168.949 230.412L169.1 230.289L170.67 231.57C172.172 229.992 173.646 228.327 175.043 226.628C182.349 217.765 187.996 207.649 191.71 196.768C194.198 197.071 196.701 197.281 199.201 197.383L199.411 197.529L201.771 197.475H202.215C205.999 197.469 209.639 198.925 212.38 201.541L214.148 203.219C214.936 204.151 215.702 205.085 216.446 206.019C216.804 206.462 217.156 206.91 217.516 207.374C222.368 213.59 226.669 220.22 230.371 227.187L223.179 247.059L235.093 245.319C236.779 245.063 239.435 244.418 239.946 244.295L240.125 244.248L241.657 243.782L241.795 243.734C242.178 243.6 244.137 242.906 245.279 242.401C253.139 238.94 259.699 233.062 264.01 225.617L264.237 225.225L264.258 225.173L264.584 224.576C264.646 224.471 264.702 224.364 264.756 224.256C274.185 206.819 280.02 187.658 281.914 167.912L284.026 146.137C284.256 145.745 284.478 145.353 284.697 144.966L286.003 142.645L285.489 140.035ZM46.4833 176.481C46.1896 176.494 45.8984 176.499 45.6073 176.499C43.404 176.46 41.2074 176.244 39.0383 175.854C38.4219 175.753 37.8217 175.644 37.2377 175.526L42.6471 172.452L48.2354 172.708C50.5646 172.818 52.9501 172.874 55.3228 172.874C57.3405 172.874 59.3071 172.836 61.1383 172.759C62.5226 172.708 63.9171 172.636 65.309 172.544C60.2035 174.911 54.01 176.197 46.4833 176.481Z" fill="white"/>
<path d="M166.794 148.107C174.753 128.017 175.106 105.699 167.784 85.366C165.556 83.0398 163.201 80.8384 160.73 78.772C156.287 77.8266 151.924 76.5349 147.682 74.9088C140.027 71.9766 132.82 67.9805 126.274 63.0375C125.084 62.1434 123.919 61.2135 122.777 60.2631C117.734 59.1897 112.606 58.5647 107.453 58.3955C104.72 58.8447 102.014 59.369 99.334 59.9684C74.2415 65.6264 51.1595 78.0331 32.5666 95.8565C26.0472 102.098 20.1321 108.944 14.9004 116.305L18.6446 116.118C23.7337 113.077 29.5494 111.476 35.4731 111.486C35.8613 111.486 36.2393 111.486 36.6301 111.509C33.1855 112.36 29.9028 113.771 26.912 115.685L41.5823 114.916L44.1849 114.768C45.0149 114.296 45.868 113.858 46.7389 113.464C48.5753 112.627 50.4855 111.964 52.4446 111.483C55.0234 110.85 57.6688 110.53 60.3238 110.53C62.9747 110.527 65.6162 110.847 68.1902 111.483C64.6194 111.501 61.0758 112.107 57.7008 113.277C56.9039 113.551 56.1173 113.858 55.3511 114.194L59.2204 113.986L73.3825 113.231L78.2352 112.974L85.3379 112.598C84.2073 113.177 83.0929 113.781 81.9947 114.412C80.9407 115.008 79.9038 115.628 78.8839 116.274C76.8645 117.548 74.9013 118.899 72.9943 120.327C76.0821 119.897 79.1905 119.632 82.3063 119.533C78.4031 120.651 74.5831 122.043 70.8745 123.698C69.279 124.405 67.7041 125.163 66.1495 125.97C65.4216 126.639 64.7014 127.315 63.9914 128.02C62.9851 129.001 62.0069 130.005 61.0466 131.04C52.2928 140.463 45.7092 151.699 41.7611 163.954C41.664 164.246 41.567 164.546 41.4776 164.838C41.6972 164.715 41.922 164.594 42.1493 164.479C48.808 160.983 56.4581 159.876 63.8304 161.341C63.8158 161.367 63.7996 161.393 63.7819 161.418C58.4519 161.516 53.2271 162.923 48.565 165.517C50.8007 165.621 53.0499 165.674 55.3128 165.675C57.1695 165.675 59.0187 165.642 60.8601 165.565C63.8262 165.456 66.7659 165.25 69.6792 164.948C70.7646 164.843 71.8475 164.717 72.9279 164.584C74.3888 164.405 75.8369 164.202 77.2697 163.972C80.7892 163.424 84.2644 162.747 87.6953 161.943C88.8208 161.68 89.9428 161.402 91.0615 161.11C91.013 161.182 90.9593 161.254 90.9082 161.323C88.2521 163.011 85.9815 165.189 83.6088 167.528C82.6638 168.455 81.7035 169.408 80.6972 170.371C78.1279 172.813 75.2546 175.282 71.5666 177.411C65.8635 180.741 58.2116 183.257 46.7338 183.69C43.7175 183.805 40.7599 183.434 37.8713 182.973C36.5304 182.757 35.2024 182.491 33.8972 182.171C33.6572 182.117 33.4171 182.058 33.1821 181.997L33.6572 182.791C34.8441 184.703 36.1475 186.54 37.5597 188.291C38.2408 189.145 38.9551 189.983 39.7026 190.807C46.4862 194.938 53.8003 198.121 61.4424 200.267C56.8328 199.922 52.2578 199.21 47.7605 198.138C57.1995 205.154 68.64 208.935 80.3882 208.921C80.6436 208.921 80.8786 208.921 81.1238 208.921C87.6896 207.447 94.0633 205.216 100.118 202.273C102.064 201.33 103.966 200.318 105.824 199.235C104.802 200.108 103.747 200.967 102.682 201.797C100.385 203.58 98.0016 205.25 95.531 206.808C100.414 205.405 105.078 203.324 109.387 200.626C108.892 204.449 108.643 208.299 108.643 212.154C108.643 212.305 108.643 212.454 108.643 212.602C109.813 209.65 111.403 206.882 113.363 204.387C111.285 211.026 110.003 217.891 109.545 224.835C110 228.021 110.633 231.18 111.44 234.295C111.721 235.402 112.03 236.499 112.354 237.592C117.375 236.063 122.248 234.081 126.912 231.67C140.935 224.418 152.762 213.526 161.159 200.129C164.556 194.723 167.351 188.96 169.493 182.942C167.313 175.425 164.134 168.236 160.043 161.569C162.674 157.284 164.933 152.78 166.794 148.107Z" fill="#0DA258"/>
<path d="M253.727 164.813C253.747 164.359 253.757 163.903 253.757 163.442C253.759 158.306 252.566 153.241 250.274 148.649C247.982 144.057 244.653 140.065 240.553 136.989L233.729 146.76L232.569 148.425C231.365 146.638 230.098 144.898 228.766 143.204C225.739 139.345 222.396 135.746 218.772 132.444C218.392 132.104 218.006 131.76 217.625 131.42C217.329 131.163 217.035 130.907 216.734 130.651C215.61 129.678 214.453 128.738 213.261 127.833C204.964 121.417 195.587 116.548 185.575 113.456C193.212 119.471 200.216 126.252 206.48 133.695C207.123 134.463 207.757 135.232 208.385 136.018C209.128 136.927 209.851 137.852 210.556 138.78C212 140.658 213.393 142.569 214.734 144.513C219.174 150.942 223.076 157.728 226.401 164.802C231.14 165.421 235.951 164.472 240.103 162.1C241.128 161.511 242.104 160.842 243.023 160.099C244.43 163.831 245.148 167.788 245.143 171.778C245.143 172.803 245.094 173.827 245.005 174.852C244.971 175.236 244.928 175.621 244.88 175.997C244.859 176.128 244.846 176.253 244.821 176.392C244.643 177.687 244.388 178.97 244.055 180.234C243.952 180.611 243.848 180.98 243.738 181.351C243.715 181.446 243.684 181.544 243.651 181.643C244.471 181.736 250.698 181.718 251.918 181.549C256.516 180.911 260.927 179.306 264.862 176.838C268.797 174.37 272.167 171.095 274.751 167.228C272.93 186.07 267.35 204.352 258.344 220.987C258.341 221.005 258.333 221.022 258.321 221.036C258.153 221.344 257.987 221.651 257.811 221.953C257.796 221.975 257.783 221.998 257.772 222.022C254.24 228.142 248.851 232.97 242.392 235.802C241.424 236.23 239.409 236.937 239.409 236.937L238.196 237.309C238.196 237.309 235.463 237.993 234.048 238.198L238.221 226.698L238.239 226.649L238.185 226.631C233.978 218.257 228.956 210.321 223.191 202.94C222.815 202.458 222.437 201.976 222.054 201.5C220.655 199.749 219.212 198.036 217.728 196.358L217.324 196.32C213.249 192.43 207.835 190.265 202.209 190.274C201.995 190.274 201.778 190.274 201.566 190.274L201.533 190.243C201.022 190.243 200.531 190.22 200.033 190.205C195.539 190.042 191.064 189.534 186.648 188.686C185.599 188.484 184.553 188.263 183.511 188.022C171.68 185.286 160.546 180.108 150.82 172.818C150.94 171.893 151.075 170.974 151.257 170.062C150.383 170.425 149.507 170.779 148.618 171.115C140.98 165.013 134.404 157.682 129.159 149.421C125.27 143.305 122.156 136.727 119.888 129.839C119.888 129.839 119.888 129.824 119.888 129.819C120.128 129.363 120.376 128.909 120.636 128.458C120.228 128.427 119.822 128.404 119.413 128.381C119.226 127.79 119.053 127.198 118.882 126.588C118.808 126.332 118.736 126.089 118.67 125.832C119.906 125.581 121.159 125.371 122.429 125.202C121.581 125.159 120.726 125.141 119.875 125.141C119.41 125.141 118.951 125.141 118.491 125.154C118.072 123.616 117.694 122.051 117.362 120.478C117.122 119.349 116.907 118.214 116.718 117.074L117.74 116.63C118.08 116.482 118.422 116.341 118.762 116.203C119.444 115.916 120.128 115.642 120.818 115.375C121.073 115.275 121.308 115.178 121.558 115.088C125.211 113.701 128.955 112.567 132.763 111.694C135.429 111.084 138.14 110.597 140.895 110.234C138.703 109.127 136.481 108.078 134.229 107.088C128.667 104.629 122.951 102.538 117.117 100.829C116.892 100.76 116.667 100.699 116.443 100.632C122.443 100.828 128.407 101.64 134.242 103.056L133.529 102.781C133.394 102.728 133.261 102.682 133.125 102.633C132.732 102.484 132.334 102.338 131.935 102.2C129.596 101.361 127.212 100.624 124.784 99.9865C124.363 99.8763 123.939 99.7713 123.507 99.6637C123.075 99.5561 122.692 99.4665 122.281 99.3717L121.515 99.1975C120.647 99.0053 119.77 98.8235 118.887 98.6595C118.557 98.5929 118.225 98.534 117.891 98.4776C117.556 98.4213 117.191 98.3521 116.838 98.2932L115.996 98.1625C115.842 98.1343 115.689 98.1113 115.541 98.0908C115.745 93.5022 116.307 88.9367 117.224 84.4365C117.515 83.0019 117.842 81.5775 118.202 80.1736C118.685 78.2728 119.224 76.4078 119.842 74.5608C119.967 74.1714 120.097 73.7922 120.235 73.3952C120.345 73.0698 120.46 72.7368 120.58 72.4089C126.379 71.2177 132.283 70.6169 138.203 70.6156C134.024 68.4188 130.031 65.8836 126.263 63.0353C125.852 62.7227 125.438 62.4102 125.029 62.0874C127.172 57.8946 129.645 53.8803 132.426 50.0829C147.792 41.8028 165.267 38.2949 182.627 40.0056C199.987 41.7163 216.447 48.5682 229.913 59.6896C230.186 59.915 230.454 60.1456 230.728 60.371C231.001 60.5965 231.264 60.8296 231.527 61.0601C253.654 80.0224 269.419 105.363 276.675 133.633C277.332 136.195 277.917 138.789 278.429 141.416C277.441 143.171 276.386 144.887 275.28 146.567C269.366 155.52 261.879 163.321 253.185 169.59C253.482 168.016 253.663 166.421 253.727 164.82V164.813Z" fill="#045742"/>
<path d="M144.877 58.6647C144.883 63.4008 143.359 68.0115 140.535 71.8066C140.381 72.015 140.223 72.22 140.06 72.4215C138.006 75.0045 135.398 77.0899 132.43 78.5225C129.463 79.9551 126.211 80.6981 122.917 80.6961C121.333 80.6946 119.754 80.5228 118.207 80.1837C115.379 79.5635 112.703 78.3853 110.333 76.7176C113.461 75.8214 116.636 75.1021 119.845 74.5631C119.97 74.1737 120.1 73.7946 120.238 73.3975C119.681 73.2054 119.119 73.0235 118.56 72.8493C119.232 72.6956 119.906 72.547 120.583 72.4112C126.382 71.2201 132.286 70.6193 138.205 70.618C134.026 68.4212 130.033 65.886 126.265 63.0377C125.854 62.7251 125.44 62.4126 125.032 62.0898C124.266 61.492 123.511 60.8832 122.769 60.2632C117.726 59.1899 112.598 58.5649 107.445 58.3957C104.712 58.8449 102.005 59.3692 99.3254 59.9686C93.1676 61.3526 87.1095 63.1499 81.1919 65.3484C77.4221 66.7471 73.729 68.3021 70.1125 70.0134C66.447 70.7705 62.7142 71.1516 58.9718 71.1508C57.0224 71.1498 55.0745 71.0464 53.1359 70.8409C47.306 70.2252 41.6136 68.668 36.2793 66.2296C47.8882 66.0812 59.1472 62.2223 68.4192 55.2139C68.4192 55.2677 68.4192 55.3241 68.4192 55.3779C79.2074 46.877 91.8372 41.0396 105.289 38.3369C106.678 38.0568 108.083 37.8109 109.503 37.5991C113.663 36.9789 117.861 36.6562 122.067 36.6333H122.623C123.045 36.6333 123.464 36.6333 123.885 36.6333C129.54 36.8848 134.88 39.3166 138.791 43.4213C142.702 47.5261 144.882 52.9868 144.877 58.6647Z" fill="#045742"/>
<path d="M140.134 70.6385C140.134 70.9562 140.113 71.2687 140.098 71.5864C140.098 71.8631 140.08 72.1372 140.065 72.4164C140.065 72.7827 140.031 73.1491 140.014 73.5128C139.83 77.2274 139.502 80.8993 139.03 84.5285C138.966 85.0409 138.9 85.5327 138.829 86.0323C138.013 91.8659 136.836 97.6429 135.304 103.329C135.289 103.373 135.278 103.422 135.266 103.465C134.934 104.683 134.588 105.894 134.229 107.098C128.667 104.639 122.951 102.548 117.117 100.839C116.892 100.77 116.667 100.709 116.442 100.642C122.442 100.838 128.407 101.65 134.241 103.066L133.529 102.792C133.394 102.738 133.261 102.692 133.125 102.643C132.732 102.494 132.334 102.348 131.935 102.21C129.596 101.371 127.212 100.634 124.784 99.9966C124.363 99.8864 123.939 99.7814 123.507 99.6738C123.075 99.5662 122.692 99.4766 122.281 99.3818L121.515 99.2076C120.646 99.0154 119.77 98.8335 118.887 98.6696C118.557 98.6081 118.225 98.5441 117.891 98.4877C117.556 98.4314 117.191 98.3622 116.838 98.3033L115.996 98.1726C115.842 98.1444 115.689 98.1214 115.541 98.1009C111.229 97.4586 106.875 97.1375 102.515 97.1402C102.074 97.1402 101.637 97.1402 101.195 97.1402C93.3662 95.7947 85.4389 95.1092 77.4961 95.0908C79.9585 92.7233 82.5542 90.4994 85.2706 88.4301C95.6622 81.3586 107.452 76.6191 119.837 74.535C120.668 74.395 121.5 74.2669 122.335 74.1507C121.64 73.8766 120.94 73.6153 120.23 73.3694C119.673 73.1773 119.111 72.9954 118.552 72.8212C119.224 72.6675 119.898 72.5189 120.575 72.3831C126.374 71.1919 132.278 70.5911 138.198 70.5898H138.267C138.9 70.618 139.518 70.6231 140.134 70.6385Z" fill="#045742"/>
<path d="M194.551 174.891C192.675 175.282 190.821 175.777 188.999 176.371C187.013 193.155 180.243 209.008 169.501 222.03C168.212 223.598 166.868 225.118 165.468 226.59C166.846 224.594 168.085 222.504 169.177 220.337C169.396 219.908 169.609 219.475 169.815 219.038C168.199 221.053 166.437 222.947 164.544 224.705C164.517 224.731 164.488 224.755 164.457 224.776C161.097 227.597 157.41 230.001 153.475 231.934C152.688 232.136 151.894 232.323 151.092 232.487C147.553 233.234 143.948 233.625 140.332 233.653C143.237 232.18 145.78 230.079 147.777 227.501C149.775 224.923 151.177 221.933 151.884 218.746C151.955 218.403 152.027 218.057 152.08 217.706C152.08 217.706 152.08 217.706 152.08 217.685C153.009 213.134 154.515 208.721 156.563 204.554C154.751 197.427 153.837 190.1 153.842 182.745C153.842 181.426 153.871 180.119 153.929 178.815C152.638 181.764 151.612 184.823 150.864 187.956C150.157 182.932 150.143 177.835 150.821 172.808C150.941 171.883 151.076 170.963 151.258 170.051C150.384 170.415 149.508 170.769 148.619 171.104C140.137 174.345 131.203 176.239 122.139 176.717C124.908 175.533 127.501 173.973 129.845 172.08C125.62 173.324 121.318 174.372 116.937 175.226C114.463 175.713 111.962 176.131 109.436 176.481C108.036 176.355 106.644 176.196 105.26 176.005C100.907 175.402 96.6058 174.471 92.3926 173.22C93.5436 172.628 94.6691 171.997 95.769 171.33C100.521 169.57 104.805 166.737 108.29 163.05C111.775 159.363 114.366 154.92 115.864 150.067C117.515 146.967 118.864 143.715 119.892 140.355C120.06 139.812 120.219 139.269 120.367 138.718C120.553 138.042 120.727 137.353 120.878 136.669C119.71 137.865 118.594 139.115 117.545 140.419C117.463 140.511 117.391 140.604 117.312 140.698C116.35 141.894 115.439 143.136 114.579 144.423C114.853 143.114 115.169 141.82 115.54 140.55C115.976 139.013 116.48 137.509 117.039 136.039C117.853 133.912 118.801 131.839 119.879 129.834C119.879 129.834 119.879 129.818 119.879 129.813C120.119 129.357 120.367 128.904 120.627 128.453C120.219 128.422 119.813 128.399 119.404 128.376L119.187 128.361C118.617 128.322 118.048 128.294 117.471 128.269C116.651 128.225 115.826 128.192 115.001 128.164C113.581 128.12 112.158 128.097 110.723 128.097C111.947 127.644 113.193 127.237 114.459 126.875C115.835 126.475 117.236 126.134 118.661 125.85C119.897 125.599 121.15 125.389 122.42 125.22C121.572 125.177 120.717 125.159 119.866 125.159C119.401 125.159 118.942 125.159 118.482 125.171C116.904 125.216 115.345 125.323 113.806 125.494C109.525 125.962 105.315 126.939 101.265 128.404C100.06 128.481 98.8611 128.574 97.6692 128.684C101.678 125.468 105.96 122.612 110.467 120.148C112.5 119.041 114.582 118.016 116.712 117.074L117.734 116.63C118.073 116.482 118.416 116.341 118.755 116.203C119.437 115.916 120.122 115.642 120.811 115.375C121.067 115.275 121.302 115.178 121.552 115.088C125.208 113.701 128.954 112.567 132.764 111.694C132.424 112.719 132.067 113.737 131.694 114.75C131.023 116.615 130.31 118.462 129.554 120.291C130.945 121.378 132.244 122.577 133.438 123.878C135.544 123.636 137.661 123.515 139.78 123.514C149.318 123.509 158.692 125.998 166.978 130.737C175.264 135.475 182.175 142.298 187.029 150.533C187.645 151.558 188.22 152.621 188.766 153.697C192.102 160.297 194.07 167.507 194.551 174.891Z" fill="#045742"/>
<path d="M168.113 35.6422L168.369 35.6857C173.807 36.6738 179.14 38.1783 184.295 40.1791C180.895 39.7849 177.474 39.5873 174.051 39.5873C172.406 39.5873 170.773 39.6326 169.15 39.7231C167.527 39.8136 165.931 39.9468 164.361 40.1227C158.653 40.7464 153.02 41.9348 147.546 43.6708L148.271 47.4085L147.86 47.3265L141.081 46.0046L140.943 46.0635C140.922 46.0294 140.898 45.9969 140.872 45.9662H140.857V45.9508C137.979 41.8639 133.799 38.8821 129.006 37.4969C133.598 36.2146 138.286 35.3099 143.025 34.7917C143.876 34.696 144.74 34.6106 145.615 34.5355H145.783C148.036 34.3647 150.313 34.2793 152.615 34.2793C153.238 34.2793 153.859 34.2793 154.477 34.2998L168.113 35.6422Z" fill="#0DA258"/>
<path d="M221.883 22.6024C218.396 25.571 214.328 27.7737 209.94 29.0684C210.235 29.9307 210.384 30.8364 210.382 31.748C210.382 33.9623 209.505 36.0858 207.944 37.6516C206.383 39.2173 204.266 40.0969 202.059 40.0969C199.851 40.0969 197.734 39.2173 196.173 37.6516C194.612 36.0858 193.735 33.9623 193.735 31.748C193.736 31.0713 193.822 30.3974 193.99 29.7421C194.459 27.8392 195.581 26.1629 197.16 25.008C194.562 23.0234 192.042 20.945 189.6 18.7726C186.791 16.2825 184.081 13.684 181.471 10.9771C179.257 13.281 176.97 15.5012 174.608 17.6377C172.211 19.8238 169.742 21.9244 167.201 23.9397C168.663 25.2062 169.639 26.9449 169.96 28.8558C170.041 29.3158 170.081 29.7822 170.08 30.2494C170.076 32.1975 169.394 34.083 168.15 35.5795C166.907 37.0759 165.181 38.0892 163.271 38.4437C161.361 38.7982 159.388 38.4717 157.693 37.5208C155.998 36.5698 154.688 35.0542 153.989 33.2364C153.623 32.2836 153.436 31.2707 153.438 30.2494C153.439 29.1453 153.656 28.0522 154.076 27.0318C149.996 25.4942 146.262 23.1558 143.094 20.1534L146.187 37.7554L149.586 57.0815C158.758 58.9137 168.088 59.8336 177.44 59.8278C189.578 59.8375 201.666 58.2878 213.411 55.2166L213.204 55.1576L217.738 38.196L221.883 22.6024Z" fill="#045742"/>
<path d="M177.316 77.2119C177.316 77.2119 175.618 97.9342 197.396 89.6238L177.316 77.2119Z" fill="white"/>
</g>
<defs>
<clipPath id="clip0_378_715">
<rect width="286" height="247.602" fill="white"/>
</clipPath>
</defs>
</svg>
