<svg width="446" height="151" viewBox="0 0 446 151" fill="none" xmlns="http://www.w3.org/2000/svg">
<path d="M187.008 70.8382V23.5654H197.002V43.07H217.292V23.5654H227.263V70.8382H217.292V51.3105H197.002V70.8382H187.008Z" fill="white"/>
<path d="M245.429 71.5075C243.167 71.5075 241.151 71.1151 239.382 70.3303C237.612 69.5302 236.212 68.353 235.181 66.7987C234.165 65.2291 233.657 63.2748 233.657 60.9358C233.657 58.9661 234.019 57.3119 234.742 55.9731C235.465 54.6343 236.45 53.5571 237.697 52.7416C238.943 51.926 240.359 51.3105 241.944 50.895C243.544 50.4795 245.222 50.1871 246.976 50.0178C249.038 49.8024 250.7 49.6024 251.962 49.4177C253.223 49.2177 254.139 48.9253 254.708 48.5406C255.278 48.1559 255.562 47.5865 255.562 46.8325V46.694C255.562 45.2321 255.101 44.1011 254.178 43.3009C253.27 42.5007 251.977 42.1006 250.3 42.1006C248.53 42.1006 247.122 42.493 246.076 43.2778C245.029 44.0472 244.337 45.0167 243.998 46.1862L234.904 45.4475C235.365 43.2932 236.273 41.4312 237.627 39.8616C238.982 38.2766 240.728 37.0609 242.867 36.2146C245.022 35.3528 247.514 34.922 250.346 34.922C252.316 34.922 254.201 35.1528 256.001 35.6144C257.817 36.0761 259.425 36.7916 260.825 37.7611C262.241 38.7306 263.357 39.977 264.172 41.5004C264.988 43.0085 265.396 44.8166 265.396 46.9248V70.8382H256.07V65.9216H255.793C255.224 67.0296 254.462 68.0067 253.508 68.8531C252.554 69.684 251.408 70.338 250.069 70.8151C248.73 71.2767 247.184 71.5075 245.429 71.5075ZM248.245 64.7213C249.692 64.7213 250.969 64.4366 252.077 63.8673C253.185 63.2825 254.054 62.4977 254.685 61.5129C255.316 60.528 255.632 59.4124 255.632 58.1659V54.4035C255.324 54.6035 254.901 54.7882 254.362 54.9575C253.839 55.1114 253.247 55.2575 252.585 55.396C251.923 55.5191 251.261 55.6346 250.6 55.7423C249.938 55.8346 249.338 55.9192 248.799 55.9962C247.645 56.1655 246.637 56.4347 245.776 56.8041C244.914 57.1734 244.244 57.6735 243.767 58.3044C243.29 58.9199 243.052 59.6894 243.052 60.6127C243.052 61.9514 243.537 62.9748 244.506 63.6826C245.491 64.3751 246.737 64.7213 248.245 64.7213Z" fill="white"/>
<path d="M283.134 71.5075C280.872 71.5075 278.856 71.1151 277.087 70.3303C275.317 69.5302 273.917 68.353 272.886 66.7987C271.87 65.2291 271.362 63.2748 271.362 60.9358C271.362 58.9661 271.724 57.3119 272.447 55.9731C273.171 54.6343 274.155 53.5571 275.402 52.7416C276.648 51.926 278.064 51.3105 279.649 50.895C281.249 50.4795 282.927 50.1871 284.681 50.0178C286.743 49.8024 288.405 49.6024 289.667 49.4177C290.929 49.2177 291.844 48.9253 292.414 48.5406C292.983 48.1559 293.268 47.5865 293.268 46.8325V46.694C293.268 45.2321 292.806 44.1011 291.883 43.3009C290.975 42.5007 289.682 42.1006 288.005 42.1006C286.235 42.1006 284.827 42.493 283.781 43.2778C282.734 44.0472 282.042 45.0167 281.703 46.1862L272.609 45.4475C273.07 43.2932 273.978 41.4312 275.333 39.8616C276.687 38.2766 278.433 37.0609 280.572 36.2146C282.727 35.3528 285.22 34.922 288.051 34.922C290.021 34.922 291.906 35.1528 293.706 35.6144C295.522 36.0761 297.13 36.7916 298.53 37.7611C299.946 38.7306 301.062 39.977 301.877 41.5004C302.693 43.0085 303.101 44.8166 303.101 46.9248V70.8382H293.775V65.9216H293.498C292.929 67.0296 292.167 68.0067 291.213 68.8531C290.259 69.684 289.113 70.338 287.774 70.8151C286.435 71.2767 284.889 71.5075 283.134 71.5075ZM285.95 64.7213C287.397 64.7213 288.674 64.4366 289.782 63.8673C290.89 63.2825 291.76 62.4977 292.39 61.5129C293.021 60.528 293.337 59.4124 293.337 58.1659V54.4035C293.029 54.6035 292.606 54.7882 292.067 54.9575C291.544 55.1114 290.952 55.2575 290.29 55.396C289.628 55.5191 288.967 55.6346 288.305 55.7423C287.643 55.8346 287.043 55.9192 286.504 55.9962C285.35 56.1655 284.342 56.4347 283.481 56.8041C282.619 57.1734 281.95 57.6735 281.472 58.3044C280.995 58.9199 280.757 59.6894 280.757 60.6127C280.757 61.9514 281.242 62.9748 282.211 63.6826C283.196 64.3751 284.442 64.7213 285.95 64.7213Z" fill="white"/>
<path d="M310.729 70.8382V35.3836H320.262V41.5697H320.632C321.278 39.3692 322.363 37.7072 323.886 36.5839C325.41 35.4452 327.164 34.8758 329.149 34.8758C329.642 34.8758 330.172 34.9066 330.742 34.9681C331.311 35.0297 331.811 35.1143 332.242 35.222V43.9472C331.781 43.8087 331.142 43.6856 330.326 43.5779C329.511 43.4701 328.764 43.4163 328.087 43.4163C326.641 43.4163 325.348 43.7317 324.21 44.3627C323.086 44.9782 322.194 45.8399 321.532 46.9479C320.886 48.0558 320.562 49.3331 320.562 50.7796V70.8382H310.729Z" fill="white"/>
<path d="M347.159 23.5654V70.8382H337.326V23.5654H347.159Z" fill="white"/>
<path d="M371.194 71.5306C367.547 71.5306 364.408 70.792 361.776 69.3147C359.16 67.8221 357.144 65.7139 355.729 62.9901C354.313 60.251 353.605 57.0118 353.605 53.2725C353.605 49.6254 354.313 46.4247 355.729 43.6702C357.144 40.9157 359.137 38.769 361.707 37.2302C364.292 35.6914 367.324 34.922 370.801 34.922C373.14 34.922 375.318 35.299 377.334 36.053C379.365 36.7916 381.135 37.9073 382.643 39.3999C384.166 40.8926 385.351 42.77 386.197 45.032C387.044 47.2787 387.467 49.9101 387.467 52.9262V55.6269H357.529V49.5331H378.211C378.211 48.1174 377.903 46.8633 377.287 45.7707C376.672 44.6781 375.818 43.8241 374.725 43.2085C373.648 42.5776 372.394 42.2622 370.963 42.2622C369.47 42.2622 368.147 42.6084 366.993 43.3009C365.854 43.978 364.961 44.8936 364.315 46.0477C363.669 47.1864 363.338 48.4559 363.323 49.8563V55.6499C363.323 57.4042 363.646 58.92 364.292 60.1972C364.954 61.4744 365.885 62.4593 367.085 63.1517C368.285 63.8442 369.709 64.1904 371.355 64.1904C372.448 64.1904 373.448 64.0365 374.356 63.7288C375.264 63.421 376.041 62.9594 376.687 62.3438C377.334 61.7283 377.826 60.9743 378.165 60.0818L387.259 60.6819C386.797 62.867 385.851 64.7752 384.42 66.4063C383.004 68.0221 381.173 69.2839 378.926 70.1919C376.695 71.0844 374.117 71.5306 371.194 71.5306Z" fill="white"/>
<path d="M393.884 70.8382V35.3836H403.255V41.6389H403.671C404.409 39.5615 405.64 37.9227 407.364 36.7224C409.087 35.5221 411.149 34.922 413.55 34.922C415.981 34.922 418.051 35.5298 419.759 36.7455C421.467 37.9458 422.606 39.5769 423.175 41.6389H423.545C424.268 39.6077 425.576 37.9842 427.469 36.7686C429.377 35.5375 431.631 34.922 434.232 34.922C437.54 34.922 440.225 35.9761 442.287 38.0843C444.365 40.1771 445.404 43.147 445.404 46.9941V70.8382H435.594V48.933C435.594 46.9633 435.07 45.486 434.024 44.5012C432.978 43.5163 431.67 43.0239 430.1 43.0239C428.315 43.0239 426.922 43.5932 425.922 44.732C424.922 45.8553 424.422 47.3403 424.422 49.1869V70.8382H414.889V48.7252C414.889 46.9864 414.389 45.6014 413.388 44.5704C412.403 43.5394 411.103 43.0239 409.487 43.0239C408.395 43.0239 407.41 43.3009 406.533 43.8548C405.671 44.3934 404.986 45.1552 404.479 46.14C403.971 47.1095 403.717 48.2482 403.717 49.5562V70.8382H393.884Z" fill="white"/>
<path d="M187.008 134.978V87.705H218.308V95.9454H197.002V107.21H216.23V115.45H197.002V134.978H187.008Z" fill="white"/>
<path d="M238.401 135.67C234.754 135.67 231.615 134.932 228.983 133.454C226.367 131.962 224.351 129.853 222.936 127.13C221.52 124.391 220.812 121.151 220.812 117.412C220.812 113.765 221.52 110.564 222.936 107.81C224.351 105.055 226.344 102.909 228.914 101.37C231.499 99.831 234.531 99.0616 238.008 99.0616C240.347 99.0616 242.525 99.4386 244.541 100.193C246.572 100.931 248.342 102.047 249.85 103.54C251.373 105.032 252.558 106.91 253.404 109.172C254.251 111.418 254.674 114.05 254.674 117.066V119.766H224.736V113.673H245.418C245.418 112.257 245.11 111.003 244.494 109.91C243.879 108.818 243.025 107.964 241.932 107.348C240.855 106.717 239.601 106.402 238.17 106.402C236.677 106.402 235.354 106.748 234.2 107.44C233.061 108.118 232.169 109.033 231.522 110.187C230.876 111.326 230.545 112.596 230.53 113.996V119.79C230.53 121.544 230.853 123.06 231.499 124.337C232.161 125.614 233.092 126.599 234.292 127.291C235.492 127.984 236.916 128.33 238.562 128.33C239.655 128.33 240.655 128.176 241.563 127.868C242.471 127.561 243.248 127.099 243.894 126.483C244.541 125.868 245.033 125.114 245.372 124.221L254.466 124.822C254.004 127.007 253.058 128.915 251.627 130.546C250.211 132.162 248.38 133.424 246.133 134.331C243.902 135.224 241.325 135.67 238.401 135.67Z" fill="white"/>
<path d="M290.59 109.633L281.588 110.187C281.434 109.418 281.103 108.725 280.595 108.11C280.088 107.479 279.418 106.979 278.587 106.61C277.772 106.225 276.794 106.032 275.656 106.032C274.132 106.032 272.847 106.356 271.801 107.002C270.755 107.633 270.231 108.479 270.231 109.541C270.231 110.387 270.57 111.103 271.247 111.688C271.924 112.272 273.086 112.742 274.732 113.096L281.149 114.388C284.596 115.096 287.166 116.235 288.859 117.804C290.552 119.374 291.398 121.436 291.398 123.991C291.398 126.314 290.713 128.353 289.344 130.107C287.989 131.862 286.127 133.231 283.758 134.216C281.403 135.186 278.687 135.67 275.61 135.67C270.916 135.67 267.177 134.693 264.392 132.739C261.622 130.769 259.998 128.092 259.521 124.706L269.193 124.198C269.485 125.629 270.193 126.722 271.316 127.476C272.44 128.215 273.878 128.584 275.633 128.584C277.356 128.584 278.741 128.253 279.787 127.591C280.849 126.914 281.388 126.045 281.403 124.983C281.388 124.091 281.011 123.36 280.272 122.79C279.534 122.206 278.395 121.759 276.856 121.451L270.716 120.228C267.254 119.536 264.676 118.335 262.983 116.627C261.306 114.919 260.468 112.742 260.468 110.095C260.468 107.817 261.083 105.855 262.314 104.209C263.561 102.562 265.307 101.293 267.554 100.4C269.816 99.5078 272.463 99.0616 275.494 99.0616C279.972 99.0616 283.496 100.008 286.066 101.901C288.651 103.793 290.159 106.371 290.59 109.633Z" fill="white"/>
<path d="M316.448 99.5232V106.91H295.097V99.5232H316.448ZM299.944 91.0289H309.777V124.083C309.777 124.991 309.916 125.699 310.193 126.206C310.47 126.699 310.854 127.045 311.347 127.245C311.855 127.445 312.439 127.545 313.101 127.545C313.563 127.545 314.024 127.507 314.486 127.43C314.948 127.337 315.302 127.268 315.548 127.222L317.094 134.539C316.602 134.693 315.909 134.87 315.017 135.07C314.124 135.286 313.04 135.416 311.762 135.462C309.393 135.555 307.315 135.239 305.53 134.516C303.76 133.793 302.383 132.67 301.398 131.146C300.413 129.623 299.929 127.699 299.944 125.375V91.0289Z" fill="white"/>
<path d="M322.853 134.978V99.5232H332.687V134.978H322.853ZM327.793 94.9529C326.331 94.9529 325.077 94.4682 324.031 93.4987C323 92.5139 322.484 91.3367 322.484 89.9671C322.484 88.6129 323 87.4511 324.031 86.4817C325.077 85.4968 326.331 85.0044 327.793 85.0044C329.255 85.0044 330.501 85.4968 331.532 86.4817C332.579 87.4511 333.102 88.6129 333.102 89.9671C333.102 91.3367 332.579 92.5139 331.532 93.4987C330.501 94.4682 329.255 94.9529 327.793 94.9529Z" fill="white"/>
<path d="M373.617 99.5232L361.222 134.978H350.143L337.747 99.5232H348.134L355.498 124.891H355.867L363.207 99.5232H373.617Z" fill="white"/>
<path d="M387.807 135.647C385.545 135.647 383.529 135.255 381.76 134.47C379.99 133.67 378.59 132.493 377.559 130.938C376.543 129.369 376.035 127.414 376.035 125.075C376.035 123.106 376.397 121.451 377.12 120.113C377.843 118.774 378.828 117.697 380.075 116.881C381.321 116.066 382.737 115.45 384.322 115.035C385.922 114.619 387.6 114.327 389.354 114.157C391.416 113.942 393.078 113.742 394.34 113.557C395.601 113.357 396.517 113.065 397.086 112.68C397.656 112.295 397.94 111.726 397.94 110.972V110.834C397.94 109.372 397.479 108.241 396.555 107.44C395.648 106.64 394.355 106.24 392.678 106.24C390.908 106.24 389.5 106.633 388.454 107.417C387.407 108.187 386.715 109.156 386.376 110.326L377.282 109.587C377.743 107.433 378.651 105.571 380.005 104.001C381.36 102.416 383.106 101.201 385.245 100.354C387.399 99.4924 389.892 99.0616 392.724 99.0616C394.694 99.0616 396.579 99.2924 398.379 99.754C400.195 100.216 401.803 100.931 403.203 101.901C404.619 102.87 405.735 104.117 406.55 105.64C407.366 107.148 407.774 108.956 407.774 111.064V134.978H398.448V130.061H398.171C397.602 131.169 396.84 132.146 395.886 132.993C394.932 133.824 393.786 134.478 392.447 134.955C391.108 135.416 389.562 135.647 387.807 135.647ZM390.623 128.861C392.07 128.861 393.347 128.576 394.455 128.007C395.563 127.422 396.432 126.637 397.063 125.652C397.694 124.668 398.01 123.552 398.01 122.306V118.543C397.702 118.743 397.279 118.928 396.74 119.097C396.217 119.251 395.625 119.397 394.963 119.536C394.301 119.659 393.639 119.774 392.978 119.882C392.316 119.974 391.716 120.059 391.177 120.136C390.023 120.305 389.015 120.574 388.154 120.944C387.292 121.313 386.622 121.813 386.145 122.444C385.668 123.06 385.43 123.829 385.43 124.752C385.43 126.091 385.915 127.114 386.884 127.822C387.869 128.515 389.115 128.861 390.623 128.861Z" fill="white"/>
<path d="M425.235 87.705V134.978H415.402V87.705H425.235Z" fill="white"/>
<path d="M32.9962 2.35623C33.2399 1.66699 33.6906 1.0704 34.2863 0.648469C34.882 0.22654 35.5934 0 36.3228 0C37.0521 0 37.7635 0.22654 38.3592 0.648469C38.9549 1.0704 39.4056 1.66699 39.6494 2.35623L46.232 20.9925C46.4703 21.6675 46.9073 22.2542 47.4852 22.6751C48.063 23.0959 48.7547 23.331 49.4686 23.3494L69.2024 23.8555C69.9325 23.8742 70.6388 24.1194 71.2239 24.5575C71.8091 24.9955 72.2444 25.6048 72.4698 26.3013C72.6951 26.9977 72.6994 27.7472 72.4822 28.4462C72.2649 29.1453 71.8367 29.7596 71.2566 30.2044L55.5995 42.2051C55.0321 42.6412 54.6102 43.2398 54.3896 43.9217C54.169 44.6036 54.1601 45.3366 54.3641 46.0236L59.9797 64.9501C60.1878 65.6513 60.1741 66.4 59.9405 67.0931C59.7068 67.7861 59.2646 68.3896 58.6748 68.8203C58.085 69.2511 57.3765 69.4879 56.6469 69.4983C55.9173 69.5087 55.2024 69.2921 54.6006 68.8783L38.3223 57.6704C37.7343 57.2656 37.0378 57.049 36.3245 57.049C35.6113 57.049 34.9148 57.2656 34.3268 57.6704L18.0449 68.8748C17.4431 69.2886 16.7283 69.5052 15.9986 69.4948C15.269 69.4844 14.5606 69.2475 13.9707 68.8168C13.3809 68.386 12.9388 67.7826 12.7051 67.0895C12.4714 66.3964 12.4577 65.6477 12.6659 64.9465L18.2814 46.0236C18.4858 45.3357 18.4768 44.6018 18.2556 43.9192C18.0343 43.2365 17.6112 42.6375 17.0425 42.2015L1.38538 30.2009C0.8053 29.7561 0.377111 29.1418 0.159837 28.4427C-0.0574376 27.7436 -0.0531 26.9942 0.172251 26.2977C0.397603 25.6012 0.832872 24.992 1.41806 24.5539C2.00325 24.1159 2.70954 23.8706 3.43958 23.852L23.1734 23.3459C23.8874 23.3275 24.579 23.0923 25.1568 22.6715C25.7347 22.2507 26.1717 21.664 26.41 20.9889L32.9962 2.35623Z" fill="#FFAA01"/>
<path d="M32.9962 83.1189C33.2399 82.4297 33.6906 81.8331 34.2863 81.4112C34.882 80.9892 35.5934 80.7627 36.3228 80.7627C37.0521 80.7627 37.7635 80.9892 38.3592 81.4112C38.9549 81.8331 39.4056 82.4297 39.6494 83.1189L46.232 101.755C46.4703 102.43 46.9073 103.017 47.4852 103.438C48.063 103.859 48.7547 104.094 49.4686 104.112L69.2024 104.618C69.9325 104.637 70.6388 104.882 71.2239 105.32C71.8091 105.758 72.2444 106.367 72.4698 107.064C72.6951 107.76 72.6994 108.51 72.4822 109.209C72.2649 109.908 71.8367 110.522 71.2566 110.967L55.5995 122.968C55.0321 123.404 54.6102 124.003 54.3896 124.684C54.169 125.366 54.1601 126.099 54.3641 126.786L59.9797 145.713C60.1878 146.414 60.1741 147.163 59.9405 147.856C59.7068 148.549 59.2646 149.152 58.6748 149.583C58.085 150.014 57.3765 150.251 56.6469 150.261C55.9173 150.271 55.2024 150.055 54.6006 149.641L38.3223 138.433C37.7343 138.028 37.0378 137.812 36.3245 137.812C35.6113 137.812 34.9148 138.028 34.3268 138.433L18.0449 149.637C17.4431 150.051 16.7283 150.268 15.9986 150.257C15.269 150.247 14.5606 150.01 13.9707 149.579C13.3809 149.149 12.9388 148.545 12.7051 147.852C12.4714 147.159 12.4577 146.41 12.6659 145.709L18.2814 126.786C18.4858 126.098 18.4768 125.364 18.2556 124.682C18.0343 123.999 17.6112 123.4 17.0425 122.964L1.38538 110.964C0.8053 110.519 0.377111 109.904 0.159837 109.205C-0.0574376 108.506 -0.0531 107.757 0.172251 107.06C0.397603 106.364 0.832872 105.755 1.41806 105.317C2.00325 104.879 2.70954 104.633 3.43958 104.615L23.1734 104.109C23.8874 104.09 24.579 103.855 25.1568 103.434C25.7347 103.013 26.1717 102.427 26.41 101.752L32.9962 83.1189Z" fill="#A336FF"/>
<path d="M115.006 2.35623C115.25 1.66699 115.7 1.0704 116.296 0.648469C116.892 0.22654 117.603 0 118.333 0C119.062 0 119.773 0.22654 120.369 0.648469C120.965 1.0704 121.415 1.66699 121.659 2.35623L128.242 20.9925C128.48 21.6675 128.917 22.2542 129.495 22.6751C130.073 23.0959 130.764 23.331 131.478 23.3494L151.212 23.8555C151.942 23.8742 152.649 24.1194 153.234 24.5575C153.819 24.9955 154.254 25.6048 154.48 26.3013C154.705 26.9977 154.709 27.7472 154.492 28.4462C154.275 29.1453 153.846 29.7596 153.266 30.2044L137.609 42.2051C137.042 42.6412 136.62 43.2398 136.399 43.9217C136.179 44.6036 136.17 45.3366 136.374 46.0236L141.989 64.9501C142.198 65.6513 142.184 66.4 141.95 67.0931C141.717 67.7861 141.274 68.3896 140.685 68.8203C140.095 69.2511 139.386 69.4879 138.657 69.4983C137.927 69.5087 137.212 69.2921 136.61 68.8783L120.332 57.6704C119.744 57.2656 119.048 57.049 118.334 57.049C117.621 57.049 116.925 57.2656 116.337 57.6704L100.055 68.8748C99.4529 69.2886 98.738 69.5052 98.0084 69.4948C97.2788 69.4844 96.5703 69.2475 95.9805 68.8168C95.3907 68.386 94.9485 67.7826 94.7148 67.0895C94.4812 66.3964 94.4675 65.6477 94.6756 64.9465L100.291 46.0236C100.496 45.3357 100.487 44.6018 100.265 43.9192C100.044 43.2365 99.621 42.6375 99.0523 42.2015L83.3951 30.2009C82.8151 29.7561 82.3869 29.1418 82.1696 28.4427C81.9523 27.7436 81.9567 26.9942 82.182 26.2977C82.4074 25.6012 82.8426 24.992 83.4278 24.5539C84.013 24.1159 84.7193 23.8706 85.4494 23.852L105.183 23.3459C105.897 23.3275 106.589 23.0923 107.167 22.6715C107.744 22.2507 108.181 21.664 108.42 20.9889L115.006 2.35623Z" fill="#01DAC5"/>
<path d="M115.006 83.1189C115.25 82.4297 115.7 81.8331 116.296 81.4112C116.892 80.9892 117.603 80.7627 118.333 80.7627C119.062 80.7627 119.773 80.9892 120.369 81.4112C120.965 81.8331 121.415 82.4297 121.659 83.1189L128.242 101.755C128.48 102.43 128.917 103.017 129.495 103.438C130.073 103.859 130.764 104.094 131.478 104.112L151.212 104.618C151.942 104.637 152.649 104.882 153.234 105.32C153.819 105.758 154.254 106.367 154.48 107.064C154.705 107.76 154.709 108.51 154.492 109.209C154.275 109.908 153.846 110.522 153.266 110.967L137.609 122.968C137.042 123.404 136.62 124.003 136.399 124.684C136.179 125.366 136.17 126.099 136.374 126.786L141.989 145.713C142.198 146.414 142.184 147.163 141.95 147.856C141.717 148.549 141.274 149.152 140.685 149.583C140.095 150.014 139.386 150.251 138.657 150.261C137.927 150.271 137.212 150.055 136.61 149.641L120.332 138.433C119.744 138.028 119.048 137.812 118.334 137.812C117.621 137.812 116.925 138.028 116.337 138.433L100.055 149.637C99.4529 150.051 98.738 150.268 98.0084 150.257C97.2788 150.247 96.5703 150.01 95.9805 149.579C95.3907 149.149 94.9485 148.545 94.7148 147.852C94.4812 147.159 94.4675 146.41 94.6756 145.709L100.291 126.786C100.496 126.098 100.487 125.364 100.265 124.682C100.044 123.999 99.621 123.4 99.0523 122.964L83.3951 110.964C82.8151 110.519 82.3869 109.904 82.1696 109.205C81.9523 108.506 81.9567 107.757 82.182 107.06C82.4074 106.364 82.8426 105.755 83.4278 105.317C84.013 104.879 84.7193 104.633 85.4494 104.615L105.183 104.109C105.897 104.09 106.589 103.855 107.167 103.434C107.744 103.013 108.181 102.427 108.42 101.752L115.006 83.1189Z" fill="#F1185C"/>
</svg>
