<svg viewBox="0 0 195 66" fill="none" xmlns="http://www.w3.org/2000/svg">
  <g>
    <path
      d="M81.7383 30.9624V10.3001H86.1065V18.8253H94.975V10.3001H99.3332V30.9624H94.975V22.4271H86.1065V30.9624H81.7383Z"
      fill="white" />
    <path
      d="M107.273 31.2549C106.285 31.2549 105.403 31.0834 104.63 30.7404C103.857 30.3907 103.245 29.8761 102.794 29.1968C102.35 28.5107 102.128 27.6565 102.128 26.6342C102.128 25.7733 102.286 25.0502 102.602 24.4651C102.918 23.8799 103.349 23.4091 103.894 23.0526C104.438 22.6961 105.057 22.4271 105.75 22.2455C106.449 22.0639 107.183 21.9361 107.949 21.8621C108.851 21.7679 109.577 21.6805 110.129 21.5998C110.68 21.5124 111.08 21.3846 111.329 21.2164C111.578 21.0483 111.702 20.7994 111.702 20.4698V20.4093C111.702 19.7703 111.501 19.276 111.097 18.9262C110.7 18.5765 110.135 18.4016 109.402 18.4016C108.629 18.4016 108.013 18.5731 107.556 18.9161C107.098 19.2524 106.796 19.6762 106.648 20.1873L102.673 19.8645C102.874 18.9228 103.271 18.109 103.863 17.4229C104.455 16.7302 105.219 16.1988 106.153 15.8289C107.095 15.4522 108.185 15.2639 109.422 15.2639C110.284 15.2639 111.107 15.3648 111.894 15.5666C112.688 15.7684 113.391 16.0811 114.003 16.5048C114.622 16.9286 115.109 17.4734 115.466 18.1392C115.822 18.7984 116.001 19.5887 116.001 20.5102V30.9624H111.924V28.8134H111.803C111.555 29.2977 111.222 29.7248 110.805 30.0947C110.388 30.4579 109.887 30.7438 109.301 30.9523C108.716 31.154 108.04 31.2549 107.273 31.2549ZM108.504 28.2888C109.137 28.2888 109.695 28.1643 110.179 27.9155C110.663 27.6599 111.043 27.3169 111.319 26.8864C111.595 26.4559 111.733 25.9683 111.733 25.4235V23.779C111.598 23.8664 111.413 23.9472 111.178 24.0212C110.949 24.0884 110.69 24.1523 110.401 24.2128C110.112 24.2666 109.822 24.3171 109.533 24.3642C109.244 24.4045 108.982 24.4415 108.746 24.4752C108.242 24.5492 107.801 24.6668 107.425 24.8283C107.048 24.9897 106.755 25.2083 106.547 25.484C106.338 25.7531 106.234 26.0894 106.234 26.493C106.234 27.0781 106.446 27.5254 106.87 27.8348C107.3 28.1375 107.845 28.2888 108.504 28.2888Z"
      fill="white" />
    <path
      d="M123.754 31.2549C122.765 31.2549 121.884 31.0834 121.111 30.7404C120.337 30.3907 119.725 29.8761 119.275 29.1968C118.83 28.5107 118.608 27.6565 118.608 26.6342C118.608 25.7733 118.767 25.0502 119.083 24.4651C119.399 23.8799 119.829 23.4091 120.374 23.0526C120.919 22.6961 121.538 22.4271 122.231 22.2455C122.93 22.0639 123.663 21.9361 124.43 21.8621C125.331 21.7679 126.058 21.6805 126.609 21.5998C127.161 21.5124 127.561 21.3846 127.81 21.2164C128.059 21.0483 128.183 20.7994 128.183 20.4698V20.4093C128.183 19.7703 127.981 19.276 127.578 18.9262C127.181 18.5765 126.616 18.4016 125.883 18.4016C125.109 18.4016 124.494 18.5731 124.037 18.9161C123.579 19.2524 123.276 19.6762 123.128 20.1873L119.153 19.8645C119.355 18.9228 119.752 18.109 120.344 17.4229C120.936 16.7302 121.699 16.1988 122.634 15.8289C123.576 15.4522 124.666 15.2639 125.903 15.2639C126.764 15.2639 127.588 15.3648 128.375 15.5666C129.168 15.7684 129.871 16.0811 130.483 16.5048C131.102 16.9286 131.59 17.4734 131.946 18.1392C132.303 18.7984 132.481 19.5887 132.481 20.5102V30.9624H128.405V28.8134H128.284C128.035 29.2977 127.702 29.7248 127.285 30.0947C126.868 30.4579 126.367 30.7438 125.782 30.9523C125.197 31.154 124.521 31.2549 123.754 31.2549ZM124.985 28.2888C125.617 28.2888 126.175 28.1643 126.66 27.9155C127.144 27.6599 127.524 27.3169 127.799 26.8864C128.075 26.4559 128.213 25.9683 128.213 25.4235V23.779C128.079 23.8664 127.894 23.9472 127.658 24.0212C127.43 24.0884 127.171 24.1523 126.882 24.2128C126.592 24.2666 126.303 24.3171 126.014 24.3642C125.725 24.4045 125.462 24.4415 125.227 24.4752C124.722 24.5492 124.282 24.6668 123.905 24.8283C123.529 24.9897 123.236 25.2083 123.027 25.484C122.819 25.7531 122.715 26.0894 122.715 26.493C122.715 27.0781 122.927 27.5254 123.35 27.8348C123.781 28.1375 124.325 28.2888 124.985 28.2888Z"
      fill="white" />
    <path
      d="M135.815 30.9624V15.4657H139.982V18.1695H140.144C140.426 17.2077 140.9 16.4813 141.566 15.9903C142.232 15.4926 142.999 15.2437 143.867 15.2437C144.082 15.2437 144.314 15.2572 144.563 15.2841C144.812 15.311 145.03 15.348 145.218 15.395V19.2087C145.017 19.1482 144.738 19.0944 144.381 19.0473C144.025 19.0002 143.698 18.9766 143.402 18.9766C142.77 18.9766 142.205 19.1145 141.708 19.3903C141.216 19.6593 140.827 20.036 140.537 20.5203C140.255 21.0045 140.113 21.5628 140.113 22.195V30.9624H135.815Z"
      fill="white" />
    <path d="M151.738 10.3001V30.9624H147.44V10.3001H151.738Z" fill="white" />
    <path
      d="M162.244 31.265C160.65 31.265 159.278 30.9422 158.127 30.2965C156.984 29.6441 156.103 28.7226 155.484 27.5321C154.865 26.3349 154.556 24.9191 154.556 23.2847C154.556 21.6906 154.865 20.2916 155.484 19.0876C156.103 17.8837 156.974 16.9454 158.097 16.2728C159.227 15.6002 160.552 15.2639 162.072 15.2639C163.094 15.2639 164.046 15.4287 164.927 15.7583C165.815 16.0811 166.589 16.5687 167.248 17.2211C167.913 17.8736 168.431 18.6942 168.801 19.6829C169.171 20.6649 169.356 21.815 169.356 23.1333V24.3137H156.271V21.6502H165.311C165.311 21.0314 165.176 20.4833 164.907 20.0057C164.638 19.5282 164.265 19.1549 163.787 18.8858C163.316 18.6101 162.768 18.4722 162.143 18.4722C161.49 18.4722 160.912 18.6235 160.407 18.9262C159.91 19.2222 159.519 19.6224 159.237 20.1268C158.954 20.6245 158.81 21.1794 158.803 21.7915V24.3238C158.803 25.0906 158.944 25.7531 159.227 26.3114C159.516 26.8696 159.923 27.3001 160.448 27.6027C160.972 27.9054 161.594 28.0567 162.314 28.0567C162.792 28.0567 163.229 27.9895 163.626 27.855C164.023 27.7204 164.362 27.5187 164.644 27.2496C164.927 26.9806 165.142 26.651 165.29 26.2609L169.265 26.5232C169.063 27.4783 168.65 28.3123 168.024 29.0253C167.406 29.7315 166.605 30.283 165.623 30.6799C164.648 31.07 163.521 31.265 162.244 31.265Z"
      fill="white" />
    <path
      d="M172.161 30.9624V15.4657H176.257V18.1998H176.439C176.761 17.2918 177.3 16.5755 178.053 16.0508C178.806 15.5262 179.707 15.2639 180.757 15.2639C181.819 15.2639 182.724 15.5296 183.471 16.0609C184.217 16.5856 184.715 17.2985 184.964 18.1998H185.126C185.442 17.312 186.013 16.6024 186.841 16.071C187.675 15.5329 188.66 15.2639 189.797 15.2639C191.243 15.2639 192.416 15.7246 193.317 16.6461C194.226 17.5608 194.68 18.8589 194.68 20.5405V30.9624H190.392V21.3879C190.392 20.527 190.163 19.8813 189.706 19.4509C189.249 19.0204 188.677 18.8051 187.991 18.8051C187.21 18.8051 186.602 19.054 186.164 19.5517C185.727 20.0427 185.509 20.6918 185.509 21.4989V30.9624H181.342V21.2971C181.342 20.5371 181.124 19.9317 180.686 19.4811C180.256 19.0305 179.687 18.8051 178.981 18.8051C178.504 18.8051 178.073 18.9262 177.69 19.1683C177.313 19.4037 177.014 19.7367 176.792 20.1671C176.57 20.5909 176.459 21.0886 176.459 21.6603V30.9624H172.161Z"
      fill="white" />
    <path d="M81.7383 58.997V38.3347H95.4191V41.9364H86.1065V46.86H94.5108V50.4616H86.1065V58.997H81.7383Z"
      fill="white" />
    <path
      d="M104.202 59.2995C102.608 59.2995 101.236 58.9769 100.085 58.3309C98.9417 57.6787 98.0605 56.7569 97.442 55.5667C96.8231 54.3696 96.5137 52.9534 96.5137 51.3191C96.5137 49.7251 96.8231 48.326 97.442 47.1222C98.0605 45.9181 98.9316 44.9801 100.055 44.3074C101.185 43.6347 102.51 43.2984 104.03 43.2984C105.052 43.2984 106.004 43.4632 106.885 43.793C107.773 44.1155 108.547 44.6033 109.206 45.2559C109.871 45.908 110.389 46.7289 110.759 47.7175C111.129 48.6992 111.314 49.8497 111.314 51.1679V52.348H98.2288V49.6849H107.269C107.269 49.066 107.134 48.5179 106.865 48.0401C106.596 47.5628 106.223 47.1895 105.745 46.9203C105.274 46.6445 104.726 46.5068 104.101 46.5068C103.448 46.5068 102.87 46.6581 102.365 46.9605C101.868 47.2569 101.478 47.6568 101.195 48.1612C100.913 48.659 100.768 49.2141 100.761 49.8261V52.3585C100.761 53.1252 100.902 53.7878 101.185 54.346C101.474 54.9041 101.881 55.3346 102.406 55.6371C102.93 55.94 103.553 56.0912 104.272 56.0912C104.75 56.0912 105.187 56.0239 105.584 55.8893C105.981 55.7551 106.32 55.5532 106.602 55.2839C106.885 55.0151 107.1 54.6856 107.249 54.2953L111.223 54.5579C111.021 55.513 110.608 56.3469 109.982 57.0598C109.364 57.7662 108.563 58.3178 107.581 58.7142C106.606 59.1045 105.48 59.2995 104.202 59.2995Z"
      fill="white" />
    <path
      d="M127.012 47.919L123.078 48.1612C123.01 47.8251 122.866 47.5222 122.644 47.2534C122.422 46.9776 122.129 46.759 121.766 46.5977C121.41 46.4295 120.982 46.3451 120.485 46.3451C119.819 46.3451 119.257 46.4867 118.8 46.7691C118.343 47.0449 118.114 47.4146 118.114 47.8788C118.114 48.2486 118.262 48.5616 118.558 48.8173C118.854 49.0725 119.362 49.2779 120.081 49.4327L122.886 49.9974C124.393 50.3068 125.516 50.8047 126.256 51.4905C126.996 52.1767 127.366 53.078 127.366 54.1947C127.366 55.2101 127.066 56.1013 126.468 56.8679C125.876 57.635 125.062 58.2334 124.026 58.6639C122.997 59.0879 121.81 59.2995 120.465 59.2995C118.413 59.2995 116.779 58.8724 115.562 58.0184C114.351 57.1573 113.641 55.9872 113.433 54.5072L117.66 54.2852C117.788 54.9107 118.097 55.3884 118.588 55.718C119.079 56.041 119.708 56.2023 120.475 56.2023C121.228 56.2023 121.833 56.0576 122.291 55.7682C122.755 55.4723 122.99 55.0925 122.997 54.6283C122.99 54.2384 122.826 53.9189 122.503 53.6698C122.18 53.4145 121.682 53.2192 121.01 53.0845L118.326 52.55C116.813 52.2475 115.686 51.7226 114.946 50.976C114.213 50.2295 113.847 49.2779 113.847 48.121C113.847 47.1253 114.115 46.2677 114.653 45.5483C115.198 44.8284 115.962 44.2737 116.944 43.8834C117.932 43.4935 119.089 43.2984 120.414 43.2984C122.371 43.2984 123.912 43.7121 125.035 44.5395C126.165 45.3665 126.824 46.4933 127.012 47.919Z"
      fill="white" />
    <path
      d="M138.315 43.5002V46.7289H128.982V43.5002H138.315ZM131.101 39.7875H135.399V54.235C135.399 54.6318 135.46 54.9413 135.581 55.1629C135.702 55.3784 135.87 55.5296 136.085 55.617C136.307 55.7044 136.562 55.7481 136.852 55.7481C137.054 55.7481 137.255 55.7315 137.457 55.6979C137.659 55.6572 137.814 55.6271 137.921 55.607L138.597 58.8051C138.382 58.8724 138.079 58.9498 137.689 59.0372C137.299 59.1316 136.825 59.1885 136.266 59.2086C135.231 59.2492 134.323 59.1111 133.543 58.7951C132.769 58.4791 132.167 57.9882 131.737 57.3221C131.306 56.6564 131.094 55.8155 131.101 54.7997V39.7875Z"
      fill="white" />
    <path
      d="M141.114 58.997V43.5002H145.413V58.997H141.114ZM143.274 41.5026C142.635 41.5026 142.086 41.2907 141.629 40.867C141.179 40.4365 140.953 39.922 140.953 39.3234C140.953 38.7315 141.179 38.2237 141.629 37.7999C142.086 37.3695 142.635 37.1542 143.274 37.1542C143.913 37.1542 144.457 37.3695 144.908 37.7999C145.366 38.2237 145.594 38.7315 145.594 39.3234C145.594 39.922 145.366 40.4365 144.908 40.867C144.457 41.2907 143.913 41.5026 143.274 41.5026Z"
      fill="white" />
    <path
      d="M163.303 43.5002L157.886 58.997H153.043L147.625 43.5002H152.165L155.384 54.5881H155.545L158.753 43.5002H163.303Z"
      fill="white" />
    <path
      d="M169.505 59.2894C168.516 59.2894 167.635 59.1181 166.862 58.775C166.088 58.4253 165.476 57.9108 165.025 57.2312C164.581 56.5454 164.359 55.6909 164.359 54.6685C164.359 53.8079 164.518 53.0845 164.834 52.4997C165.15 51.9144 165.58 51.4437 166.125 51.087C166.67 50.7308 167.289 50.4616 167.982 50.2802C168.681 50.0984 169.414 49.9707 170.181 49.8964C171.082 49.8024 171.809 49.715 172.36 49.6342C172.911 49.5468 173.312 49.4191 173.56 49.2508C173.81 49.0826 173.934 48.8339 173.934 48.5043V48.444C173.934 47.805 173.732 47.3106 173.328 46.9605C172.932 46.6108 172.367 46.436 171.634 46.436C170.86 46.436 170.245 46.6078 169.788 46.9505C169.33 47.287 169.027 47.7106 168.879 48.2219L164.904 47.8989C165.106 46.9575 165.503 46.1436 166.095 45.4574C166.687 44.7646 167.45 44.2335 168.385 43.8633C169.326 43.4867 170.416 43.2984 171.654 43.2984C172.515 43.2984 173.339 43.3993 174.126 43.6011C174.919 43.803 175.622 44.1155 176.234 44.5395C176.853 44.963 177.341 45.5081 177.697 46.1738C178.054 46.8329 178.232 47.6231 178.232 48.5445V58.997H174.156V56.8478H174.035C173.786 57.3321 173.453 57.7592 173.036 58.1294C172.619 58.4926 172.118 58.7784 171.533 58.9869C170.948 59.1884 170.272 59.2894 169.505 59.2894ZM170.736 56.3233C171.368 56.3233 171.926 56.1988 172.41 55.9501C172.895 55.6944 173.275 55.3513 173.55 54.9207C173.826 54.4906 173.964 54.0028 173.964 53.4582V51.8135C173.83 51.9009 173.645 51.9818 173.409 52.0556C173.181 52.1229 172.922 52.1868 172.633 52.2475C172.343 52.3013 172.054 52.3515 171.765 52.3987C171.476 52.439 171.213 52.4761 170.978 52.5098C170.473 52.5836 170.033 52.7012 169.656 52.8629C169.28 53.0242 168.987 53.2428 168.778 53.5186C168.57 53.7878 168.466 54.1239 168.466 54.5273C168.466 55.1126 168.678 55.5597 169.101 55.8692C169.532 56.1721 170.076 56.3233 170.736 56.3233Z"
      fill="white" />
    <path d="M185.864 38.3347V58.997H181.566V38.3347H185.864Z" fill="white" />
    <path
      d="M14.4222 1.02988C14.5287 0.728618 14.7257 0.467857 14.9861 0.283437C15.2464 0.0990175 15.5574 0 15.8762 0C16.195 0 16.5059 0.0990175 16.7663 0.283437C17.0266 0.467857 17.2236 0.728618 17.3302 1.02988L20.2074 9.17553C20.3115 9.47056 20.5025 9.727 20.7551 9.91097C21.0077 10.0949 21.31 10.1977 21.622 10.2057L30.2474 10.4269C30.5665 10.4351 30.8752 10.5423 31.131 10.7337C31.3868 10.9252 31.577 11.1915 31.6755 11.4959C31.774 11.8003 31.7759 12.1279 31.681 12.4334C31.586 12.739 31.3988 13.0075 31.1453 13.2019L24.3018 18.4473C24.0538 18.6379 23.8694 18.8995 23.7729 19.1976C23.6765 19.4956 23.6726 19.816 23.7618 20.1163L26.2163 28.3888C26.3072 28.6953 26.3013 29.0225 26.1992 29.3255C26.097 29.6284 25.9037 29.8921 25.6459 30.0804C25.3881 30.2687 25.0785 30.3722 24.7596 30.3767C24.4407 30.3813 24.1282 30.2866 23.8652 30.1058L16.7501 25.2069C16.4931 25.03 16.1887 24.9353 15.8769 24.9353C15.5652 24.9353 15.2608 25.03 15.0038 25.2069L7.88717 30.1042C7.62414 30.2851 7.31171 30.3798 6.99277 30.3752C6.67387 30.3707 6.36424 30.2671 6.1064 30.0789C5.84861 29.8906 5.65537 29.6268 5.55322 29.3239C5.45108 29.0209 5.44509 28.6937 5.53609 28.3872L7.99055 20.1163C8.07989 19.8156 8.07595 19.4948 7.97927 19.1965C7.88254 18.8981 7.69761 18.6363 7.44904 18.4457L0.60553 13.2004C0.351985 13.006 0.16483 12.7375 0.0698625 12.4319C-0.0251052 12.1263 -0.0232093 11.7988 0.0752885 11.4944C0.173787 11.1899 0.364037 10.9237 0.619814 10.7322C0.875593 10.5407 1.1843 10.4335 1.50339 10.4254L10.1288 10.2042C10.4409 10.1961 10.7431 10.0933 10.9957 9.9094C11.2483 9.72547 11.4393 9.46903 11.5434 9.17396L14.4222 1.02988Z"
      fill="white" />
    <path
      d="M14.4222 36.3301C14.5287 36.0289 14.7257 35.7681 14.9861 35.5837C15.2464 35.3992 15.5574 35.3002 15.8762 35.3002C16.195 35.3002 16.5059 35.3992 16.7663 35.5837C17.0266 35.7681 17.2236 36.0289 17.3302 36.3301L20.2074 44.4757C20.3115 44.7707 20.5025 45.0273 20.7551 45.2113C21.0077 45.3953 21.31 45.498 21.622 45.5059L30.2474 45.727C30.5665 45.7354 30.8752 45.8424 31.131 46.0339C31.3868 46.2253 31.577 46.4915 31.6755 46.7962C31.774 47.1004 31.7759 47.4282 31.681 47.7337C31.586 48.0392 31.3988 48.3076 31.1453 48.5021L24.3018 53.7476C24.0538 53.9382 23.8694 54.2 23.7729 54.4976C23.6765 54.7957 23.6726 55.1161 23.7618 55.4164L26.2163 63.6891C26.3072 63.9955 26.3013 64.3229 26.1992 64.6258C26.097 64.9287 25.9037 65.1922 25.6459 65.3806C25.3881 65.569 25.0785 65.6726 24.7596 65.677C24.4407 65.6813 24.1282 65.5869 23.8652 65.406L16.7501 60.5071C16.4931 60.3301 16.1887 60.2357 15.8769 60.2357C15.5652 60.2357 15.2608 60.3301 15.0038 60.5071L7.88717 65.4042C7.62414 65.5852 7.31171 65.68 6.99277 65.6752C6.67387 65.6709 6.36424 65.5673 6.1064 65.3789C5.84861 65.1909 5.65537 64.9269 5.55322 64.624C5.45108 64.3211 5.44509 63.9938 5.53609 63.6874L7.99055 55.4164C8.07989 55.1157 8.07595 54.7948 7.97927 54.4967C7.88254 54.1982 7.69761 53.9364 7.44904 53.7458L0.60553 48.5008C0.351985 48.3063 0.16483 48.0375 0.0698625 47.732C-0.0251052 47.4264 -0.0232093 47.0991 0.0752885 46.7944C0.173787 46.4902 0.364037 46.224 0.619814 46.0326C0.875593 45.8411 1.1843 45.7336 1.50339 45.7257L10.1288 45.5046C10.4409 45.4963 10.7431 45.3936 10.9957 45.2095C11.2483 45.0255 11.4393 44.7694 11.5434 44.4744L14.4222 36.3301Z"
      fill="white" />
    <path
      d="M50.2679 1.02988C50.3745 0.728618 50.5712 0.467857 50.8317 0.283437C51.0922 0.0990175 51.403 0 51.7221 0C52.0407 0 52.3515 0.0990175 52.612 0.283437C52.8725 0.467857 53.0692 0.728618 53.1758 1.02988L56.0532 9.17553C56.1572 9.47056 56.3482 9.727 56.6008 9.91097C56.8535 10.0949 57.1555 10.1977 57.4676 10.2057L66.093 10.4269C66.4121 10.4351 66.7211 10.5423 66.9768 10.7337C67.2325 10.9252 67.4227 11.1915 67.5214 11.4959C67.6198 11.8003 67.6215 12.1279 67.5267 12.4334C67.4318 12.739 67.2443 13.0075 66.9908 13.2019L60.1474 18.4473C59.8995 18.6379 59.7151 18.8995 59.6185 19.1976C59.5223 19.4956 59.5184 19.816 59.6075 20.1163L62.0618 28.3888C62.1531 28.6953 62.147 29.0225 62.0447 29.3255C61.9429 29.6284 61.7493 29.8921 61.4918 30.0804C61.2339 30.2687 60.9241 30.3722 60.6054 30.3767C60.2863 30.3813 59.9738 30.2866 59.7107 30.1058L52.5958 25.2069C52.3388 25.03 52.0346 24.9353 51.7225 24.9353C51.4109 24.9353 51.1067 25.03 50.8497 25.2069L43.733 30.1042C43.4699 30.2851 43.1574 30.3798 42.8385 30.3752C42.5196 30.3707 42.2099 30.2671 41.9521 30.0789C41.6943 29.8906 41.501 29.6268 41.3989 29.3239C41.2968 29.0209 41.2908 28.6937 41.3818 28.3872L43.8362 20.1163C43.9258 19.8156 43.9218 19.4948 43.8248 19.1965C43.7282 18.8981 43.5433 18.6363 43.2948 18.4457L36.4512 13.2004C36.1977 13.006 36.0105 12.7375 35.9156 12.4319C35.8206 12.1263 35.8225 11.7988 35.921 11.4944C36.0195 11.1899 36.2097 10.9237 36.4655 10.7322C36.7213 10.5407 37.03 10.4335 37.3491 10.4254L45.9744 10.2042C46.2865 10.1961 46.5889 10.0933 46.8416 9.9094C47.0938 9.72547 47.2848 9.46903 47.3892 9.17396L50.2679 1.02988Z"
      fill="white" />
    <path
      d="M50.2679 36.3301C50.3745 36.0289 50.5712 35.7681 50.8317 35.5837C51.0922 35.3992 51.403 35.3002 51.7221 35.3002C52.0407 35.3002 52.3515 35.3992 52.612 35.5837C52.8725 35.7681 53.0692 36.0289 53.1758 36.3301L56.0532 44.4757C56.1572 44.7707 56.3482 45.0273 56.6008 45.2113C56.8535 45.3953 57.1555 45.498 57.4676 45.5059L66.093 45.727C66.4121 45.7354 66.7211 45.8424 66.9768 46.0339C67.2325 46.2253 67.4227 46.4915 67.5214 46.7962C67.6198 47.1004 67.6215 47.4282 67.5267 47.7337C67.4318 48.0392 67.2443 48.3076 66.9908 48.5021L60.1474 53.7476C59.8995 53.9382 59.7151 54.2 59.6185 54.4976C59.5223 54.7957 59.5184 55.1161 59.6075 55.4164L62.0618 63.6891C62.1531 63.9955 62.147 64.3229 62.0447 64.6258C61.9429 64.9287 61.7493 65.1922 61.4918 65.3806C61.2339 65.569 60.9241 65.6726 60.6054 65.677C60.2863 65.6813 59.9738 65.5869 59.7107 65.406L52.5958 60.5071C52.3388 60.3301 52.0346 60.2357 51.7225 60.2357C51.4109 60.2357 51.1067 60.3301 50.8497 60.5071L43.733 65.4042C43.4699 65.5852 43.1574 65.68 42.8385 65.6752C42.5196 65.6709 42.2099 65.5673 41.9521 65.3789C41.6943 65.1909 41.501 64.9269 41.3989 64.624C41.2968 64.3211 41.2908 63.9938 41.3818 63.6874L43.8362 55.4164C43.9258 55.1157 43.9218 54.7948 43.8248 54.4967C43.7282 54.1982 43.5433 53.9364 43.2948 53.7458L36.4512 48.5008C36.1977 48.3063 36.0105 48.0375 35.9156 47.732C35.8206 47.4264 35.8225 47.0991 35.921 46.7944C36.0195 46.4902 36.2097 46.224 36.4655 46.0326C36.7213 45.8411 37.03 45.7336 37.3491 45.7257L45.9744 45.5046C46.2865 45.4963 46.5889 45.3936 46.8416 45.2095C47.0938 45.0255 47.2848 44.7694 47.3892 44.4744L50.2679 36.3301Z"
      fill="white" />
  </g>
</svg>