<svg viewBox="0 0 593 138" fill="none" xmlns="http://www.w3.org/2000/svg">
  <path
    d="M574.894 90.0667C568.923 94.6656 560.848 97.1388 553.368 97.1388C530.703 97.1388 519.798 80.3143 519.798 61.703C519.798 43.0896 531.856 26.7191 551.847 26.7191C561.913 26.7191 568.175 31.4813 572.032 35.9045H572.31V4.15329H593V97.143L574.894 90.0667ZM556.729 44.8618C545.972 44.8618 540.46 53.2981 540.46 61.8683C540.46 70.5703 545.977 79.1405 556.729 79.1405C566.936 79.1405 573.277 70.7063 573.277 62.0001C573.279 53.5659 566.936 44.8618 556.729 44.8618ZM441.564 95.4879V28.393H461.444V37.8273H461.718C464.889 31.9395 472.747 26.7191 482.263 26.7191C500.74 26.7191 506.156 40.6373 506.156 54.0304V95.4879H485.458V58.849C485.458 51.4861 483.307 44.7927 474.866 44.7927C466.563 44.7927 462.268 51.4861 462.268 59.1189V95.49H441.564V95.4879ZM406.002 90.2571C398.986 94.7096 391.509 97.143 384.058 97.143C370.583 97.143 358.989 90.2236 358.989 76.4309C358.989 53.2332 387.152 52.8189 404.408 52.8189C404.408 45.502 398.335 40.8068 391.156 40.8068C384.394 40.8068 378.731 43.8449 374.311 48.8163L363.268 37.4926C370.861 30.3117 381.905 26.7233 392.812 26.7233C416.973 26.7233 423.458 39.0137 423.458 61.3808V97.1451L406.002 90.2571ZM399.298 66.076C392.949 66.076 378.863 66.6283 378.863 75.7405C378.863 80.7119 384.11 83.0594 388.666 83.0594C396.814 83.0594 404.404 78.7785 404.404 70.4929V66.076H399.298ZM323.821 4.15329H344.528V95.4837H323.821V4.15329ZM285.287 4.15329H305.995V95.4837H285.287V4.15329ZM232.873 26.7233C253.581 26.7233 270.147 40.5306 270.147 61.9352C270.147 83.3377 253.581 97.1471 232.873 97.1471C212.164 97.1471 195.596 83.3356 195.596 61.9352C195.596 40.5306 212.164 26.7233 232.873 26.7233ZM232.873 78.9187C243.226 78.9187 249.439 72.014 249.439 61.9373C249.439 51.8544 243.226 44.9517 232.873 44.9517C222.517 44.9517 216.306 51.8544 216.306 61.9373C216.306 72.014 222.517 78.9187 232.873 78.9187ZM116.228 95.4879V7.41524L136.937 0V37.8273H137.211C140.382 31.9395 147.411 26.7191 156.928 26.7191C175.404 26.7191 180.82 40.6373 180.82 54.0304V95.4879H160.122V58.849C160.122 51.4861 157.971 44.7927 149.528 44.7927C141.227 44.7927 136.93 51.4861 136.93 59.1189V95.49H116.228V95.4879ZM35.5259 36.3229L54.3705 29.5731V37.0762H54.5462C57.5712 31.4562 64.2927 24.3673 74.9848 24.3673C93.4611 24.3673 98.666 38.2835 98.666 51.6765V138L78.3738 129.589L78.3592 56.4952C78.3592 49.1301 76.2065 42.4368 67.7633 42.4368C59.4623 42.4368 55.1675 49.1301 55.1675 56.7651L55.1424 120.016L35.528 111.888V36.3229H35.5259ZM18.9533 42.2756V105.027L0 97.1848V49.0757L18.9533 42.2756Z"
    fill="white" />
</svg>