<svg viewBox="0 0 175 66" fill="none" xmlns="http://www.w3.org/2000/svg">
  <path fill-rule="evenodd" clip-rule="evenodd"
    d="M97.3606 1.89709C100.177 1.89709 101.334 4.48403 101.334 5.14735C99.7189 5.14735 97.4537 10.8357 91.2311 26.4646L91.1833 26.5858C84.9374 42.2666 81.2774 49.4172 78.5017 49.4172C74.2974 49.4172 72.2697 38.5653 72.2837 25.4979C72.2837 20.0587 75.0728 4.24523 78.8149 0.636783C79.209 0.252059 81.1004 0 81.6995 0C83.0466 0 83.6724 0.331659 83.6724 0.331659C83.6724 0.331659 77.0323 11.1968 77.0323 33.0863C77.0323 37.0662 77.5085 44.4821 78.6653 44.4821C80.5422 44.4821 83.8808 34.6427 87.3493 24.4232C91.096 13.3821 94.9935 1.89709 97.3606 1.89709ZM35.3551 4.77589C36.9062 6.80564 35.0965 8.7425 35.0965 8.7425C34.008 7.66793 27.4224 9.1405 20.3334 11.1968C20.0703 13.0743 19.2539 16.5784 17.7896 22.8628L17.7893 22.8642L17.7889 22.8659C17.3599 24.7067 16.8755 26.7861 16.333 29.1329C15.1628 34.2139 12.7545 43.8321 12.7545 43.8321C12.7545 43.8321 12.115 44.429 10.6183 44.0443C10.2457 43.9497 9.90966 43.7511 9.65106 43.4731C9.39247 43.195 9.22266 42.8495 9.16235 42.4789C13.326 26.3735 14.7955 15.986 15.1901 12.7623C9.14872 14.6726 3.59723 16.6626 1.73312 17.4983C1.73312 17.4983 0.699018 17.3391 0.222786 16.5166C-0.253446 15.6941 0.181966 14.8583 0.181966 14.8583C2.76722 13.0806 33.2189 1.97669 35.3551 4.77589ZM62.3865 32.6505C62.5757 32.3953 62.6933 32.2373 63.2079 32.2373C63.7115 32.2373 63.6975 32.8077 63.6975 32.8077C63.6975 34.0813 56.3365 44.3627 48.2406 44.3627C47.2473 44.3627 44.5532 43.8984 42.866 41.789C39.995 43.3943 37.1784 44.4158 34.9469 44.4158C34.4707 44.4158 31.6949 44.1505 31.6949 40.6614C31.6949 39.0402 32.401 36.8097 33.0884 34.6381C34.2685 30.9099 35.3937 27.3553 32.797 27.3553C29.5859 27.3553 25.6944 33.3383 25.6944 33.3383C25.6944 33.3383 23.5854 41.3645 23.2996 43.8321C23.2996 43.8321 22.9731 44.2433 21.8301 44.2433C19.7211 44.2433 19.4081 42.5187 19.4081 42.5187C19.4081 42.5187 25.8168 19.8863 25.8168 14.593C25.8168 13.0939 25.5855 12.8684 25.5855 12.8684C25.5855 12.8684 27.7762 11.8601 29.2321 11.8601C30.688 11.8601 30.7153 12.8949 30.7153 13.8368C30.7153 16.9279 26.8782 29.1462 26.8782 29.1462C26.8782 29.1462 30.5656 23.6406 35.2735 23.6406C39.1785 23.6406 38.6751 27.9788 38.6751 27.9788C38.6751 30.4362 37.3339 33.742 36.2968 36.2984C35.6431 37.9098 35.1102 39.2233 35.1102 39.8388C35.1102 40.9267 36.0491 41.139 36.43 41.139C37.7907 41.139 39.6684 40.4624 41.6686 39.4011C41.5087 38.7224 41.4311 38.0278 41.4372 37.3316C41.4372 30.0218 48.2542 23.7866 52.8804 23.7866C56.4318 23.7866 56.459 26.4266 56.459 26.5858C56.459 30.4065 51.683 35.8192 46.2268 39.6797C46.7983 40.6216 47.8596 41.4972 49.9822 41.4972C54.6351 41.4972 61.4324 33.7599 62.1408 32.9533C62.1618 32.9296 62.1775 32.9119 62.1874 32.9006C62.2683 32.8098 62.3306 32.7259 62.3865 32.6505ZM52.7172 27.7798C52.7172 26.7583 52.2953 26.4266 51.6967 26.4266C49.2066 26.4266 45.805 31.1627 45.6145 36.8672C49.4243 34.0548 52.7172 30.4065 52.7172 27.7798ZM172.51 27.2491C171.282 27.2471 170.094 27.6756 169.163 28.4563C169.163 28.4563 169.898 29.2258 169.898 30.9637C169.898 34.4395 164.468 42.4258 161.502 42.4258C160.808 42.4258 159.543 42.2003 159.543 39.7726C159.543 37.8331 160.465 35.3741 161.373 32.9526C162.254 30.6036 163.121 28.2896 163.121 26.5194C163.121 25.5377 162.427 24.9275 160.727 24.9275C159.681 24.9391 158.661 25.243 157.788 25.8031C157.788 25.8031 158.277 26.1878 158.277 27.1032C158.277 29.5707 157.488 32.1842 156.726 34.5721C156.046 36.708 151.447 42.3595 146.412 42.3595C143.664 42.3595 142.575 40.9665 142.126 39.746C148.29 35.8191 153.202 30.5259 153.202 26.6919C153.202 26.5195 153.175 23.7468 149.446 23.7468C144.589 23.7468 137.432 30.2871 137.432 37.9551C137.419 44.4291 143.011 45.3975 144.576 45.3975C148.685 45.3975 152.467 43.1953 155.393 40.6614C155.542 43.7923 157.216 45.9812 160.917 45.9812C164.808 45.9812 167.571 41.1125 167.571 41.1125L161.23 63.8375C161.23 63.8375 161.992 66 164.346 66C165.652 66 165.843 64.514 165.843 64.514C168.808 50.3843 172.061 38.7244 173.655 33.0136C174.277 30.7838 174.646 29.4609 174.646 29.2523C174.646 28.5094 174.578 27.2491 172.51 27.2491ZM148.208 26.5593C148.835 26.5593 149.283 26.9042 149.283 27.9788C149.283 30.5524 146.086 33.9751 141.881 36.7611C142.33 31.1229 145.705 26.5593 148.208 26.5593ZM128.955 11.9543C128.955 11.9543 129.976 8.96937 127.594 8.96937C126.195 8.95961 124.814 9.29261 123.58 9.9378C123.58 9.9378 124.179 11.6359 122.628 17.8048C122.235 19.3604 121.636 21.7555 120.957 24.4681C120.507 26.2663 120.022 28.2041 119.539 30.1292C117.281 37.5716 112.804 41.1536 111.375 41.1536C109.742 41.1536 111.403 34.9051 111.403 34.9051L113.199 28.0066L114.301 23.7879C114.301 23.7879 113.308 22.2755 112.178 22.2755C111.049 22.2755 110.75 22.6735 110.75 22.6735L110.205 24.7564L110.203 24.7543C110.139 24.6877 108.63 23.1113 105.715 23.1113C100.531 23.1379 93.6458 31.8539 93.6458 38.3809C93.6458 44.0058 96.8436 45.1998 98.2582 45.1998C100.422 45.1998 104.001 43.9528 107.334 40.0126C107.402 42.2945 107.987 44.0058 109.62 44.0058C112.328 44.0058 114.872 42.2812 117.063 40.0259C116.546 42.0822 116.219 43.4089 116.219 43.4089C116.219 43.4089 116.723 45.1733 118.355 45.1733C119.608 45.1733 120.056 44.7487 120.056 44.7487L124.301 29.1329L124.315 29.0931H124.301L128.955 11.9543ZM108.912 29.7432C108.763 30.3136 108.586 31.0167 108.409 31.7862C106.586 38.9235 102.422 41.0063 100.694 41.0063C100.694 41.0063 98.5848 41.139 98.5848 37.3448C98.5715 32.1178 103.524 25.7898 106.64 25.7898C107.745 25.7794 108.817 26.156 109.661 26.8511L108.912 29.7432ZM133.418 11.9795C133.418 11.9795 135.35 11.0641 137.596 11.0641C139.84 11.0641 138.875 13.8766 138.875 13.8766L130.493 44.774C129.859 45.0171 129.187 45.1518 128.506 45.172C126.968 45.172 126.492 43.5137 126.492 43.5137C126.492 43.5137 131.091 25.2193 132.534 19.3954C133.976 13.5715 133.418 11.9795 133.418 11.9795Z"
    fill="white" />
</svg>