<svg width="514" height="290" viewBox="0 0 514 290" fill="none" xmlns="http://www.w3.org/2000/svg">
<path fill-rule="evenodd" clip-rule="evenodd" d="M438.236 245.912C484.6 219.833 513 183.961 513 144.562C513 105.164 484.6 69.2925 438.236 43.213C391.904 17.1511 327.829 1 257 1C186.171 1 122.096 17.1511 75.7638 43.213C29.4003 69.2925 1 105.164 1 144.562C1 183.961 29.4003 219.833 75.7638 245.912C122.096 271.974 186.171 288.125 257 288.125C327.829 288.125 391.904 271.974 438.236 245.912ZM257 289.125C398.937 289.125 514 224.402 514 144.562C514 64.7229 398.937 0 257 0C115.063 0 0 64.7229 0 144.562C0 224.402 115.063 289.125 257 289.125Z" fill="white"/>
</svg>
