<svg width="111" height="111" viewBox="0 0 111 111" fill="none" xmlns="http://www.w3.org/2000/svg">
<path fill-rule="evenodd" clip-rule="evenodd" d="M57.7395 55.5203L110.536 108.321C111.148 108.933 111.148 109.925 110.536 110.536C109.925 111.148 108.933 111.148 108.322 110.536L55.5245 57.7353L2.71866 110.541C2.10701 111.153 1.11532 111.153 0.503664 110.541C-0.107992 109.93 -0.107992 108.938 0.503664 108.326L53.3096 55.5202L0.512719 2.71926C-0.0989129 2.10758 -0.0989114 1.11585 0.512721 0.50417C1.12435 -0.10751 2.116 -0.10751 2.72764 0.50417L55.5246 53.3052L108.317 0.513195C108.928 -0.0984669 109.92 -0.0984576 110.532 0.513198C111.143 1.12485 111.143 2.11653 110.532 2.7282L57.7395 55.5203Z" fill="white"/>
</svg>
