<svg width="464" height="170" viewBox="0 0 464 170" fill="none" xmlns="http://www.w3.org/2000/svg">
<path d="M0.996094 62.3978C1.09908 62.3532 1.23296 62.3395 1.29818 62.2639C9.40986 53.1327 20.0996 47.908 30.9643 43.0746C44.0982 37.232 57.85 33.9263 72.3432 34.3348C83.4448 34.6471 93.8702 37.1153 102.658 44.3551C111.738 51.8351 116.533 61.2856 115.596 73.2489C115.48 74.7147 115.191 76.1702 114.93 78.017C122.946 72.5486 131.528 70.1456 141.198 71.1926C141.092 69.6307 140.992 68.134 140.872 66.3695C138.376 66.9737 136.083 67.5298 133.618 68.1237C133.533 66.9119 133.437 65.7997 133.378 64.6875C133.076 58.7591 132.805 52.8306 132.468 46.9056C132.407 45.8483 132.801 45.3574 133.694 44.7945C140.367 40.5824 148.009 38.9175 155.355 36.4906C163.854 33.6825 172.409 31.0427 180.943 28.3308C181.427 28.1763 181.918 28.0425 182.532 27.864C182.532 29.6593 182.532 31.3448 182.532 33.5452C184.506 29.9545 188.117 29.4705 190.771 27.5722C191.725 26.889 192.209 27.5687 192.789 28.0837C200.451 34.8634 208.11 41.6432 215.772 48.4229C216.369 48.9516 216.97 49.4768 217.708 50.1256C219.624 49.106 221.556 48.0796 223.671 46.9571C221.79 44.7189 220.039 42.6387 218.147 40.3936C219.301 39.0548 220.437 37.7229 221.584 36.4082C230.756 25.9107 239.929 15.4098 249.118 4.92605C249.595 4.38367 250.182 3.88249 250.817 3.53921C253.025 2.34803 255.273 1.23237 257.683 0C263.481 8.63003 269.262 17.236 275.194 26.0686C267.044 30.4488 258.984 34.781 250.409 39.3878C260.134 40.0057 268.421 43.0094 275.544 49.4905C276.052 46.528 276.46 43.8058 277.027 41.118C277.167 40.4554 277.823 39.9027 278.252 39.3089C278.314 39.2231 278.451 39.199 278.544 39.1338C282.505 36.2949 286.862 35.2925 291.753 35.6392C296.422 35.9688 301.132 35.7353 305.821 35.6838C306.501 35.677 307.222 35.3852 307.839 35.0694C310.126 33.8988 312.364 32.639 314.654 31.4718C315.131 31.2281 315.742 31.1491 316.291 31.1491C324.76 31.1285 333.225 31.1663 341.694 31.1011C342.96 31.0908 343.362 31.537 343.54 32.687C345.497 45.2957 347.492 57.9009 349.483 70.5061C349.5 70.6056 349.592 70.6914 349.778 70.9832C356.204 66.5137 363.378 64.2549 371.295 64.1897C371.295 61.0041 371.315 57.9352 371.288 54.8663C371.257 51.3854 371.222 47.9011 371.102 44.4203C371.065 43.3664 371.476 42.8652 372.307 42.2576C376.622 39.1063 381.026 38.8969 386.227 40.2495C397.202 43.109 408.362 45.2682 419.463 47.6437C420.73 47.9149 421.355 48.4126 421.482 49.6828C421.571 50.5684 421.822 51.4403 422.041 52.5251C423.641 51.6806 425.055 50.8465 426.549 50.1805C427.225 49.8784 428.111 49.6656 428.801 49.8304C440.119 52.5217 451.423 55.2782 462.727 58.0279C462.936 58.0794 463.122 58.2167 463.486 58.3952C462.38 61.7662 461.295 65.1063 460.187 68.4395C450.008 99.0703 439.834 129.705 429.597 160.318C429.295 161.218 428.464 162.134 427.633 162.628C425.533 163.875 423.356 165.577 421.087 165.79C418.887 165.996 416.532 164.582 414.249 163.864C408.321 161.997 402.409 160.081 396.46 158.276C395.132 157.874 394.679 157.26 394.734 155.883C394.847 153.099 394.768 150.312 394.768 147.445C386.176 146.206 377.882 145.008 369.273 143.765C369.743 139.399 370.217 135.025 370.673 130.793C366.935 131.744 363.258 132.677 359.479 133.638C359.86 135.976 360.213 138.451 360.68 140.902C360.914 142.131 360.498 142.715 359.472 143.484C355.301 146.608 350.928 146.741 345.957 145.694C336.246 143.649 326.425 142.128 316.641 140.435C315.34 140.209 314.739 139.797 314.66 138.307C314.52 135.643 314.025 132.997 313.655 130.137C311.609 131.242 309.676 132.289 307.627 133.395C306.24 130.872 304.901 128.445 303.476 125.853C301.623 126.845 299.896 127.816 298.118 128.692C297.538 128.98 296.796 129.234 296.189 129.138C285.317 127.435 274.456 125.678 263.368 123.896C264.116 119.21 264.847 114.628 265.592 109.959C262.98 111.222 260.539 112.589 257.961 113.598C255.373 114.614 252.685 115.503 249.959 116.018C248.318 116.327 248.133 116.989 248.143 118.359C248.191 125.722 248.133 133.089 248.198 140.456C248.208 141.664 247.817 142.296 246.756 142.797C244.597 143.817 242.51 145.76 240.358 145.811C238.277 145.863 236.142 144.03 234.048 142.996C218.697 135.42 203.352 127.837 188.001 120.257C187.397 119.959 186.786 119.684 185.893 119.265C185.893 120.096 185.893 120.693 185.893 121.291C185.903 126.371 185.886 131.455 185.944 136.536C185.955 137.514 185.725 138.115 184.767 138.499C183.765 138.901 182.779 139.399 181.887 139.999C179.148 141.846 176.034 142.402 172.855 142.856C165.169 143.954 157.494 145.114 149.811 146.24C149.31 146.312 148.798 146.299 148.115 146.336C147.768 142.608 147.429 138.952 147.061 135.039C146.474 135.451 146.066 135.708 145.692 136.007C140.247 140.332 134.305 143.631 127.316 144.658C114.477 146.546 104.323 142.2 96.97 131.476C96.6817 131.054 96.3967 130.625 96.1084 130.202C96.0775 130.161 96.0157 130.14 95.7445 129.972C96.8464 134.229 97.9037 138.3 98.961 142.375C99.8604 145.845 100.712 149.333 101.69 152.783C101.961 153.741 101.718 154.136 100.955 154.706C96.7126 157.891 92.0577 160.095 86.9394 161.592C78.8483 163.96 70.8637 166.71 62.6009 169.37C51.5439 144.349 40.5041 119.368 29.3784 94.1958C27.1986 95.126 25.0462 95.9739 22.9659 96.966C21.8915 97.4775 21.4143 97.2097 20.8342 96.228C14.6105 85.6515 8.33196 75.1163 2.06026 64.5776C1.74787 64.0524 1.3531 63.5787 0.996094 63.0844C0.996094 62.8544 0.996094 62.6278 0.996094 62.3978ZM39.9274 76.0294C42.3715 81.4807 44.7504 86.7981 47.1362 92.1086C52.79 104.697 58.4473 117.281 64.1011 129.869C67.551 137.555 70.9769 145.252 74.4681 152.92C74.6432 153.305 75.4224 153.772 75.7588 153.669C81.1552 152.014 86.524 150.274 91.9719 148.53C91.0828 145.125 90.2315 141.846 89.3767 138.575C86.8433 128.888 84.3099 119.2 81.7731 109.513C81.5568 108.689 81.574 108.095 82.4734 107.522C87.9281 104.041 92.8404 99.9285 96.9769 94.9132C102.078 88.7273 105.967 82.0128 107.124 73.9114C108.46 64.5708 104.92 57.2074 97.9655 51.3305C92.7958 46.964 86.8193 44.3825 79.9846 43.4214C73.1327 42.4567 66.3461 42.3366 59.5492 43.3115C49.6387 44.7327 40.1917 47.7741 31.1703 52.072C26.9343 54.0905 22.8355 56.3973 18.4862 58.6732C22.8733 66.0709 27.0544 73.1253 31.287 80.2689C34.1912 78.8443 36.9786 77.4746 39.9274 76.0294ZM424.067 152.234C433.895 122.533 443.692 92.9222 453.517 63.2285C446.462 61.6701 439.593 60.1562 432.632 58.6183C429.501 71.5119 426.391 84.323 423.281 97.1376C421.297 89.1392 419.649 81.2026 417.98 73.2695C416.765 67.4852 415.529 61.7044 414.29 55.9236C414.07 54.8937 413.947 54.0424 412.44 53.7678C405.887 52.58 399.378 51.1486 392.849 49.8269C390.782 49.4081 388.706 49.0546 386.413 48.6323C386.289 51.279 386.176 53.6511 386.059 56.0712C388.129 56.6548 390.051 57.1971 392.025 57.7532C391.888 59.1847 391.764 60.4789 391.644 61.7696C391.376 64.6463 391.208 67.5367 390.796 70.3928C390.659 71.3574 390.724 71.9547 391.424 72.6378C398.39 79.4107 400.614 87.8794 399.443 97.1754C398.276 106.43 393.68 114.068 386.893 120.443C386.316 120.982 385.942 121.94 385.843 122.746C385.444 126.059 385.19 129.389 384.851 133.065C390.068 133.882 395.372 134.713 400.796 135.561C403.189 122.091 405.533 108.902 407.874 95.7165C407.977 95.7268 408.08 95.7336 408.187 95.7439C408.609 113.124 409.031 130.501 409.457 147.915C414.366 149.368 419.151 150.782 424.067 152.234ZM240.22 112.156C239.077 111.995 238.01 111.895 236.963 111.689C226.242 109.578 217.646 104.319 211.872 94.8445C211.519 94.2644 210.897 93.7152 210.273 93.4611C206.346 91.8477 202.381 90.3236 198.433 88.7616C194.698 87.2855 190.97 85.7957 187.105 84.2612C195.793 75.1163 204.348 66.1087 212.954 57.0495C206.682 51.0936 200.582 45.2991 194.441 39.4668C188.135 48.2925 181.935 56.9671 175.509 65.9542C174.966 56.9225 174.452 48.3611 173.919 39.5595C165.31 42.11 156.821 44.6263 148.187 47.1837C148.297 49.4528 148.404 51.6532 148.517 54.0184C151.057 53.4142 153.36 52.8684 155.739 52.3054C156.028 56.1536 156.265 59.7237 156.563 63.2869C156.972 68.1477 157.394 73.012 157.892 77.866C157.978 78.6933 158.283 79.6716 158.832 80.2552C163.92 85.6618 166.36 92.1773 166.745 99.4411C167.098 106.135 165.32 112.427 162.255 118.349C161.747 119.331 161.376 120.148 161.572 121.346C161.898 123.354 161.836 125.424 161.997 127.463C162.145 129.351 162.368 131.236 162.567 133.189C167.579 132.516 172.344 131.85 177.112 131.253C178.2 131.115 178.492 130.645 178.485 129.588C178.44 123.138 178.461 116.687 178.461 110.234C178.461 106.475 178.461 102.719 178.461 98.6961C199.113 108.998 219.579 119.207 240.213 129.502C240.22 123.57 240.22 117.978 240.22 112.156ZM304.609 87.7318C304.733 87.6975 304.853 87.6631 304.976 87.6288C308.828 95.8778 312.676 104.123 316.689 112.719C319.363 105.857 321.893 99.3621 324.609 92.4004C326.538 105.091 328.392 117.295 330.235 129.42C337.31 130.491 344.155 131.524 351.003 132.557C351.371 128.953 350.815 128.091 347.952 126.423C338.686 121.026 333.802 112.856 333.338 102.228C332.947 93.2243 336.338 85.4215 341.769 78.374C342.311 77.6703 342.593 76.5169 342.497 75.6243C342.167 72.5383 341.625 69.4728 341.148 66.4039C339.788 57.64 338.439 48.8761 337.018 40.1224C336.943 39.6659 336.218 38.9793 335.782 38.969C331.725 38.8763 327.66 38.8763 323.603 38.9484C323.174 38.9553 322.467 39.5251 322.381 39.9371C321.718 43.1914 321.169 46.4697 320.596 49.7411C319.429 56.3698 318.268 62.9986 317.105 69.6273C317.012 69.6307 316.919 69.6341 316.83 69.6341C315.206 60.8428 313.579 52.0548 311.945 43.2154C305.526 43.2154 299.295 43.1914 293.068 43.2669C292.632 43.2737 291.925 43.9466 291.825 44.41C291.269 46.9983 290.851 49.6175 290.411 52.2299C288.805 61.725 287.201 71.2201 285.609 80.7186C285.392 82.0025 285.557 83.0323 286.824 83.9283C288.516 85.1194 289.961 86.6573 291.551 88.0785C289.017 90.7424 286.639 93.2826 284.208 95.7714C283.443 96.5541 282.787 97.2338 282.735 98.4867C282.677 99.9903 282.186 101.47 281.936 102.97C281.362 106.399 280.82 109.836 280.247 113.402C286.927 114.552 293.398 115.664 299.999 116.801C301.544 107 303.075 97.3676 304.609 87.7318ZM272.921 58.4226C270.628 55.5151 267.954 53.222 264.823 51.5502C253.615 45.56 242.369 46.4422 231.367 51.9793C218.632 58.3883 212.775 71.1892 216.321 84.8791C219.349 96.5644 229.761 103.423 242.119 104.178C250.759 104.707 258.826 102.355 266.536 98.6755C271.531 96.2897 275.921 93.0526 279.715 88.8955C275.231 84.8826 270.827 80.9417 266.292 76.8807C261.394 82.9808 255.235 85.9433 247.161 85.8781C255.922 76.5375 264.353 67.5539 272.921 58.4226ZM128.116 132.149C130.024 131.902 131.964 131.792 133.835 131.38C142.317 129.512 148.98 124.854 153.937 117.813C158.619 111.157 161.026 103.759 159.485 95.6272C156.845 81.7004 144.658 75.7239 132.709 77.6051C123.337 79.0812 116.08 84.1789 110.725 91.8717C106.235 98.3254 103.983 105.503 105.425 113.395C107.45 124.483 116.695 132.255 128.116 132.149ZM340.351 101.624C340.537 103.008 340.612 104.892 341.052 106.688C344.042 118.881 355.48 124.895 367.347 122.609C375.991 120.944 382.743 116.166 387.666 108.953C392.186 102.328 394.195 95.0333 392.149 87.0624C389.028 74.9035 377.11 69.5071 365.699 71.8105C360.546 72.8507 355.967 75.0682 351.947 78.4564C344.9 84.3917 340.726 91.7722 340.351 101.624ZM256.3 11.6097C252.915 15.7016 249.733 19.5566 246.54 23.4013C243.711 26.8067 240.859 30.1948 238.051 33.6173C237.783 33.9469 237.546 34.5579 237.67 34.9115C238.398 37.0192 239.132 37.2835 241.123 36.2915C241.528 36.0889 241.926 35.8761 242.328 35.6735C249.987 31.8529 257.649 28.0356 265.517 24.1119C262.417 19.9102 259.403 15.8183 256.3 11.6097ZM207.276 74.1311C204.907 76.6954 202.573 79.2253 200.307 81.6798C202.545 82.5311 205.199 83.5404 207.877 84.5599C207.674 80.9864 207.482 77.6566 207.276 74.1311Z" fill="white"/>
<path d="M78.2181 99.0643C77.3324 96.2117 76.5223 93.6405 75.7328 91.0591C73.6697 84.2896 71.6615 77.5064 69.5228 70.761C69.0972 69.4222 69.5263 68.9931 70.6522 68.5022C75.7225 66.2915 80.8407 65.7148 85.9075 68.2688C91.5476 71.1111 92.653 75.5841 92.4504 80.6783C92.1793 87.4581 88.0256 91.8624 83.0034 95.683C81.5307 96.8056 79.9757 97.8285 78.2181 99.0643ZM81.4586 88.6596C84.0641 86.7612 85.6432 84.1626 86.0037 81.4026C86.6078 76.8061 85.0459 74.1492 81.0295 73.2875C79.7972 73.0232 78.4618 73.2463 76.8415 73.2463C78.3966 78.4333 79.9002 83.4555 81.4586 88.6596Z" fill="white"/>
<path d="M236.343 85.8849C228.568 81.0275 227.809 69.3011 234.709 63.1358C240.747 57.7395 249.631 58.3402 254.63 63.1702C255.416 63.9288 255.491 64.4231 254.739 65.2642C248.677 72.0508 242.659 78.8752 236.625 85.6858C236.549 85.7717 236.439 85.8197 236.343 85.8849ZM247.771 65.3328C243.507 63.7125 239.518 65.5594 237.04 68.4292C235.049 70.7326 234.455 75.566 236.542 78.2229C240.253 73.9594 243.947 69.7234 247.771 65.3328Z" fill="white"/>
<path d="M146.965 89.8742C149.605 93.3962 149.591 98.5351 146.951 102.545C144.03 106.983 139.814 108.864 134.476 108.689C128.919 108.507 123.732 104.841 122.16 99.6027C120.124 92.8298 124.26 85.7376 131.349 84.0316C132.98 83.6402 134.713 83.6608 136.224 83.5098C134.686 84.7147 132.925 85.7651 131.61 87.2172C130.117 88.8649 130.028 91.0241 130.721 93.1422C131.909 96.7741 135.953 98.9916 140.189 98.36C144.15 97.7696 146.687 94.6732 146.965 89.8742Z" fill="white"/>
<path d="M370.571 76.8943C363.915 78.8716 362.933 82.8536 363.603 85.7474C364.636 90.2204 368.865 92.1359 372.662 91.8132C376.239 91.5111 380.454 88.7786 380.035 83.6569C382.593 86.3276 382.332 92.4482 379.49 96.5127C375.882 101.676 368.24 103.502 362.03 100.684C356.737 98.2805 353.565 92.05 354.719 86.815C356.061 80.7184 362.13 75.9674 370.571 76.8943Z" fill="white"/>
</svg>
