<svg width="216" height="187" viewBox="0 0 216 187" fill="none" xmlns="http://www.w3.org/2000/svg">
<g clip-path="url(#clip0_319_107)">
<path d="M215.614 105.761C215.209 103.692 214.74 101.613 214.22 99.5694C208.458 77.147 195.956 57.0466 178.411 41.9982C178.191 41.8047 177.968 41.6112 177.746 41.4274L177.098 40.8838C174.377 38.6332 171.495 36.5865 168.475 34.7602L177.321 1.6523L164.066 12.9127C162.012 14.6655 159.613 15.9642 157.025 16.7242L155.575 17.1518L152.191 14.5592C150.365 13.1565 148.546 11.657 146.79 10.0957C144.779 8.3118 142.817 6.41959 140.959 4.50416L137.049 0.441129L133.143 4.50416C131.571 6.14485 129.914 7.75265 128.221 9.28693C126.496 10.858 124.708 12.3826 122.907 13.8027L120.117 16.018L118.264 15.3215C115.854 14.4149 113.65 13.0334 111.781 11.2585L99.8619 0L103.619 21.3793C101.517 21.7237 99.4298 22.1532 97.3775 22.6891C96.1983 22.4412 95.001 22.2905 93.7974 22.2383H93.7125H93.6296C93.2901 22.2383 92.9525 22.2383 92.6111 22.2383H92.154C88.7275 22.2584 85.3068 22.5209 81.9172 23.0238C80.7598 23.198 79.6025 23.3992 78.4664 23.6275C70.653 25.2056 63.1562 28.078 56.2838 32.127L56.226 31.4711L48.4158 37.3605C42.3356 41.9622 34.9471 44.4917 27.3308 44.5792L3.08627 44.9197L25.1511 54.9805C27.8716 56.2235 30.7055 57.2 33.6133 57.8962C23.2474 65.2531 14.1916 74.3096 6.82643 84.6852L0.522736 93.5658L0 93.9005L12.3123 93.2562L12.2428 93.2852L45.1906 91.5149L34.9134 99.2095L39.2052 98.6078C33.5017 105.576 29.1478 113.553 26.3683 122.127C26.2892 122.371 26.2101 122.618 26.133 122.864L25.4617 125.023L17.3602 129.545L23.9668 129.858L23.4903 131.389L13.5236 128.719L20.4465 140.298L11.5735 138.18L32.8263 154.008C40.8902 160.01 50.6673 163.246 60.7088 163.237C60.9287 163.237 61.1486 163.237 61.3665 163.237H61.9143L62.4486 163.117C66.0254 162.315 69.5349 161.237 72.9458 159.892L73.6364 161.44C74.6394 161.151 75.6309 160.828 76.6108 160.472C76.6108 160.561 76.6108 160.65 76.6108 160.739L77.4325 187.01L79.7105 181.246L81.2074 186.234L86.4251 184.647C88.8769 183.9 91.2865 183.02 93.6431 182.01L106.025 181.913C109.11 181.889 112.186 181.557 115.206 180.923C115.858 180.789 116.53 180.633 117.257 180.447L117.799 180.308L118.3 180.06C121.628 178.423 124.749 176.395 127.598 174.018L127.712 173.925L128.898 174.892C130.032 173.7 131.145 172.443 132.2 171.16C137.718 164.466 141.983 156.826 144.788 148.608C146.667 148.837 148.557 148.995 150.446 149.073L150.604 149.183L152.386 149.142H152.722C155.579 149.138 158.329 150.237 160.399 152.213L161.734 153.48C162.329 154.184 162.908 154.889 163.47 155.595C163.74 155.929 164.006 156.268 164.278 156.618C167.942 161.313 171.191 166.32 173.986 171.582L168.554 186.59L177.553 185.276C178.826 185.083 180.832 184.595 181.218 184.502L181.353 184.467L182.51 184.115L182.614 184.078C182.904 183.978 184.383 183.454 185.245 183.072C191.182 180.459 196.136 176.019 199.392 170.396L199.564 170.1L199.579 170.061L199.826 169.61C199.872 169.531 199.915 169.45 199.955 169.368C207.077 156.199 211.484 141.728 212.914 126.815L214.509 110.369C214.683 110.073 214.85 109.777 215.016 109.485L216.002 107.732L215.614 105.761ZM35.1063 133.287C34.8844 133.296 34.6645 133.3 34.4447 133.3C32.7806 133.27 31.1217 133.107 29.4835 132.813C29.018 132.737 28.5647 132.654 28.1236 132.565L32.209 130.243L36.4295 130.437C38.1887 130.52 39.9903 130.563 41.7822 130.563C43.3061 130.563 44.7914 130.534 46.1744 130.476C47.2199 130.437 48.273 130.383 49.3243 130.313C45.4684 132.101 40.7908 133.072 35.1063 133.287Z" fill="white"/>
<path d="M125.97 111.857C131.981 96.684 132.248 79.8287 126.718 64.4724C125.035 62.7155 123.256 61.0529 121.391 59.4922C118.035 58.7782 114.74 57.8027 111.536 56.5746C105.754 54.3601 100.312 51.342 95.3677 47.6088C94.4688 46.9336 93.5892 46.2313 92.727 45.5135C88.918 44.7028 85.0452 44.2308 81.1535 44.103C79.0895 44.4423 77.0455 44.8382 75.0214 45.291C56.0705 49.5641 38.638 58.9343 24.5957 72.3953C19.672 77.1088 15.2046 82.2797 11.2534 87.8386L14.0812 87.6974C17.9248 85.4008 22.317 84.1919 26.7908 84.1993C27.084 84.1993 27.3695 84.1993 27.6646 84.2167C25.0631 84.8597 22.5839 85.925 20.3251 87.3704L31.4048 86.79L33.3704 86.6778C33.9973 86.3218 34.6415 85.9909 35.2993 85.693C36.6862 85.0612 38.1289 84.5605 39.6085 84.1974C41.5561 83.719 43.554 83.4773 45.5592 83.4777C47.5613 83.4754 49.5563 83.7171 51.5002 84.1974C48.8035 84.211 46.1272 84.6685 43.5782 85.5517C42.9764 85.7588 42.3823 85.9909 41.8036 86.2444L44.7259 86.0877L55.4217 85.5169L59.0867 85.3234L64.451 85.039C63.5971 85.4763 62.7555 85.9329 61.926 86.4088C61.13 86.859 60.3469 87.3279 59.5766 87.8154C58.0515 88.7777 56.5688 89.7979 55.1285 90.8762C57.4606 90.5516 59.8082 90.3514 62.1614 90.2765C59.2135 91.1211 56.3285 92.1723 53.5275 93.4224C52.3226 93.9564 51.1331 94.5285 49.959 95.1386C49.4093 95.6435 48.8653 96.1543 48.3291 96.6864C47.5691 97.4274 46.8303 98.1858 46.1051 98.9675C39.4939 106.084 34.5216 114.57 31.5398 123.825C31.4665 124.046 31.3932 124.272 31.3257 124.493C31.4916 124.4 31.6613 124.309 31.833 124.222C36.8619 121.582 42.6397 120.746 48.2076 121.852C48.1965 121.872 48.1843 121.891 48.1709 121.91C44.1454 121.984 40.1995 123.047 36.6785 125.006C38.3669 125.084 40.0656 125.124 41.7747 125.126C43.177 125.126 44.5735 125.1 45.9643 125.042C48.2044 124.96 50.4246 124.804 52.6248 124.576C53.4446 124.497 54.2625 124.402 55.0784 124.301C56.1817 124.166 57.2754 124.013 58.3575 123.839C61.0156 123.425 63.6402 122.914 66.2314 122.307C67.0814 122.108 67.9288 121.898 68.7737 121.678C68.737 121.732 68.6965 121.786 68.658 121.838C66.6519 123.113 64.9371 124.758 63.1451 126.524C62.4314 127.225 61.7061 127.945 60.9461 128.672C59.0057 130.516 56.8356 132.381 54.0503 133.989C49.743 136.504 43.964 138.404 35.2954 138.731C33.0174 138.818 30.7837 138.538 28.6021 138.189C27.5894 138.027 26.5864 137.826 25.6007 137.584C25.4194 137.543 25.2381 137.499 25.0606 137.452L25.4194 138.052C26.3158 139.496 27.3002 140.883 28.3668 142.206C28.8811 142.851 29.4206 143.484 29.9851 144.106C35.1084 147.226 40.6324 149.63 46.4041 151.251C42.9227 150.99 39.4674 150.452 36.0708 149.643C43.1996 154.942 51.84 157.797 60.7127 157.787C60.9056 157.787 61.0831 157.787 61.2683 157.787C66.2271 156.673 71.0408 154.989 75.6136 152.766C77.0835 152.054 78.5199 151.289 79.9228 150.471C79.1513 151.131 78.3546 151.779 77.5503 152.406C75.8155 153.753 74.0152 155.014 72.1493 156.19C75.8373 155.131 79.3595 153.56 82.6137 151.522C82.2398 154.409 82.0523 157.317 82.0523 160.228C82.0523 160.342 82.0523 160.455 82.0523 160.567C82.9359 158.337 84.1365 156.247 85.617 154.362C84.0474 159.377 83.0794 164.561 82.7333 169.805C83.077 172.212 83.5548 174.598 84.1645 176.951C84.3767 177.786 84.6101 178.614 84.8551 179.441C88.6472 178.286 92.3271 176.788 95.8499 174.967C106.44 169.49 115.372 161.264 121.715 151.146C124.28 147.064 126.391 142.711 128.009 138.166C126.362 132.489 123.961 127.06 120.872 122.024C122.859 118.788 124.565 115.387 125.97 111.857V111.857Z" fill="#0DA258"/>
<path d="M191.626 124.474C191.642 124.131 191.649 123.787 191.649 123.439C191.651 119.56 190.75 115.735 189.019 112.267C187.287 108.798 184.774 105.783 181.677 103.46L176.523 110.84L175.647 112.097C174.738 110.748 173.781 109.434 172.775 108.154C170.488 105.24 167.964 102.522 165.227 100.028C164.94 99.7707 164.648 99.5115 164.361 99.2541C164.137 99.0607 163.915 98.8672 163.688 98.6737C162.839 97.9385 161.965 97.2291 161.064 96.5455C154.799 91.7 147.717 88.0223 140.155 85.6875C145.923 90.2301 151.213 95.3516 155.943 100.972C156.429 101.553 156.908 102.133 157.382 102.727C157.943 103.414 158.489 104.112 159.022 104.813C160.112 106.232 161.164 107.675 162.177 109.143C165.53 113.998 168.477 119.124 170.989 124.466C174.568 124.933 178.201 124.217 181.337 122.425C182.111 121.981 182.848 121.475 183.542 120.914C184.605 123.732 185.147 126.721 185.143 129.735C185.143 130.509 185.106 131.282 185.039 132.056C185.014 132.347 184.981 132.637 184.944 132.921C184.929 133.02 184.919 133.115 184.9 133.219C184.766 134.197 184.573 135.167 184.321 136.121C184.244 136.406 184.165 136.684 184.082 136.965C184.065 137.036 184.042 137.11 184.017 137.185C184.636 137.255 189.338 137.242 190.261 137.114C193.733 136.632 197.064 135.42 200.036 133.556C203.008 131.692 205.553 129.219 207.505 126.298C206.129 140.528 201.915 154.336 195.114 166.9C195.111 166.913 195.105 166.926 195.096 166.936C194.969 167.169 194.844 167.401 194.711 167.629C194.699 167.646 194.69 167.663 194.682 167.681C192.014 172.303 187.944 175.95 183.066 178.089C182.335 178.412 180.813 178.946 180.813 178.946L179.896 179.226C179.896 179.226 177.833 179.743 176.764 179.898L179.916 171.212L179.929 171.176L179.889 171.162C176.711 164.838 172.918 158.844 168.564 153.269C168.281 152.905 167.995 152.542 167.706 152.182C166.649 150.86 165.559 149.565 164.438 148.299L164.133 148.27C161.055 145.332 156.967 143.697 152.718 143.704C152.556 143.704 152.392 143.704 152.232 143.704L152.207 143.68C151.821 143.68 151.451 143.663 151.075 143.651C147.681 143.528 144.301 143.145 140.965 142.504C140.173 142.352 139.383 142.185 138.596 142.003C129.661 139.936 121.252 136.026 113.906 130.52C113.997 129.822 114.099 129.127 114.236 128.438C113.576 128.713 112.915 128.98 112.244 129.234C106.475 124.625 101.509 119.089 97.5472 112.85C94.6102 108.231 92.2581 103.263 90.5452 98.0604C90.5452 98.0604 90.5452 98.0488 90.5452 98.0449C90.7265 97.7005 90.9136 97.3581 91.1104 97.0175C90.8018 96.9943 90.4951 96.9769 90.1864 96.9595C90.0456 96.5126 89.9145 96.0656 89.7852 95.6052C89.7293 95.4117 89.6753 95.2279 89.6251 95.0344C90.5587 94.8448 91.5052 94.6861 92.4645 94.5584C91.8241 94.5256 91.1779 94.512 90.5356 94.512C90.1845 94.512 89.8373 94.512 89.4901 94.5217C89.1738 93.3608 88.8883 92.1787 88.6375 90.9907C88.4562 90.1381 88.2942 89.281 88.1514 88.4194L88.923 88.0847C89.1795 87.9725 89.438 87.8661 89.6946 87.7616C90.2096 87.5449 90.7265 87.3379 91.2473 87.1366C91.4402 87.0612 91.6177 86.9877 91.8067 86.9199C94.5657 85.8725 97.3931 85.016 100.269 84.3564C102.283 83.8959 104.33 83.5283 106.411 83.2535C104.756 82.4177 103.077 81.6258 101.376 80.8776C97.1758 79.0203 92.8587 77.4414 88.4523 76.151C88.2826 76.0987 88.1129 76.0523 87.9431 76.002C92.4746 76.1499 96.979 76.7632 101.386 77.8323L100.848 77.6253C100.745 77.5846 100.645 77.5498 100.543 77.5131C100.246 77.4008 99.9448 77.2906 99.6439 77.1861C97.877 76.5528 96.0767 75.9956 94.2429 75.5144C93.9247 75.4312 93.6045 75.3519 93.2785 75.2707C92.9525 75.1894 92.6632 75.1217 92.3526 75.0501L91.7739 74.9185C91.1181 74.7734 90.4565 74.6361 89.7891 74.5122C89.5403 74.4619 89.2895 74.4174 89.0368 74.3749C88.7841 74.3323 88.5083 74.2801 88.2421 74.2356L87.6056 74.1369C87.4898 74.1156 87.3741 74.0982 87.2622 74.0827C87.4161 70.6172 87.8411 67.1691 88.5334 63.7703C88.7533 62.6869 89.0002 61.6111 89.2721 60.5509C89.6367 59.1153 90.0437 57.7068 90.5105 56.3118C90.605 56.0177 90.7034 55.7314 90.8075 55.4315C90.8905 55.1857 90.9773 54.9342 91.068 54.6866C95.4477 53.7869 99.9068 53.3332 104.377 53.3322C101.221 51.6731 98.2054 49.7584 95.3598 47.6072C95.0492 47.3712 94.7368 47.1351 94.4281 46.8914C96.0463 43.7248 97.9143 40.693 100.014 37.825C111.62 31.5715 124.817 28.9222 137.928 30.2142C151.039 31.5062 163.471 36.681 173.641 45.0804C173.847 45.2507 174.05 45.4248 174.256 45.5951C174.463 45.7653 174.661 45.9414 174.86 46.1155C191.572 60.4366 203.478 79.575 208.958 100.926C209.454 102.861 209.896 104.82 210.283 106.804C209.536 108.129 208.74 109.425 207.904 110.694C203.438 117.456 197.783 123.348 191.217 128.082C191.441 126.893 191.578 125.689 191.626 124.48V124.474Z" fill="#045742"/>
<path d="M109.418 44.3066C109.422 47.8835 108.272 51.3657 106.139 54.232C106.023 54.3893 105.903 54.5441 105.78 54.6963C104.229 56.6471 102.26 58.2221 100.018 59.3041C97.7766 60.3861 95.3206 60.9471 92.8331 60.9456C91.637 60.9445 90.4446 60.8148 89.2761 60.5587C87.1404 60.0903 85.1189 59.2005 83.3293 57.9409C85.6915 57.2641 88.0897 56.7209 90.5126 56.3138C90.6071 56.0197 90.7055 55.7333 90.8096 55.4335C90.3891 55.2883 89.9648 55.151 89.5423 55.0194C90.0496 54.9033 90.5589 54.7911 91.07 54.6886C95.4498 53.7889 99.9089 53.3352 104.38 53.3342C101.223 51.6751 98.2075 49.7604 95.3619 47.6092C95.0513 47.3732 94.7388 47.1371 94.4302 46.8934C93.8515 46.4419 93.2819 45.9821 92.7212 45.5139C88.9122 44.7032 85.0394 44.2312 81.1477 44.1034C79.0838 44.4426 77.0398 44.8386 75.0157 45.2914C70.365 46.3366 65.7896 47.694 61.3204 49.3544C58.4733 50.4108 55.6841 51.5852 52.9527 52.8776C50.1844 53.4494 47.3652 53.7372 44.5388 53.7367C43.0665 53.7359 41.5953 53.6578 40.1312 53.5025C35.7282 53.0375 31.4291 51.8615 27.4004 50.02C36.168 49.9079 44.6713 46.9934 51.6739 41.7004C51.6739 41.741 51.6739 41.7836 51.6739 41.8242C59.8216 35.404 69.3602 30.9953 79.5197 28.9541C80.569 28.7426 81.6299 28.5568 82.7024 28.3969C85.844 27.9285 89.0147 27.6848 92.1907 27.6675H92.6112C92.9295 27.6675 93.2459 27.6675 93.5641 27.6675C97.8351 27.8575 101.868 29.694 104.822 32.7941C107.776 35.8942 109.422 40.0184 109.418 44.3066V44.3066Z" fill="#045742"/>
<path d="M105.836 53.3497C105.836 53.5897 105.821 53.8257 105.809 54.0656C105.809 54.2746 105.795 54.4816 105.784 54.6925C105.784 54.9692 105.759 55.2458 105.745 55.5206C105.606 58.326 105.359 61.0992 105.003 63.8401C104.954 64.2271 104.904 64.5985 104.85 64.9758C104.235 69.3816 103.346 73.7446 102.188 78.0394C102.177 78.0723 102.169 78.1091 102.159 78.142C101.909 79.0616 101.648 79.9761 101.376 80.8855C97.1761 79.0282 92.8589 77.4492 88.4526 76.1588C88.2828 76.1066 88.1131 76.0602 87.9433 76.0098C92.4748 76.1577 96.9792 76.771 101.386 77.8402L100.848 77.6331C100.746 77.5925 100.645 77.5577 100.543 77.5209C100.246 77.4087 99.9451 77.2984 99.6441 77.1939C97.8773 76.5606 96.0769 76.0034 94.2432 75.5223C93.9249 75.4391 93.6047 75.3598 93.2787 75.2785C92.9527 75.1972 92.6634 75.1295 92.3528 75.0579L91.7742 74.9264C91.1183 74.7813 90.4567 74.6439 89.7893 74.5201C89.5405 74.4736 89.2897 74.4253 89.037 74.3827C88.7843 74.3401 88.5085 74.2879 88.2423 74.2434L87.6058 74.1447C87.49 74.1234 87.3743 74.106 87.2624 74.0906C84.0056 73.6055 80.7175 73.363 77.425 73.365C77.0913 73.365 76.7614 73.365 76.4277 73.365C70.5151 72.3488 64.528 71.8311 58.5293 71.8172C60.389 70.0292 62.3494 68.3496 64.4009 66.7868C72.2491 61.4461 81.1537 57.8666 90.5069 56.2925C91.1344 56.1868 91.7632 56.09 92.3933 56.0023C91.8687 55.7953 91.3402 55.598 90.8039 55.4122C90.3834 55.2671 89.9591 55.1297 89.5366 54.9982C90.0439 54.8821 90.5532 54.7699 91.0643 54.6673C95.4441 53.7677 99.9032 53.314 104.374 53.313H104.426C104.904 53.3343 105.371 53.3381 105.836 53.3497Z" fill="#045742"/>
<path d="M146.934 132.085C145.516 132.381 144.116 132.755 142.74 133.204C141.24 145.88 136.127 157.852 128.015 167.687C127.041 168.871 126.026 170.019 124.969 171.131C126.01 169.623 126.945 168.045 127.77 166.408C127.936 166.085 128.096 165.758 128.252 165.427C127.031 166.95 125.7 168.38 124.271 169.707C124.251 169.727 124.229 169.746 124.205 169.761C121.668 171.892 118.883 173.707 115.911 175.167C115.317 175.32 114.717 175.461 114.111 175.585C111.438 176.149 108.716 176.444 105.985 176.465C108.178 175.353 110.099 173.766 111.608 171.819C113.116 169.872 114.176 167.614 114.709 165.207C114.763 164.948 114.817 164.686 114.858 164.421C114.858 164.421 114.858 164.421 114.858 164.406C115.559 160.968 116.696 157.635 118.243 154.488C116.875 149.106 116.185 143.572 116.189 138.017C116.189 137.021 116.21 136.034 116.254 135.05C115.279 137.277 114.504 139.587 113.939 141.953C113.405 138.159 113.394 134.309 113.907 130.512C113.997 129.814 114.1 129.119 114.236 128.431C113.577 128.705 112.915 128.972 112.244 129.226C105.838 131.673 99.0904 133.104 92.2449 133.465C94.3357 132.571 96.2939 131.393 98.0644 129.963C94.874 130.902 91.6244 131.694 88.3157 132.339C86.4472 132.707 84.5588 133.023 82.6505 133.287C81.5934 133.191 80.5422 133.072 79.4967 132.927C76.2093 132.472 72.9608 131.769 69.7788 130.824C70.6481 130.376 71.4981 129.9 72.3288 129.396C75.9176 128.067 79.1533 125.928 81.7851 123.143C84.417 120.358 86.3743 117.003 87.5055 113.337C88.7522 110.996 89.7709 108.54 90.5474 106.003C90.6748 105.593 90.7943 105.182 90.9062 104.766C91.047 104.256 91.1782 103.735 91.292 103.219C90.4105 104.122 89.5676 105.066 88.7748 106.051C88.713 106.121 88.659 106.19 88.5992 106.262C87.8727 107.165 87.1847 108.103 86.5353 109.075C86.7417 108.086 86.9809 107.109 87.2606 106.15C87.5904 104.989 87.9704 103.853 88.3928 102.743C89.0074 101.136 89.7238 99.5711 90.5378 98.0566C90.5378 98.0566 90.5378 98.045 90.5378 98.0411C90.7191 97.6967 90.9062 97.3543 91.103 97.0138C90.7943 96.9905 90.4877 96.9731 90.179 96.9557L90.0151 96.9441C89.5849 96.9151 89.1548 96.8938 88.7188 96.8745C88.0997 96.8416 87.4766 96.8164 86.8536 96.7951C85.7811 96.7622 84.7067 96.7448 83.6226 96.7448C84.5472 96.403 85.4879 96.0954 86.4446 95.8219C87.4837 95.5201 88.5414 95.2621 89.6177 95.048C90.5513 94.8584 91.4978 94.6998 92.4571 94.5721C91.8167 94.5392 91.1705 94.5256 90.5282 94.5256C90.1771 94.5256 89.8299 94.5256 89.4827 94.5353C88.2906 94.5688 87.1133 94.6501 85.9508 94.7791C82.7181 95.1321 79.5387 95.8699 76.4799 96.977C75.5694 97.035 74.6641 97.1053 73.7639 97.1879C76.7915 94.7592 80.0258 92.602 83.4297 90.7412C84.9652 89.9054 86.5372 89.1315 88.1459 88.4195L88.9175 88.0848C89.1741 87.9725 89.4325 87.8661 89.6891 87.7617C90.2041 87.545 90.721 87.3379 91.2419 87.1367C91.4347 87.0613 91.6122 86.9877 91.8012 86.92C94.5621 85.8723 97.3914 85.0158 100.269 84.3564C100.012 85.1304 99.7426 85.8998 99.461 86.6646C98.9543 88.0731 98.4155 89.4681 97.8445 90.8496C98.895 91.6701 99.8763 92.576 100.778 93.5582C102.368 93.3757 103.968 93.284 105.568 93.2835C112.771 93.2798 119.851 95.1599 126.109 98.7384C132.367 102.317 137.587 107.47 141.253 113.69C141.718 114.463 142.152 115.266 142.565 116.079C145.084 121.064 146.57 126.509 146.934 132.085V132.085Z" fill="#045742"/>
<path d="M126.967 26.9185L127.16 26.9514C131.268 27.6976 135.296 28.8339 139.189 30.3449C136.621 30.0472 134.037 29.898 131.452 29.898C130.21 29.898 128.976 29.9322 127.75 30.0006C126.525 30.0689 125.319 30.1695 124.134 30.3024C119.823 30.7734 115.569 31.671 111.434 32.9821L111.981 35.8049L111.671 35.743L106.552 34.7446L106.447 34.7891C106.431 34.7634 106.413 34.7388 106.393 34.7156H106.382V34.704C104.209 31.6174 101.052 29.3654 97.4316 28.3192C100.9 27.3508 104.441 26.6675 108.019 26.2761C108.662 26.2039 109.314 26.1394 109.975 26.0826H110.103C111.804 25.9537 113.524 25.8892 115.263 25.8892C115.733 25.8892 116.202 25.8892 116.669 25.9046L126.967 26.9185Z" fill="#0DA258"/>
<path d="M167.576 17.0705C164.943 19.3125 161.87 20.9761 158.557 21.9539C158.779 22.6052 158.892 23.2892 158.89 23.9777C158.89 25.65 158.228 27.2538 157.049 28.4363C155.87 29.6188 154.271 30.2831 152.604 30.2831C150.937 30.2831 149.338 29.6188 148.159 28.4363C146.98 27.2538 146.318 25.65 146.318 23.9777C146.319 23.4666 146.383 22.9577 146.511 22.4628C146.864 21.0256 147.712 19.7596 148.905 18.8873C146.942 17.3885 145.039 15.8187 143.195 14.1781C141.073 12.2974 139.027 10.3349 137.055 8.29053C135.383 10.0305 133.656 11.7073 131.872 13.3209C130.062 14.972 128.197 16.5585 126.278 18.0805C127.383 19.037 128.119 20.3502 128.362 21.7933C128.423 22.1407 128.454 22.493 128.452 22.8459C128.45 24.3171 127.934 25.7412 126.995 26.8714C126.056 28.0016 124.752 28.7668 123.31 29.0346C121.868 29.3023 120.377 29.0557 119.097 28.3375C117.817 27.6193 116.827 26.4747 116.3 25.1018C116.023 24.3822 115.882 23.6172 115.883 22.8459C115.884 22.012 116.048 21.1864 116.366 20.4158C113.284 19.2545 110.464 17.4884 108.071 15.2209L110.407 28.5147L112.975 43.1107C119.902 44.4945 126.948 45.1892 134.011 45.1848C143.178 45.1921 152.308 44.0217 161.178 41.7022L161.022 41.6577L164.446 28.8475L167.576 17.0705Z" fill="#045742"/>
<path d="M133.917 58.314C133.917 58.314 132.634 73.9644 149.082 67.688L133.917 58.314Z" fill="white"/>
</g>
<defs>
<clipPath id="clip0_319_107">
<rect width="216" height="187" fill="white"/>
</clipPath>
</defs>
</svg>
