<svg width="50" height="54" viewBox="0 0 50 54" fill="none" xmlns="http://www.w3.org/2000/svg">
<path d="M3.95269 30.1791C3.98361 30.4979 4.24421 31.2038 4.72099 31.9708C5.19138 32.7436 5.84839 33.5941 6.55376 34.3814C7.97512 35.9828 9.54783 37.3539 10.2375 37.9593C10.3224 38.0348 10.5985 38.2631 11.0161 38.597C11.5959 39.0606 12.1776 39.5219 12.7611 39.9809C16.2784 42.7582 22.0974 47.4936 24.9913 49.8555C27.8486 47.524 33.6783 42.7787 37.2232 39.9798C37.9695 39.3917 38.5462 38.9347 38.9672 38.5971C39.3845 38.2632 39.6606 38.0348 39.7458 37.9593C40.4353 37.3539 42.0078 35.9827 43.4349 34.3748C44.1349 33.5941 44.7918 32.7436 45.2619 31.9708C45.7387 31.2038 45.9995 30.4979 46.0301 30.1791L46.0307 30.1734L46.0328 30.1601C46.0683 29.9041 46.0859 29.6667 46.088 29.4215C46.0875 29.4007 46.0874 29.3799 46.0876 29.3592C46.0858 28.6604 45.9456 27.8329 45.506 26.5825C45.067 25.3334 44.3273 23.6951 43.2173 21.5055C42.6468 20.3777 42.4076 19.1849 42.4088 18.062C42.4092 18.062 42.4094 18.0595 42.4095 18.0548H42.4092L42.4095 18.0271C42.4095 18.0195 42.4095 18.0108 42.4098 18.0008C42.4408 15.6594 43.3794 13.6542 44.4685 12.1237C44.7282 11.7627 45.0086 11.4172 45.3083 11.0888L39.218 3.50696H10.7646L4.67481 11.0888C4.97558 11.4186 5.25703 11.7656 5.51777 12.1279C6.61192 13.6659 7.55705 15.6899 7.57421 18.0548L7.54274 18.7691C7.46142 19.6775 7.21717 20.6122 6.76436 21.5078C5.65563 23.6951 4.91579 25.333 4.47688 26.5821C4.03538 27.8374 3.89588 28.667 3.8952 29.367V29.3866C3.89561 29.6442 3.91318 29.892 3.95051 30.1601L3.94942 30.1524L3.95269 30.1791Z" fill="#1A181A"/>
<path d="M48.2002 30.4626C47.9887 32.0789 46.603 34.1167 45.0657 35.8344C43.532 37.5611 41.8818 38.9952 41.1908 39.603C40.8971 39.861 40.0752 40.5182 38.5782 41.6984C34.357 45.0311 26.8179 51.1879 25.0654 52.6206L24.9917 52.6812C24.9472 52.6444 24.8989 52.6052 24.8469 52.563C22.855 50.9343 15.5194 44.9467 11.4052 41.6984C9.90814 40.5182 9.08643 39.861 8.7926 39.603C8.10167 38.9952 6.45131 37.5611 4.91783 35.8344C3.38041 34.1167 1.99446 32.0789 1.78331 30.4626C1.73288 30.1062 1.70743 29.7468 1.70716 29.3869C1.70185 27.3562 2.54821 24.9906 4.81253 20.5193C5.21494 19.7217 5.38631 18.8814 5.38604 18.0598C5.38195 16.3197 4.64648 14.6684 3.73949 13.403C3.28314 12.7698 2.78156 12.2328 2.28176 11.8275C2.06448 11.6544 1.84993 11.5033 1.63415 11.3805L9.71593 1.31933H40.2675L48.3493 11.3806C48.1334 11.5035 47.9189 11.6545 47.7015 11.8277C47.2017 12.2328 46.7003 12.7699 46.2439 13.4031C45.3369 14.6686 44.6015 16.3197 44.5975 18.0599C44.5971 18.8815 44.7684 19.7219 45.1709 20.5195C47.4354 24.9908 48.2816 27.3563 48.2761 29.387C48.2761 29.7484 48.2505 30.102 48.2001 30.4628L48.2002 30.4626ZM45.756 17.9037C45.7424 16.4417 46.4477 14.9062 47.2931 13.7775L47.2922 13.7768C47.2922 13.7768 48.4167 12.185 49.9834 11.4201L49.7505 11.1193L40.8225 0H9.16068L0.23308 11.1193L0 11.4201C1.56672 12.185 2.69125 13.7768 2.69125 13.7768L2.69016 13.7775C3.53557 14.9062 4.24107 16.4417 4.22731 17.9037C4.22704 18.5675 4.09272 19.2176 3.77845 19.8403C1.50705 24.3396 0.554024 26.8514 0.548575 29.2306C0.548575 29.647 0.578953 30.0565 0.636031 30.467C0.94022 32.5436 2.46321 34.645 4.05158 36.4474C5.64391 38.2408 7.33622 39.7079 8.02783 40.3165C8.37521 40.6209 9.18356 41.2652 10.6873 42.4519C15.4619 46.2213 24.9917 54 24.9917 54C24.9977 53.9955 34.5216 46.2213 39.2959 42.4519C40.7997 41.2653 41.6084 40.621 41.9556 40.3165C42.6471 39.7079 44.3395 38.2408 45.9317 36.4474C47.5201 34.6448 49.0431 32.5436 49.3474 30.467C49.4043 30.0565 49.4347 29.647 49.4347 29.2306C49.4294 26.8514 48.4764 24.3396 46.2048 19.8403C45.8907 19.2176 45.7562 18.5675 45.756 17.9037Z" fill="white"/>
<path fill-rule="evenodd" clip-rule="evenodd" d="M12.7611 39.9809C12.0136 39.3917 11.437 38.9347 11.016 38.5971C10.8343 38.452 10.6815 38.3278 10.5575 38.2263L41.9169 6.86694L45.3083 11.0888C45.0086 11.4172 44.7281 11.7627 44.4685 12.1237C43.3794 13.6542 42.4408 15.6594 42.4098 18.0008C42.4095 18.0108 42.4095 18.0195 42.4095 18.0271L42.4092 18.0548H42.4095C42.4094 18.0582 42.4093 18.0605 42.4091 18.0614C42.409 18.0618 42.4089 18.062 42.4088 18.062C42.4076 19.1849 42.6468 20.3777 43.2173 21.5055C44.3272 23.6951 45.0669 25.3334 45.506 26.5826C45.9456 27.833 46.0858 28.6604 46.0875 29.3592C46.0873 29.38 46.0875 29.4007 46.0879 29.4215C46.0859 29.6667 46.0683 29.9041 46.0328 30.1601L46.0307 30.1734L46.03 30.1791C45.9995 30.4979 45.7387 31.2038 45.2619 31.9708C44.7918 32.7436 44.1349 33.5942 43.4348 34.3749C42.042 35.9441 40.5107 37.288 39.7969 37.9144L39.7458 37.9593C39.6606 38.0348 39.3845 38.2632 38.9672 38.5971C38.5462 38.9347 37.9695 39.3917 37.2231 39.9798C33.6783 42.7787 27.8486 47.524 24.9913 49.8555C22.0973 47.4937 16.2784 42.7582 12.7611 39.9809ZM37.3009 38.2086L37.6397 36.8835L37.4395 36.7914C36.7464 37.4532 35.6378 37.9466 34.6826 37.9466C32.3113 37.9466 31.0176 36.0982 31.0176 33.4646C31.0176 31.2009 32.0492 28.7521 34.6055 28.7521C35.6067 28.7521 36.5924 29.3372 37.1621 30.1685H37.3779C37.4235 29.969 37.4648 29.7716 37.5059 29.5756C37.5758 29.2421 37.6449 28.9125 37.7324 28.5827C36.8394 28.09 35.6067 27.828 34.5906 27.828C31.2331 27.828 28.4612 29.6602 28.4612 33.6802C28.4612 36.8376 30.9562 38.8706 34.2512 38.8706C35.2831 38.8706 36.3768 38.6851 37.3009 38.2086Z" fill="white"/>
<path fill-rule="evenodd" clip-rule="evenodd" d="M10.7646 3.50696H39.218L41.9172 6.86693L10.5575 38.2263C10.4495 38.1391 10.3428 38.05 10.2377 37.9593L10.1894 37.917C9.47647 37.2916 7.9429 35.9465 6.55376 34.3814C5.84839 33.5941 5.19138 32.7436 4.72099 31.9708C4.24421 31.2038 3.98361 30.4979 3.95269 30.1791L3.95037 30.1601L3.95021 30.1589C3.91313 29.8912 3.89561 29.6438 3.8952 29.3866V29.367C3.89588 28.667 4.03538 27.8374 4.47688 26.5823C4.91607 25.3328 5.65577 23.6951 6.76436 21.5079C7.21703 20.6122 7.46142 19.6775 7.54261 18.7691L7.57421 18.0548C7.55705 15.6899 6.6122 13.6659 5.51777 12.1279C5.25709 11.7655 4.97564 11.4186 4.67481 11.0888L10.7646 3.50696ZM15.808 18.2287C15.915 18.2383 16.022 18.2479 16.129 18.2564L16.1288 12.7044H17.8899C18.4272 12.7044 18.9646 12.7585 19.5192 12.8143C19.657 12.8282 19.7958 12.8422 19.936 12.8555C19.9284 12.8022 19.9199 12.7481 19.9113 12.6936C19.8822 12.5075 19.8521 12.3159 19.8521 12.1344C19.8521 11.9529 19.8822 11.7609 19.9114 11.5748C19.92 11.5204 19.9284 11.4665 19.936 11.4135C19.2316 11.4969 18.5607 11.5639 17.9068 11.5639H16.1288V7.95822C17.8899 7.95822 18.9803 8.07551 20.0036 8.19307C19.9963 8.14275 19.9882 8.09166 19.9801 8.04015C19.9504 7.85114 19.9198 7.65632 19.9198 7.47176C19.9198 7.28692 19.9504 7.09241 19.9801 6.90355C19.9882 6.8519 19.9962 6.80067 20.0036 6.75018H13.6125V18.2564C13.7195 18.2479 13.8265 18.2383 13.9336 18.2287C14.246 18.2006 14.5583 18.1726 14.8702 18.1726C15.1828 18.1726 15.4954 18.2006 15.808 18.2287Z" fill="white"/>
<path fill-rule="evenodd" clip-rule="evenodd" d="M14.1038 43.006L46.8888 10.2213H46.8887L39.2887 2.62164L6.50403 35.4061L14.1038 43.006ZM8.34935 35.9074C8.30485 35.944 8.26032 35.9807 8.21609 36.0177L11.3567 39.1639C11.6641 39.4711 12.0384 39.7733 12.4174 39.9957C13.6835 40.7337 14.9133 40.0911 15.7799 39.2266C16.2518 38.7545 16.6378 38.1528 16.7241 37.4669C16.9078 36.2121 16.1599 35.4277 15.3369 34.5646C15.3082 34.5345 15.2794 34.5043 15.2506 34.474L12.5111 31.7294C12.4314 31.8392 12.3433 31.9427 12.2477 32.039C12.1517 32.1346 12.048 32.2222 11.9376 32.3008L14.2706 34.6375L14.2782 34.6451C14.6592 35.0269 15.5267 35.8963 15.7349 36.3605C16.1533 37.2824 16.0576 37.9014 15.3914 38.5667C15.0761 38.881 14.7041 39.0514 14.2447 39.049C13.7179 39.0373 13.4219 38.8546 12.9803 38.5422C12.5825 38.2529 12.072 37.7377 11.6678 37.3297C11.6003 37.2617 11.5359 37.1966 11.4754 37.1361L9.28954 34.9456C9.24925 34.9934 9.20941 35.0417 9.16958 35.09C9.04782 35.2375 8.92604 35.3851 8.79096 35.5199C8.65247 35.6577 8.50102 35.7824 8.34935 35.9074ZM20.8334 33.955C20.8812 33.9158 20.929 33.8767 20.9764 33.837L16.2426 29.0972C16.6697 28.6704 17.1354 28.3095 17.6018 27.9482L17.6318 27.9249C17.6019 27.902 17.5716 27.8796 17.5411 27.857C17.4471 27.7875 17.3518 27.7169 17.2642 27.6297C17.1863 27.5509 17.1194 27.4608 17.0527 27.3707C17.0278 27.337 17.0028 27.3033 16.9772 27.2702L13.2907 30.9508C13.3207 30.9736 13.3511 30.996 13.3815 31.0183C13.4755 31.0875 13.5694 31.1565 13.6501 31.2379C13.7373 31.3252 13.8075 31.4201 13.8768 31.5139C13.8997 31.5448 13.9224 31.5756 13.9457 31.606C14.2635 31.1809 14.6605 30.6773 15.1693 30.1685L19.9026 34.9099C19.9406 34.8644 19.9783 34.8186 20.016 34.7726C20.1394 34.6222 20.2631 34.4715 20.3999 34.3337C20.5361 34.1989 20.6848 34.077 20.8334 33.955ZM21.2391 25.7698C22.0325 26.5635 22.045 27.3209 21.216 27.9941L19.1542 25.928C19.1892 25.893 19.2245 25.857 19.2601 25.8207C19.6686 25.4038 20.1259 24.9369 20.8193 25.4207C21.0091 25.5535 21.1321 25.6625 21.2391 25.7698ZM19.1895 25.0616L17.6641 26.5839L22.9445 31.8721C22.9828 31.8265 23.0207 31.7804 23.0586 31.7343C23.1821 31.5841 23.3057 31.4338 23.4424 31.2978C23.581 31.159 23.7326 31.0346 23.8842 30.9103C23.9289 30.8736 23.9737 30.8369 24.0181 30.7998L21.5473 28.3257L21.5974 28.2757C21.7824 28.3313 21.9849 28.3902 22.1812 28.4473C22.4626 28.5292 22.7311 28.6073 22.9167 28.6666L25.3847 29.4349C25.4302 29.3823 25.4753 29.3294 25.5204 29.2765C25.6726 29.0979 25.8248 28.9193 25.9906 28.7534C26.1629 28.5815 26.3444 28.4275 26.5246 28.2746C26.5769 28.2303 26.629 28.186 26.6808 28.1415L25.9247 27.9425C25.6762 27.88 25.4275 27.8185 25.1787 27.7571C24.2804 27.5351 23.3818 27.3131 22.4949 27.0422C23.0061 26.2218 22.9799 25.2939 22.2254 24.5386C21.7026 24.0147 21.1419 23.8814 20.5033 24.0576C20.0679 24.1787 19.6026 24.6465 19.2692 24.9817C19.2417 25.0093 19.2151 25.036 19.1895 25.0616ZM24.8532 19.5617C24.8309 19.5317 24.8088 19.502 24.7867 19.4731L22.0589 22.196L27.2999 27.4451L30.0282 24.7225C30.001 24.7017 29.9731 24.6809 29.945 24.6599C29.8465 24.5864 29.7452 24.5107 29.6604 24.4267C29.5773 24.3432 29.502 24.2413 29.429 24.1425C29.4082 24.1145 29.3876 24.0866 29.3671 24.0595C28.9907 24.5572 28.5421 25.0811 27.8207 25.8185L25.8645 23.8601L26.6091 23.1167C26.9317 22.7961 27.2552 22.5334 27.5597 22.3073C27.5348 22.2884 27.5094 22.2695 27.4838 22.2505C27.3824 22.1751 27.2782 22.0976 27.1921 22.0117C27.11 21.9292 27.0348 21.8281 26.962 21.7302C26.9404 21.7012 26.919 21.6724 26.8978 21.6445C26.6705 21.9475 26.4083 22.2716 26.0864 22.5931L25.3417 23.3366L23.6865 21.6785C24.4012 20.9347 24.9499 20.5105 25.4485 20.1359C25.4189 20.1131 25.3884 20.0904 25.3577 20.0674C25.2615 19.9957 25.1629 19.9221 25.0815 19.8405C24.9992 19.7581 24.9252 19.6585 24.8532 19.5617ZM34.4243 19.9488L33.9194 19.1283L33.7808 19.1749C33.7889 19.8285 33.5199 20.5896 33.0769 21.0325C31.974 22.1332 30.4487 21.808 29.1329 20.4905C28.0006 19.3569 27.257 17.6521 28.4443 16.4664C28.9095 16.0017 29.6608 15.837 30.341 15.9887L30.4416 15.8889C30.3604 15.7633 30.2779 15.6407 30.1958 15.5189C30.0648 15.3243 29.935 15.1316 29.8139 14.931C29.1521 15.0991 28.4485 15.5397 27.9756 16.011C26.4155 17.5691 26.0428 19.7728 28.0523 21.7842C29.6299 23.3644 31.8058 23.2246 33.3378 21.6956C33.817 21.2168 34.2322 20.617 34.4243 19.9488ZM30.6119 13.6809C30.5644 13.7199 30.517 13.7588 30.4701 13.7982L35.7508 19.0868C35.7869 19.0436 35.8226 19.0001 35.8584 18.9566C35.9838 18.804 36.1095 18.6511 36.2478 18.5118C36.386 18.3741 36.5374 18.2501 36.6892 18.1258C36.7342 18.089 36.7793 18.0521 36.824 18.0149L34.245 15.432C34.3365 15.3327 34.4274 15.2329 34.5182 15.1331C34.7748 14.8511 35.0312 14.5693 35.3014 14.3004C35.5684 14.0337 35.8482 13.7794 36.128 13.525C36.2305 13.4318 36.333 13.3386 36.4348 13.2448L39.0135 15.8283C39.0495 15.7853 39.0851 15.742 39.1208 15.6987C39.2466 15.5456 39.3725 15.3926 39.5121 15.2533C39.6496 15.1162 39.7999 14.9925 39.9502 14.8687C39.9959 14.8311 40.0416 14.7934 40.087 14.7554L34.8064 9.46732C34.7677 9.51351 34.7295 9.56009 34.6913 9.60666C34.5685 9.75623 34.4458 9.90573 34.3096 10.0419C34.1778 10.1733 34.0332 10.2924 33.8893 10.4108C33.8374 10.4536 33.7855 10.4963 33.7344 10.5394L35.82 12.6288C35.7275 12.729 35.6356 12.8298 35.5437 12.9306C35.2873 13.2116 35.0311 13.4924 34.7628 13.7604C34.488 14.0346 34.2004 14.2959 33.9128 14.5571C33.8181 14.6431 33.7235 14.7291 33.6293 14.8155L31.5431 12.7266C31.5022 12.7753 31.4617 12.8244 31.4213 12.8734C31.3004 13.0201 31.1797 13.1666 31.0451 13.3004C30.91 13.4361 30.7607 13.5587 30.6119 13.6809ZM43.1164 11.708C43.1614 11.671 43.2064 11.6341 43.2511 11.5968L38.5177 6.85604C38.9524 6.4209 39.4278 6.05381 39.9044 5.68573L39.9065 5.6841C39.8773 5.66178 39.8477 5.63989 39.818 5.61792C39.7236 5.54805 39.6281 5.47734 39.5398 5.38904C39.4563 5.30514 39.3854 5.20878 39.3146 5.11262C39.2941 5.08481 39.2736 5.05701 39.2529 5.02954L35.5671 8.71019C35.5996 8.73543 35.6329 8.76016 35.6662 8.78493C35.7562 8.85189 35.8468 8.91922 35.9249 8.99816C36.0124 9.08589 36.0827 9.18094 36.1521 9.275C36.1745 9.30525 36.1967 9.33539 36.2195 9.36515C36.5381 8.94013 36.9354 8.43501 37.4444 7.92771L42.1776 12.6683C42.2216 12.6164 42.2649 12.5639 42.3082 12.5113C42.4263 12.3679 42.5446 12.2244 42.6759 12.0937C42.8142 11.9561 42.9654 11.832 43.1164 11.708Z" fill="#040606"/>
</svg>
