<svg width="102" height="24" viewBox="0 0 102 24" fill="none" xmlns="http://www.w3.org/2000/svg">
<path fill-rule="evenodd" clip-rule="evenodd" d="M3.45405 0.408255C1.97166 0.704734 0.983398 1.21863 0.983398 1.67323C0.983398 2.12783 1.69495 7.87952 2.09025 10.6071C2.97969 16.932 3.41452 19.4422 3.67147 19.8375C3.82959 20.0747 4.24466 20.3316 4.60044 20.3909C5.1934 20.5095 7.18969 20.3119 8.81044 19.9759C9.3441 19.877 9.44292 19.9166 9.54175 20.3316C9.71964 21.0234 10.5102 21.3001 12.5658 21.4187C14.6807 21.5571 15.3132 21.4385 15.6294 20.8455C15.7678 20.6083 15.9655 18.7702 16.084 16.7739C16.3212 12.9197 16.4398 12.5244 17.2897 12.8604C17.5862 12.9592 17.6257 13.1568 17.5071 14.323C17.4479 15.0543 17.3293 16.8134 17.27 18.2563L17.1316 20.8455L17.6455 21.3594C18.1396 21.8535 18.2385 21.8733 20.5115 21.8733C20.5731 21.8733 20.6335 21.8733 20.6927 21.8734C22.0528 21.874 22.7857 21.8744 23.2089 21.5125C23.7033 21.0897 23.7749 20.1725 23.93 18.1834C23.9367 18.0977 23.9436 18.01 23.9506 17.9203L24.1878 14.8764L24.4447 16.26C24.7412 17.9203 25.433 18.9678 26.777 19.798C27.6665 20.3514 27.8839 20.3909 29.5244 20.3909C31.8962 20.3909 33.1612 19.9561 34.4064 18.7109L35.3354 17.7819L36.2446 18.2563C38.735 19.5213 42.0161 19.6398 44.3484 18.5528C45.9889 17.7819 46.2261 17.3668 45.89 15.7856C45.6726 14.7183 45.6726 14.659 46.147 14.1649C46.4237 13.8882 46.6411 13.5126 46.6411 13.3545C46.6609 12.7418 46.9969 13.7103 47.4317 15.6077C47.9852 17.9796 48.3409 18.5132 49.4478 18.5132C50.8511 18.5132 53.7764 17.7226 54.2507 17.2087L54.6658 16.7541L54.903 17.6436C55.2192 18.8097 56.4447 20.134 57.769 20.6874C59.8245 21.5966 63.0067 21.4187 64.1531 20.3514C64.6473 19.8968 64.667 19.8177 64.588 18.0982C64.4694 15.7461 64.1334 15.252 62.651 15.252H61.6232L61.7418 14.5602C61.8011 14.1846 61.9394 13.5324 62.058 13.1371C62.2557 12.4651 62.315 12.4255 62.9079 12.5046C63.1228 12.5404 63.3881 12.5762 63.6212 12.6077C63.774 12.6283 63.913 12.6471 64.0148 12.6627C64.4298 12.7022 64.5484 12.8801 64.7263 13.6905C66.0506 19.4224 73.2649 21.4187 77.5342 17.2285C78.4632 16.2995 79.4514 14.5206 79.4514 13.7893C79.4514 13.1173 79.7281 13.315 80.1037 14.2439L80.4595 15.1334L79.4119 16.6355C77.5144 19.3829 77.2773 19.7782 77.2773 20.1933C77.2773 20.6479 80.0246 23.3162 80.8745 23.672C82.0209 24.1463 82.3372 23.8498 85.2031 19.7782C85.8751 18.8097 87.1599 16.7146 88.0493 15.1136C89.6108 12.3069 89.6701 12.2081 89.9072 12.7022C90.1049 13.1568 90.0654 13.2952 89.5712 13.9277C88.5632 15.2322 88.1086 16.1414 88.0889 16.8727C88.0691 17.4657 88.1877 17.7028 88.8399 18.2563C91.1525 20.2526 95.2043 21.2211 97.6948 20.3712C100.64 19.3631 102.162 15.1136 100.383 12.8208C100.03 12.3703 100.047 12.3469 100.663 11.4612L100.679 11.4373C102.241 9.24332 102.359 8.41318 101.253 7.44468C99.2562 5.68558 95.145 4.77638 92.8918 5.56699C92.853 5.58091 92.8157 5.59431 92.7798 5.60719C92.2455 5.79914 92.0359 5.87446 91.9542 5.80317C91.9015 5.75712 91.9021 5.64991 91.9032 5.47344C91.9034 5.4469 91.9035 5.4188 91.9035 5.3891C91.9035 4.65778 91.1327 4.20318 88.9388 3.59046L86.9425 3.03703L86.4088 3.43234C86.0333 3.70905 85.6577 4.4206 85.1438 5.7844C84.709 6.99008 84.3927 7.62257 84.3137 7.44468C84.2346 7.2668 83.8986 6.25877 83.5428 5.17168C82.6929 2.52314 82.5546 2.46384 79.827 3.07656C78.7201 3.31375 77.6528 3.62999 77.4551 3.74858C76.9808 4.04506 76.6448 4.83567 76.8029 5.31004C76.8622 5.52746 76.8424 5.66581 76.7634 5.62628C76.6645 5.58675 76.0518 5.29027 75.3996 4.97403C74.3125 4.44037 74.0358 4.38107 72.1383 4.38107C70.3001 4.38107 69.9246 4.44037 68.9166 4.91473C68.3038 5.21121 67.3156 5.88323 66.7424 6.43666C65.9715 7.16797 65.6355 7.36562 65.4181 7.22727C65.26 7.12844 64.7856 6.95055 64.3706 6.83196C63.7776 6.67384 63.6392 6.55525 63.7381 6.2983C63.7974 6.12041 63.916 5.54722 63.9752 5.01356C64.1729 3.43234 63.4416 2.9975 60.2396 2.76032C58.6189 2.64173 58.52 2.66149 58.0457 3.13586C57.769 3.41257 57.4922 3.98577 57.4132 4.44037C57.2946 5.19145 57.2155 5.27051 56.7214 5.27051C56.2075 5.27051 56.168 5.21121 56.0494 4.06483C55.9308 3.07657 55.7924 2.72079 55.3181 2.24642C54.7646 1.71276 54.646 1.67323 53.7566 1.79182C53.2032 1.87088 52.3533 2.10807 51.8394 2.34525C51.2267 2.6022 50.5349 2.74055 49.9024 2.72079C48.5386 2.66149 46.3249 3.39281 45.5936 4.10436C45.1192 4.59849 45.0204 4.81591 45.1192 5.36933L45.2378 6.04135L44.3286 5.46816C41.4231 3.61023 37.6677 3.80788 35.2761 5.903C34.7424 6.3576 34.1693 7.00985 33.9716 7.32609L33.6158 7.91905L33.4775 7.04938C33.26 5.76464 32.6869 5.27051 31.3626 5.27051H30.2755L30.1371 4.16365C29.979 2.91844 29.3861 2.10807 28.6152 2.10807C28.3583 2.10807 27.3305 2.28595 26.3027 2.50337C23.9704 2.97774 23.6146 3.27422 23.6146 4.77638C23.6146 5.7844 23.5751 5.86347 23.0809 5.98206C22.488 6.10065 21.9346 6.73314 21.9346 7.28656C21.9346 7.74116 21.9148 7.74116 21.0056 7.2075C20.2545 6.7529 19.543 6.69361 16.4991 6.8122C16.0643 6.83196 14.6807 6.79243 13.4355 6.7529C11.4194 6.65408 11.0834 6.69361 10.5498 7.02961C9.95682 7.38539 9.91729 7.46445 9.77893 9.26309L9.62081 11.1013L9.26504 8.72943C8.17795 1.19887 8.05936 0.625673 7.50593 0.329194C7.0118 0.0722462 4.93645 0.111777 3.45405 0.408255ZM6.69556 1.693C6.89321 2.06854 8.19771 10.6862 8.79067 15.7263C9.04762 17.8017 9.06738 18.3946 8.86973 18.5132C8.61278 18.6911 6.00377 19.1062 5.25269 19.1062C5.22999 19.1062 5.20825 19.1065 5.18737 19.1069C5.10433 19.1082 5.03503 19.1093 4.97396 19.0874C4.6659 18.9771 4.5671 18.2824 3.96997 14.0831C3.93784 13.8571 3.90426 13.621 3.86912 13.3743C2.90063 6.79243 2.3472 2.28595 2.46579 2.10807C2.56462 1.96971 4.10631 1.67323 5.82588 1.45581C6.16189 1.41628 6.43861 1.35699 6.45837 1.33722C6.47814 1.33722 6.59673 1.47558 6.69556 1.693ZM54.5472 3.61023C54.6658 3.88694 54.7449 4.81591 54.7449 5.68558V7.24703H53.7368C52.8869 7.24703 52.6498 7.34586 52.1556 7.82022C51.3848 8.59107 51.4045 9.04567 52.4521 13.0185C53.1637 15.7461 53.2625 16.339 53.0253 16.4181C52.037 16.8134 49.2106 17.2878 49.2106 17.0704C49.2106 17.0614 49.137 16.7578 49.0176 16.2658L49.0172 16.264C48.8742 15.6746 48.6658 14.8154 48.4398 13.8684C47.6689 10.7257 46.7795 6.91102 46.5423 5.74487C46.4632 5.34957 46.5225 5.07286 46.6807 4.9345C47.0167 4.65778 48.756 4.12412 49.4873 4.04506C50.021 3.98577 50.1 4.06483 50.2779 4.71708L50.4953 5.4484L50.9499 4.75661C51.2464 4.32178 51.7801 3.88694 52.4323 3.5707C53.7764 2.95797 54.31 2.95797 54.5472 3.61023ZM28.7536 4.12412C28.8129 4.4799 28.8722 5.21121 28.8919 5.74487L28.9512 6.71337L30.4534 6.67384C32.173 6.61454 32.2125 6.65408 32.2125 8.5713V9.5991L31.0859 9.71769C30.4534 9.77698 29.8011 9.85604 29.643 9.87581C29.4058 9.91534 29.3465 10.2909 29.4058 12.0895C29.4256 13.2952 29.5639 14.5009 29.6825 14.8171C29.979 15.5682 30.6708 15.7066 31.7579 15.1729L32.6276 14.7578L33.1217 15.8449C33.7344 17.189 33.6751 17.6831 32.8252 18.2563C31.9555 18.8492 30.987 19.1062 29.643 19.1062C27.7258 19.0864 26.3224 18.1377 25.9074 16.5565C25.7493 16.003 25.2947 11.2989 25.2947 10.3502C25.2947 10.2711 24.9191 10.2118 24.4645 10.2514C23.6739 10.3106 23.6146 10.2711 23.496 9.71769C23.417 9.38168 23.3577 8.70966 23.3379 8.19576L23.3181 7.2668L24.168 7.2075L24.9982 7.14821L24.9389 5.70534C24.8796 4.32178 24.8993 4.28225 25.4132 4.08459C25.9074 3.88694 27.5677 3.5707 28.299 3.5114C28.5362 3.49163 28.6745 3.68929 28.7536 4.12412ZM61.6232 4.26248C62.0778 4.36131 62.5324 4.4799 62.5917 4.55896C62.6707 4.61825 62.5719 5.3298 62.394 6.12041C62.1964 6.89126 62.058 7.60281 62.058 7.6621C62.058 7.74116 62.4336 7.83999 62.9079 7.89929C64.3508 8.09694 64.8251 8.35389 64.8251 8.92708C64.8251 9.57933 64.4298 11.1803 64.252 11.2989C64.1729 11.3384 63.5009 11.2594 62.7498 11.1013C61.9987 10.9431 61.3267 10.8838 61.2476 10.9629C61.0302 11.1803 60.2791 14.7183 60.2791 15.4694C60.2791 16.3786 60.9116 16.7936 62.058 16.6158C63.1056 16.4379 63.2439 16.6355 63.2439 18.2365C63.2439 19.3434 63.2044 19.462 62.7103 19.6794C61.979 20.0154 59.7652 19.9759 58.7572 19.6201C56.9388 18.9876 56.1284 17.9203 56.1284 16.2007C56.1284 15.6868 56.4249 14.066 56.7807 12.6232L57.4527 9.97464L56.9388 9.79675C56.8395 9.76128 56.73 9.72071 56.624 9.68145L56.6239 9.68142C56.4347 9.61131 56.2567 9.54537 56.168 9.52004C55.8913 9.42121 55.9308 9.06544 56.3656 7.36562L56.5435 6.59478L57.4132 6.71337C58.2631 6.83196 58.2829 6.83196 58.4014 6.19947L58.4208 6.10437C58.6795 4.83362 58.7755 4.3623 59.0561 4.18752C59.2216 4.08448 59.4512 4.08452 59.8163 4.08459L59.8443 4.08459C60.3582 4.10436 61.1488 4.18342 61.6232 4.26248ZM82.5941 6.59478C83.0487 7.99811 83.6417 9.55957 83.8986 10.113L84.3532 11.1013L85.1438 9.42121C85.5787 8.49224 86.1716 7.00985 86.4681 6.10065C86.8832 4.81591 87.0808 4.4799 87.3378 4.55896C87.5308 4.61428 87.7124 4.66618 87.8831 4.71499C89.927 5.29919 90.4202 5.44019 90.4872 5.69381C90.5086 5.77449 90.4867 5.86656 90.458 5.98793C90.4524 6.01121 90.4467 6.03556 90.4409 6.06112C90.0456 8.05741 87.7331 13.1371 85.6577 16.5565C84.4916 18.5132 81.6849 22.4663 81.4873 22.4663C81.3884 22.4663 80.5781 21.814 78.7794 20.2723C78.6806 20.1933 79.0561 19.5213 79.5898 18.7702C80.1432 18.0389 80.9141 16.932 81.3094 16.3193L82.0407 15.2124L81.3291 13.651C79.9456 10.6467 77.9295 5.15192 78.1469 4.9345C78.2458 4.83567 81.0129 4.14389 81.4477 4.10436C81.6651 4.08459 81.9814 4.75661 82.5941 6.59478ZM42.8067 6.15994C44.0321 6.77267 45.0994 7.91905 45.4157 9.00614C45.6726 9.81651 45.6924 11.7733 45.475 12.5836C45.2971 13.2557 44.803 13.2754 41.008 12.722C39.2687 12.4651 37.7665 12.3069 37.6875 12.386C37.4108 12.6232 38.0235 14.0265 38.5967 14.4416C39.328 14.995 41.3638 15.1136 42.6683 14.6788C43.2217 14.5009 43.7159 14.3625 43.7752 14.3625C43.9728 14.3625 44.6646 16.003 44.6646 16.4972C44.6646 17.189 43.202 17.7621 41.1661 17.8807C38.1816 18.0389 35.6714 16.8332 34.525 14.6788C34.1495 13.987 34.0902 13.5521 34.0902 11.8919C34.11 10.1525 34.1693 9.79675 34.6239 8.92708C35.454 7.36562 36.5806 6.33783 38.1421 5.7844C39.407 5.3298 41.4429 5.48793 42.8067 6.15994ZM74.9647 6.25877C76.1111 6.83196 77.1784 7.95858 77.7516 9.20379C78.0876 9.93511 78.1667 10.4885 78.1667 11.9907C78.1667 13.6905 78.1074 13.9672 77.5935 14.9159C76.9412 16.1019 75.9925 16.932 74.5694 17.5843C73.1463 18.2365 70.6361 18.197 69.2526 17.4854C67.3551 16.4972 66.1099 14.6392 65.8925 12.4255C65.596 9.57933 67.197 6.99008 69.9444 5.94253C71.1105 5.50769 73.8183 5.66581 74.9647 6.25877ZM98.9004 7.62257C100.067 8.176 100.6 8.55154 100.6 8.78872C100.6 9.12473 99.3155 11.2001 99.0981 11.2001C99.0388 11.2001 98.6237 10.9431 98.1691 10.6269C96.5088 9.50027 94.6707 9.36191 94.6707 10.3699C94.6707 10.9036 95.1846 11.2989 96.4891 11.793C99.1772 12.8011 100.185 14.2242 99.6318 16.26C99.0981 18.2365 97.675 19.3038 95.5601 19.3038C93.6429 19.3038 91.5873 18.5923 89.9863 17.3866C89.6451 17.1384 89.4824 17.0201 89.4501 16.8731C89.4206 16.7391 89.4995 16.5813 89.6503 16.2798C89.8282 15.924 90.184 15.3508 90.4607 15.0148L90.935 14.3625L91.9628 15.1334C92.536 15.5682 93.2476 16.003 93.5441 16.1216C94.3347 16.4181 95.3625 16.3983 95.6589 16.0426C96.1135 15.4891 95.6787 15.0148 93.7812 14.0858C91.785 13.0975 91.2315 12.5836 90.8955 11.3582C90.7374 10.7652 90.7572 10.3502 90.9943 9.5398C91.6466 7.32609 92.8325 6.59478 95.5008 6.71337C97.003 6.79243 97.3983 6.89126 98.9004 7.62257ZM14.2854 7.95858C14.9772 8.07717 15.0167 8.13647 15.0167 8.78872V9.4805L15.4713 9.06544C16.5189 8.07717 18.7721 7.7214 20.1952 8.31436C21.0649 8.6899 22.2113 9.93511 22.5473 10.9234C23.0217 12.2674 22.6856 20.1537 22.1322 20.4897C21.895 20.6479 18.7524 20.5293 18.5942 20.3712C18.5547 20.3316 18.614 18.6713 18.7326 16.6948C18.9302 13.394 18.9302 13.0185 18.614 12.386C18.1989 11.5163 17.1711 11.2001 16.2026 11.5954C15.076 12.0698 14.9377 12.5046 14.7202 16.4181L14.5226 19.9956H12.803C11.8543 19.9956 10.9846 19.8968 10.8858 19.798C10.7079 19.6003 10.9253 11.3977 11.1823 9.0852C11.2811 8.07717 11.3009 8.05741 12.0124 7.97835C13.3367 7.83999 13.5343 7.83999 14.2854 7.95858ZM54.5868 9.22356C54.5275 9.67816 54.646 9.93511 55.1402 10.4292L55.7727 11.0617L55.2588 13.1568C54.9821 14.3032 54.7251 15.4298 54.7053 15.6473C54.6263 16.0623 52.966 9.93511 52.966 9.28285C52.966 8.72943 53.1241 8.6306 53.9543 8.6306C54.646 8.6306 54.6658 8.65036 54.5868 9.22356ZM32.6078 12.1883C32.6078 13.315 32.5485 13.5719 32.3113 13.5719C32.1334 13.5719 31.7381 13.7103 31.4416 13.8684L30.8882 14.1451L30.7499 12.7615C30.6708 11.9907 30.651 11.3187 30.6906 11.2791C30.7301 11.2198 31.1649 11.121 31.6393 11.0222C31.7871 10.9914 31.9292 10.9625 32.0559 10.9368L32.0559 10.9368C32.3359 10.8799 32.5411 10.8381 32.5683 10.8245C32.588 10.8048 32.6078 11.4175 32.6078 12.1883ZM39.1896 8.51201C38.6362 8.76896 37.7863 9.91534 37.984 10.1328C38.0432 10.1921 41.8777 10.8048 42.1939 10.8048C42.2532 10.8048 42.2928 10.5478 42.2928 10.2118C42.2928 8.84802 40.5534 7.89929 39.1896 8.51201ZM70.2211 13.6905C69.2921 12.5244 69.5095 10.4886 70.6164 9.81654C71.4663 9.28287 72.9091 9.28287 73.5812 9.81654C74.2334 10.3304 74.5892 11.4175 74.4508 12.5244C74.2136 14.6788 71.5651 15.4101 70.2211 13.6905ZM72.5534 13.1173C72.9487 12.8999 73.0277 12.722 73.0277 12.0105C73.0277 11.3582 72.9289 11.0815 72.6324 10.9036C71.6837 10.3107 70.6164 11.3978 71.1105 12.4651C71.4268 13.1569 71.9604 13.394 72.5534 13.1173Z" fill="white"/>
</svg>
