<svg width="96" height="50" viewBox="0 0 96 50" fill="none" xmlns="http://www.w3.org/2000/svg">
<path fill-rule="evenodd" clip-rule="evenodd" d="M18.5687 0.66951C18.8384 0.782349 19.0835 0.948197 19.2899 1.15751L34.718 16.9025V47.2535C34.718 48.4925 33.7217 49.5 32.4957 49.5H2.94034C1.71535 49.5 0.718018 48.4925 0.718018 47.2535V16.902L16.1427 1.16201C16.5655 0.733511 17.1243 0.500011 17.718 0.500011C18.0098 0.499067 18.2989 0.556671 18.5687 0.66951ZM67.6505 24.3848H62.4863C62.788 22.8969 63.6979 22.0823 65.0651 22.0823C66.4427 22.0823 67.3946 22.9374 67.6505 24.3848ZM65.1195 20.2714C62.4777 20.2714 60.6303 22.3196 60.6303 25.253C60.6303 28.2589 62.4118 30.293 65.0622 30.3119H65.1195C67.5951 30.3119 68.5289 29.0989 68.6568 28.9087C68.753 28.8096 68.8223 28.6881 68.8583 28.5556C69.0129 28.0602 68.8201 27.612 68.3818 27.467C68.0849 27.3653 67.7956 27.4265 67.4834 27.6647C67.4729 27.676 66.4848 28.484 65.1558 28.484L65.0698 28.4821C63.674 28.4482 62.7622 27.6374 62.4825 26.1975H68.6157C68.7351 26.1963 68.853 26.1719 68.9628 26.1256C69.0725 26.0793 69.172 26.0121 69.2553 25.9279C69.3387 25.8436 69.4044 25.744 69.4487 25.6346C69.4929 25.5253 69.5148 25.4084 69.5132 25.2907C69.5132 22.3808 67.6667 20.2714 65.1195 20.2714ZM57.5197 24.3848H52.3546C52.6601 22.8969 53.569 22.0823 54.9362 22.0823C56.3129 22.0823 57.2667 22.9374 57.5197 24.3848ZM54.9916 20.2714C52.3469 20.2714 50.5024 22.3196 50.5024 25.253C50.5024 28.2589 52.2811 30.293 54.9324 30.3119H54.9916C57.4644 30.3119 58.3981 29.0989 58.527 28.9087C58.6219 28.8088 58.6908 28.6876 58.7275 28.5556C58.8821 28.0602 58.6864 27.612 58.2539 27.467C57.9513 27.3653 57.6658 27.4265 57.3536 27.6647C57.3421 27.676 56.354 28.484 55.0259 28.484L54.94 28.4821C53.5451 28.4482 52.6324 27.6374 52.3527 26.1975H58.4869C58.6062 26.1962 58.7242 26.1717 58.8339 26.1254C58.9437 26.079 59.0431 26.0119 59.1265 25.9277C59.2099 25.8434 59.2757 25.7439 59.3201 25.6346C59.3645 25.5253 59.3867 25.4084 59.3853 25.2907C59.3853 22.3808 57.5379 20.2714 54.9916 20.2714ZM71.0589 22.4307C71.036 22.3592 71.0093 22.3384 70.9835 22.3215V22.3205C70.6809 22.1501 70.5014 21.8412 70.5014 21.4815C70.5014 20.9532 70.9272 20.5247 71.4456 20.5247C71.902 20.5247 72.281 20.8571 72.5359 21.2404C73.2663 20.5803 74.2172 20.2187 75.2522 20.2187C77.6973 20.2187 79.4034 22.1623 79.4034 24.946V29.2157C79.4034 29.7431 78.989 30.1706 78.4801 30.1706C77.9512 30.1706 77.5369 29.7487 77.5369 29.2157V24.946C77.5369 23.6474 76.9373 22.1303 75.2522 22.1303C74.5695 22.1303 74.0272 22.3705 73.5957 22.8649C73.1794 23.3545 72.9503 24.0957 72.9503 24.946V29.2166C72.9503 29.7497 72.5436 30.1715 72.0251 30.1715C71.5058 30.1715 71.1019 29.7497 71.1019 29.2166V22.6812C71.1019 22.6492 71.0876 22.5202 71.0589 22.4307ZM43 19.0547V29.3174L43.0019 29.3165C43.0019 29.8241 43.4058 30.2384 43.9003 30.2384H49.2383C49.7529 30.2384 50.1377 29.6913 50.1377 29.1865C50.1377 28.7034 49.7472 28.1535 49.2383 28.1535H45.025V19.0547C45.025 18.5368 44.6326 18 44.0244 18C43.3437 18 43 18.5226 43 19.0547ZM95.5115 35.4733C95.7341 35.6008 95.8976 35.8089 95.9672 36.0534C96.034 36.2926 95.9978 36.5591 95.867 36.7833C95.8057 36.8899 95.7233 36.9834 95.6247 37.0581C95.5262 37.1328 95.4134 37.1873 95.2932 37.2183C94.4597 37.4283 93.4505 38.0065 93.1001 39.001V44.1323C93.1001 44.6644 92.68 45.0797 92.1454 45.0797C92.0189 45.0811 91.8934 45.0575 91.7763 45.0104C91.6592 44.9633 91.5528 44.8935 91.4634 44.8052C91.374 44.717 91.3034 44.612 91.2558 44.4964C91.2081 44.3809 91.1843 44.2571 91.1859 44.1323V37.66C91.1859 37.628 91.1706 37.5037 91.1419 37.4151C91.1209 37.352 91.098 37.3285 91.0617 37.3059C90.9072 37.2267 90.7782 37.1066 90.6892 36.959C90.6001 36.8115 90.5546 36.6423 90.5576 36.4706C90.5576 35.948 90.994 35.5242 91.5334 35.5242C92.0194 35.5242 92.4843 35.9159 92.7478 36.3717C93.3426 35.9037 94.0348 35.559 94.7747 35.3707C95.0245 35.309 95.2888 35.3459 95.5115 35.4733ZM79.6201 36.8473L76.7788 39.7939L80.3113 43.4703C80.4717 43.637 80.5644 43.8781 80.5644 44.1323C80.5644 44.654 80.1471 45.0797 79.6411 45.0797C79.3776 45.0797 79.1361 44.9704 78.9766 44.7821L75.4851 41.1509L74.6316 42.0257V44.1323C74.6316 44.654 74.2182 45.0797 73.7083 45.0797C73.1804 45.0797 72.7689 44.6644 72.7689 44.1323V33.9487C72.7668 33.7004 72.8645 33.4614 73.0405 33.2839C73.2165 33.1064 73.4566 33.0048 73.7083 33.0014C74.2086 33.0014 74.6316 33.4374 74.6316 33.9487V39.3212L78.2959 35.5063C78.3805 35.4185 78.482 35.3482 78.5945 35.2993C78.7069 35.2505 78.828 35.2242 78.9508 35.2219C79.4607 35.2219 79.8741 35.6551 79.8741 36.1881C79.8741 36.4405 79.7824 36.6853 79.6201 36.8473ZM85.3008 37.0667C83.947 37.0667 83.0457 37.8728 82.7459 39.3494H87.8624C87.6075 37.9142 86.6642 37.0667 85.3008 37.0667ZM80.9081 40.2092C80.9081 37.3012 82.7364 35.2718 85.3524 35.2718C87.8767 35.2718 89.7079 37.3633 89.7079 40.2459C89.7102 40.4813 89.6177 40.7079 89.4506 40.876C89.2836 41.0441 89.0558 41.1399 88.8171 41.1424H82.7421C83.019 42.5681 83.9241 43.3705 85.3056 43.4063H85.3896C86.7119 43.4063 87.6858 42.6077 87.6953 42.5964C88.0047 42.36 88.2911 42.2998 88.5871 42.3977C89.0186 42.5446 89.2095 42.9872 89.0568 43.4797C89.0207 43.6106 88.9529 43.7308 88.8592 43.83C88.7303 44.0165 87.8051 45.2181 85.3552 45.2181H85.2989C82.6734 45.1983 80.9081 43.1831 80.9081 40.2092ZM70.5596 36.8473L67.7145 39.7939L71.247 43.4703C71.4074 43.637 71.4991 43.8781 71.4991 44.1323C71.4991 44.654 71.0847 45.0797 70.5777 45.0797C70.3142 45.0797 70.0717 44.9704 69.9132 44.7821L66.4227 41.1509L65.5663 42.0257V44.1323C65.5663 44.654 65.1538 45.0797 64.645 45.0797C64.5197 45.0797 64.3956 45.0551 64.2801 45.0073C64.1646 44.9594 64.0599 44.8894 63.9721 44.8012C63.8844 44.7129 63.8154 44.6084 63.7691 44.4935C63.7228 44.3787 63.7002 44.2559 63.7026 44.1323V33.9487C63.7006 33.6999 63.7987 33.4605 63.9753 33.2829C64.1519 33.1054 64.3928 33.0041 64.645 33.0014C65.1453 33.0014 65.5673 33.4374 65.5673 33.9487V39.3212L69.2335 35.5063C69.3179 35.4187 69.419 35.3484 69.5311 35.2996C69.6432 35.2508 69.764 35.2244 69.8865 35.2219C70.3944 35.2219 70.8078 35.6551 70.8078 36.1881C70.8078 36.4405 70.7181 36.6853 70.5596 36.8473ZM43.7495 47.5234H95.2493C95.4478 47.5234 95.6382 47.6012 95.7785 47.7396C95.9189 47.8781 95.9978 48.0659 95.9978 48.2617C95.9978 48.4575 95.9189 48.6453 95.7785 48.7838C95.6382 48.9222 95.4478 49 95.2493 49H43.7495C43.5575 48.9904 43.3766 48.9085 43.2441 48.7711C43.1117 48.6337 43.0378 48.4513 43.0378 48.2617C43.0378 48.0721 43.1117 47.8898 43.2441 47.7523C43.3766 47.6149 43.5575 47.533 43.7495 47.5234ZM54.5906 40.2478C54.5906 42.2225 55.6274 43.4505 57.2963 43.4505C58.9633 43.4505 60.0001 42.2225 60.0001 40.2478C60.0001 38.258 58.9633 37.0206 57.2963 37.0206C55.6274 37.0206 54.5906 38.258 54.5906 40.2478ZM61.7788 42.9806C61.7788 43.0786 61.8323 43.2603 61.8991 43.3008C62.197 43.4647 62.3832 43.7848 62.3832 44.1521C62.3842 44.3967 62.2869 44.6318 62.1126 44.8058C61.9384 44.9798 61.7013 45.0786 61.4533 45.0806C60.8537 45.0806 60.4393 44.5834 60.2178 44.186C59.4416 44.8847 58.4172 45.269 57.2963 45.269C54.645 45.269 52.7928 43.2038 52.7928 40.2468C52.7928 37.3342 54.6555 35.2219 57.2199 35.2219C58.3045 35.2219 59.2344 35.5204 59.9887 36.1118C60.0559 35.9399 60.1739 35.7918 60.3275 35.6869C60.481 35.5819 60.663 35.5249 60.8499 35.5233C61.3626 35.5233 61.7788 35.948 61.7788 36.4706V42.9806ZM44.9782 43.3535H47.9188C49.0998 43.3535 49.8331 42.6548 49.8331 41.5294C49.8331 40.406 49.0998 39.7091 47.9188 39.7091H44.9782V43.3535ZM47.915 34.8085H44.9591H44.9582L44.9735 37.9124H47.9141C48.9729 37.9124 49.5562 37.3605 49.5562 36.3595C49.5562 35.3594 48.9729 34.8085 47.915 34.8085ZM51.4667 36.3567C51.4667 37.2861 51.143 38.0894 50.51 38.7514C51.2891 39.3824 51.7178 40.3843 51.7178 41.586C51.7178 43.6473 50.1596 45.1465 48.0134 45.1465H43.97C43.4363 45.1465 43.0019 44.6992 43.0019 44.153V34.1116C43.0019 33.572 43.3437 32.9919 44.0932 32.9919H48.0134C50.0145 32.9919 51.4667 34.4073 51.4667 36.3567Z" fill="white"/>
</svg>
