<svg width="80" height="42" viewBox="0 0 80 42" fill="none" xmlns="http://www.w3.org/2000/svg">
<path fill-rule="evenodd" clip-rule="evenodd" d="M10.1392 14.4536C3.05033 22.7783 -3.63632 33.8543 2.26998 38.9553C7.94291 43.8544 15.0213 41.0221 19.8954 39.0718L20.0246 39.0201C24.9022 37.0693 78.8163 13.6567 78.8163 13.6567C79.3361 13.3966 79.2388 13.0713 78.5883 13.2342C78.4776 13.2618 68.0316 16.0914 55.9831 19.3559L56.5813 17.6885H50.663L52.6078 12.4859H57.4852L58.9863 8.48669H54.1077L55.781 3.96677H60.9185L62.2817 0.389652H46.8033L41.4882 6.8282L43.9415 0.389652H38.8037L30.8201 21.8512H35.8928L39.3011 12.8763L39.5349 21.8512L46.8324 21.8353C33.0043 25.5823 19.8946 29.1352 19.8946 29.1352C12.4804 31.2162 4.02584 26.6797 10.1392 14.4536ZM18.7234 21.8512H24.1864L32.2352 0.389652H27.1623L23.5477 10.0149L24.1709 0.389652H18.773L10.7244 21.8512H15.797L19.3445 12.3561L18.7234 21.8512ZM32.8938 0.389652L24.845 21.8512H29.9179L37.9665 0.389652H32.8938ZM63.4796 1.40692C63.4796 1.8502 63.8125 2.178 64.2608 2.178C64.7037 2.178 65.0416 1.84216 65.0416 1.40692C65.0416 0.969135 64.7062 0.633713 64.2608 0.633713C63.8099 0.633713 63.4796 0.963634 63.4796 1.40692ZM63.1382 1.40692C63.1382 0.764839 63.6314 0.324097 64.2608 0.324097C64.8898 0.324097 65.383 0.764839 65.383 1.40692C65.383 2.04688 64.8872 2.48719 64.2608 2.48719C63.634 2.48719 63.1382 2.04942 63.1382 1.40692ZM64.2634 1.29439H64.0959V1.02411H64.2371C64.3238 1.02411 64.4228 1.03469 64.4228 1.1472C64.4228 1.26817 64.3657 1.29439 64.2634 1.29439ZM64.452 1.48304C64.6098 1.475 64.7329 1.39421 64.7329 1.17638C64.7329 0.895946 64.5493 0.82489 64.2418 0.82489H63.8015V1.98892H64.0959V1.49361H64.1453L64.4131 1.98892H64.7511L64.452 1.48304ZM44.2422 9.23409L44.567 20.4204L51.912 0.813473L44.2422 9.23409Z" fill="white"/>
</svg>
