<svg width="76" height="50" viewBox="0 0 76 50" fill="none" xmlns="http://www.w3.org/2000/svg">
<path fill-rule="evenodd" clip-rule="evenodd" d="M75.0158 3.93256C75.0158 2.38762 73.7517 1.12357 72.2068 1.12357H4.22925C2.68431 1.12357 1.42026 2.38762 1.42026 3.93256V46.0674C1.42026 47.6123 2.68431 48.8764 4.22925 48.8764H72.2068C73.7517 48.8764 75.0158 47.6123 75.0158 46.0674V3.93256ZM4.22925 0.421326H72.2068C74.1028 0.421326 75.718 1.96627 75.718 3.93256V46.0674C75.718 48.0337 74.1731 49.5786 72.2068 49.5786H4.22925C2.26296 49.5786 0.718018 48.0337 0.718018 46.0674V3.93256C0.718018 1.96627 2.26296 0.421326 4.22925 0.421326ZM55.5635 18.9607V23.2444V23.8062H58.3023V24.7893H54.159V18.9607H55.5635ZM60.3388 22.2612V23.8062H63.2882V24.7893H58.9343V18.9607H63.218V19.9438H60.3388V21.2781H63.0073V22.2612H60.3388ZM27.8247 19.9438H25.9287V18.9607H31.0551V19.9438H29.159V24.7893H27.8247V19.9438ZM22.4877 18.9607H24.1731L25.7882 23.2444L26.4202 24.8596H25.0158L24.5242 23.5955H21.9961L21.5045 24.8596H20.1702L20.8023 23.2444L22.4877 18.9607ZM24.1731 22.6124L23.2601 20.0843L22.3472 22.6124H24.1731ZM18.3444 23.5253V23.2444V18.9607H19.6085V24.7893H17.6422L16.8697 23.2444L15.1141 19.9438V24.7893H13.85V18.9607H15.8865L18.1337 23.2444L18.3444 23.5253ZM49.6646 18.9607H51.2798L52.895 23.2444L53.527 24.8596H52.1225L51.6309 23.5955H49.1028L48.6815 24.8596H47.3472L47.9792 23.2444L49.6646 18.9607ZM51.35 22.6124L50.4371 20.0843L49.5242 22.6124H51.35ZM31.6871 24.7893V23.2444V18.9607H33.0916V24.7893H31.6871ZM45.4511 23.5253V23.2444V18.9607H46.7152V24.7893H44.8191L43.9764 23.2444L42.291 19.9438H42.2208V24.7893H40.9568V18.9607H42.9933L45.2405 23.2444L45.4511 23.5253ZM33.9343 21.9101C33.9343 20.1545 34.9174 18.8202 37.0242 18.8202C39.1309 18.8202 40.0438 20.1545 40.1141 21.9101C40.1141 22.4017 40.0438 22.823 39.9034 23.2444H39.7629C39.4118 24.2275 38.4989 24.9298 36.954 24.9298C35.4792 24.9298 34.5663 24.2978 34.145 23.2444C34.0045 22.823 33.9343 22.4017 33.9343 21.9101ZM38.2882 23.2444H38.4287C38.5691 22.823 38.6393 22.4017 38.6393 21.9101C38.6393 20.8567 38.3584 19.7332 37.0242 19.7332C35.6899 19.7332 35.409 20.927 35.409 21.9101C35.409 22.3315 35.409 22.823 35.6197 23.2444C35.8304 23.6657 36.2517 24.0169 36.954 24.0169C37.6562 24.0169 38.0775 23.736 38.2882 23.2444ZM10.9708 18.8905H5.07194V24.7893H10.9708V18.8905ZM71.9961 18.8905H66.0972V24.7893H71.9961V18.8905ZM15.1141 43.6095V39.3258H13.3585V45.2247H18.6956V44.2416H15.1141V43.6095ZM51.9821 43.6095L51.9729 43.5637C51.838 42.8859 51.7437 42.4126 50.5074 42.2753C51.5607 42.1348 52.263 41.6432 52.263 40.8708C52.263 39.677 50.7883 39.3258 49.3838 39.3258H45.8725V45.2247H47.6281V42.8371H49.5242C50.086 42.8371 50.2265 43.2584 50.2967 43.6095C50.3669 44.1713 50.4371 44.6629 50.5776 45.1545H52.5439C52.2255 44.8362 52.1381 44.2869 52.0722 43.8731C52.0654 43.8305 52.0589 43.7893 52.0523 43.75C51.9821 43.75 51.9821 43.6798 51.9821 43.6095ZM49.1029 41.8539H47.6281V40.309H49.1029C49.8753 40.309 50.3669 40.5197 50.3669 41.0815C50.3669 41.573 49.8753 41.8539 49.1029 41.8539ZM39.763 43.6095V42.6966H43.2742V41.7135H39.763V40.309H43.5551V39.3258H37.9371V45.2247H43.6956V44.2416H39.763V43.6095ZM54.2995 43.6095V45.2247H56.1253V39.3258H54.2995V43.6095ZM61.4624 39.3258V43.1882C61.4624 43.3286 61.4624 43.3989 61.3922 43.5393C61.322 43.9607 61.1113 44.3118 60.409 44.3118C59.7531 44.3118 59.526 43.9441 59.4417 43.6095H59.4961V43.3286H57.6703C57.6703 43.3797 57.6703 43.468 57.6973 43.5393H57.6703C57.881 44.5927 58.513 45.2247 60.409 45.2247C61.8135 45.2247 62.9371 44.7331 63.1478 43.5393V39.2556H61.4624V39.3258ZM24.2433 39.1854C21.5045 39.1854 20.2405 40.5196 20.2405 42.2753C20.2405 42.7668 20.3107 43.1882 20.5214 43.6095C21.013 44.6629 22.2068 45.3652 24.2433 45.3652C26.2096 45.3652 27.4034 44.6629 27.9652 43.6798H28.1057C28.3163 43.2584 28.3866 42.8371 28.3866 42.3455C28.1759 40.5197 26.9821 39.1854 24.2433 39.1854ZM26.2096 43.6798H26.0692C25.7883 44.1713 25.2265 44.4522 24.3135 44.4522C23.3304 44.4522 22.8388 44.1011 22.5579 43.6798C22.3472 43.2584 22.277 42.7668 22.277 42.3455C22.277 41.3624 22.6281 40.1685 24.3838 40.1685C26.1394 40.1685 26.4905 41.2921 26.4905 42.3455C26.4905 42.8371 26.4203 43.2584 26.2096 43.6798ZM29.6506 40.309H32.1085V45.2247H33.8641V40.309H36.3922V39.3258H29.6506V40.309ZM71.9961 39.3258H66.0972V45.2247H71.9961V39.3258ZM10.9006 39.3258H5.00173V45.2247H10.9006V39.3258ZM7.31914 37.0084V33.5674H8.72364C10.6197 33.5674 11.8837 32.7949 11.8837 30.4073C11.8837 28.0197 10.6197 27.2472 8.72364 27.2472H5.14218V37.0084H7.31914ZM7.31914 31.6713V29.2135H8.44274C9.28543 29.2837 9.63656 29.7753 9.63656 30.4775C9.63656 31.1798 9.28543 31.6713 8.44274 31.7416H7.31914V31.6713ZM19.1871 32.2331C19.1871 33.7079 18.9062 35.3932 17.4315 35.3932C15.9568 35.3932 15.6759 33.7079 15.6759 32.2331C15.6759 30.6882 15.9568 29.0028 17.4315 29.0028C18.836 29.0028 19.1871 30.6882 19.1871 32.2331ZM17.3613 37.2893C19.9596 37.2893 21.4343 35.3932 21.4343 32.2331C21.4343 29.0028 19.9596 27.177 17.3613 27.177C14.763 27.177 13.2882 29.073 13.2882 32.2331C13.3585 35.3932 14.763 37.2893 17.3613 37.2893ZM29.4399 30.1264C29.5804 27.809 27.895 27.0365 26.2798 27.0365C24.6646 27.0365 23.0495 27.6685 22.909 29.9859C22.909 31.0393 23.3304 31.9522 24.1028 32.3736C24.7098 32.7023 25.3076 32.8763 25.8241 33.0266C26.742 33.2936 27.4034 33.4861 27.4034 34.3399C27.4034 34.9719 26.7714 35.323 26.2798 35.323C25.5073 35.323 24.9455 34.8315 24.9455 33.9185H22.7686C22.7686 36.5871 24.3837 37.2191 26.2096 37.2191C28.0354 37.2191 29.6506 36.2359 29.6506 34.1994C29.6506 31.8643 28.1987 31.465 26.9419 31.1193L26.9418 31.1193C26.7624 31.07 26.5869 31.0217 26.4203 30.9691C25.9287 30.8286 25.2264 30.618 25.2264 29.8455C25.2264 29.3539 25.6478 28.9326 26.1394 28.9326C26.4905 28.9326 26.7714 29.073 26.9821 29.2135C27.1927 29.4242 27.263 29.705 27.263 30.0562H29.4399V30.1264ZM32.6 37.0786H34.777V29.2135H37.2349V27.3174H30.2124V29.2135H32.6V37.0786ZM45.2405 30.3371C45.2405 27.8792 43.4146 27.0365 41.5186 27.0365C39.0607 27.0365 37.7967 28.8624 37.7967 32.0927C37.7967 35.3932 39.1309 37.2191 41.5186 37.2191C43.4146 37.2191 45.3107 36.3764 45.2405 33.9185H42.9933C42.9231 34.8315 42.4315 35.323 41.5186 35.323C40.3248 35.323 40.0439 33.6376 40.0439 32.2331C40.0439 30.7584 40.2545 28.9326 41.5186 28.9326C42.4315 28.9326 42.9231 29.4241 42.9933 30.3371H45.2405ZM56.0551 27.3876V37.0786H59.3557C62.0242 37.0786 63.7798 35.8146 63.7798 32.2331C63.7798 28.6517 62.0242 27.3876 59.3557 27.3876H56.0551ZM58.2321 29.2135H59.2152C60.409 29.2135 61.5326 30.1966 61.5326 32.2331C61.5326 34.2697 60.409 35.2528 59.2152 35.2528H58.2321V29.2135ZM71.7854 37.0786V35.1826H67.9933V33.1461H71.5045V31.25H67.9933V29.2135H71.7854V27.3174H65.8163V37.0786H71.7854ZM52.1225 32.1629C52.1225 33.6376 51.8416 35.323 50.3669 35.323C48.8922 35.323 48.6113 33.6376 48.6113 32.1629C48.6113 30.618 48.8922 28.9326 50.3669 28.9326C51.8416 28.9326 52.1225 30.6882 52.1225 32.1629ZM50.3669 37.2191C52.9652 37.2191 54.4399 35.323 54.4399 32.1629C54.4399 28.9326 52.9652 27.1067 50.3669 27.1067C47.7686 27.1067 46.2939 29.0028 46.2939 32.1629C46.2939 35.3932 47.7686 37.2191 50.3669 37.2191ZM19.0466 5.47756C11.3219 4.91576 4.22922 7.3034 4.22922 7.3034L9.49608 9.12924L4.159 13.2725C9.49608 11.3764 15.6056 11.4467 19.3978 11.5871C21.1827 11.6532 25.037 12.2172 28.9905 12.7957L28.9906 12.7957L28.9906 12.7957C33.4364 13.4463 38.0077 14.1152 39.9034 14.1152C42.9149 14.1152 43.3445 13.6187 43.4049 13.4607C43.4084 13.4681 43.4116 13.4756 43.4146 13.4831V13.4189C43.4148 13.4159 43.4147 13.414 43.4146 13.4133V10.9141C44.1555 11.0269 44.9298 11.1483 45.7284 11.2735C49.3935 11.8482 53.5715 12.5032 57.3894 12.7809C65.1141 13.3427 72.2068 10.955 72.2068 10.955L66.9399 9.12917L72.277 4.98592C66.9399 6.88198 60.8304 6.81176 57.0383 6.67131C55.2533 6.6052 51.399 6.04121 47.4454 5.46269C42.9997 4.81214 38.4283 4.14322 36.5326 4.14322C32.9512 4.14322 33.0214 4.84547 33.0214 4.84547V7.34432C32.2805 7.23148 31.5063 7.1101 30.7076 6.98489L30.7076 6.98488C27.0425 6.41026 22.8645 5.75522 19.0466 5.47756Z" fill="url(#paint0_linear_104_132)"/>
<defs>
<linearGradient id="paint0_linear_104_132" x1="33.0214" y1="8.50489" x2="72.2166" y2="8.50489" gradientUnits="userSpaceOnUse">
<stop stop-color="white"/>
</linearGradient>
</defs>
</svg>
