<svg width="70" height="50" viewBox="0 0 70 50" fill="none" xmlns="http://www.w3.org/2000/svg">
<path fill-rule="evenodd" clip-rule="evenodd" d="M0.149628 49.5599H69.718V45.138V37.2919V12.708V6.57392V0.440002H0.149628V12.708H0.201998V37.2919H0.149628V49.5599ZM68.8734 37.2919H34.96V12.708H68.8734V37.2919ZM68.8734 11.8634H0.994142V1.28457H68.8734V11.8634ZM68.8734 48.7154H0.994142V38.1364H68.8734V48.7154ZM34.4916 5.54355L34.3392 5.74754L34.3089 5.70889C34.2874 5.68142 34.2683 5.65716 34.2499 5.63236L33.8321 5.06981L33.8299 5.06686C33.1014 4.08592 32.373 3.10504 31.6468 2.12184C31.5838 2.03674 31.5219 1.99915 31.4196 2.00226C31.1366 2.0107 30.8534 2.0107 30.5706 2.00226C30.4582 1.99915 30.4144 2.02005 30.4151 2.15944C30.4197 2.97053 30.4192 3.78161 30.4188 4.5927L30.4186 5.29563L30.4187 6.43122C30.419 7.94578 30.4193 9.46037 30.4153 10.9751C30.4149 11.1178 30.454 11.1478 30.5756 11.1442C30.8692 11.135 31.1634 11.1324 31.4568 11.1451C31.5957 11.151 31.6322 11.1137 31.6316 10.9578C31.6272 9.16265 31.6275 7.36759 31.6278 5.57245L31.628 4.22676V4.00521C31.6481 4.03115 31.6654 4.0531 31.6806 4.07254L31.6807 4.07262L31.6808 4.07275L31.681 4.07301C31.7095 4.10927 31.7311 4.13678 31.7518 4.16514L32.5531 5.26097C33.0865 5.99051 33.6199 6.72006 34.154 7.44879C34.2765 7.61568 34.4019 7.61788 34.5175 7.45979C34.8027 7.069 35.0877 6.67806 35.3727 6.28709L35.374 6.2852L35.3762 6.28224L35.3791 6.27822L35.3797 6.27739L35.3811 6.27549L35.3915 6.26117C35.6672 5.88297 35.9429 5.50473 36.2189 5.12653C36.4001 4.87816 36.582 4.6303 36.7717 4.37191L36.7736 4.36926L37.0446 3.99989V4.15817L37.0443 5.1258L37.044 6.09343L37.0442 7.16659C37.0446 8.43626 37.0449 9.706 37.0409 10.9756C37.0407 11.1163 37.0776 11.1482 37.1997 11.1442C37.4987 11.1346 37.7982 11.1324 38.097 11.1451C38.2349 11.1506 38.2611 11.1024 38.2604 10.9611C38.2569 9.82145 38.2573 8.68186 38.2577 7.54214V7.5421V7.54206V7.54202V7.54198V7.54194V7.5419V7.54186V7.54182V7.54178V7.54174V7.5417V7.53829L38.258 6.42796C38.258 6.06027 38.2578 5.6926 38.2576 5.32493V5.32192V5.32188V5.32184V5.3218V5.32177V5.32173V5.32169V5.32166V5.32162V5.32158V5.32154V5.32151C38.2571 4.27215 38.2566 3.2229 38.2602 2.17374C38.2604 2.03693 38.2295 1.9964 38.1026 2.00171C37.8409 2.0129 37.5787 2.01382 37.3175 2.00135C37.1814 1.99511 37.0956 2.04261 37.0099 2.15889C36.5637 2.76671 36.1131 3.37075 35.6624 3.97482L35.6621 3.97532L35.2795 4.48829C35.0213 4.83487 34.7626 5.18107 34.5021 5.5296L34.4939 5.54053L34.4916 5.54355ZM51.6924 4.00079L51.3105 4.52231C51.0024 4.94284 50.7034 5.3511 50.4046 5.75963C50.2506 5.97027 50.0968 6.18109 49.9429 6.39193L49.9425 6.39257C49.6851 6.74529 49.4277 7.09809 49.1694 7.45024C49.0481 7.61567 48.9291 7.61659 48.8086 7.45244C48.2152 6.64355 47.6227 5.83417 47.0301 5.02474L46.3644 4.11542C46.3525 4.09889 46.3398 4.08307 46.3207 4.05928C46.3091 4.04479 46.2951 4.02736 46.2775 4.00501V5.16229L46.2774 6.41032C46.2773 7.93502 46.2772 9.45963 46.2808 10.9842C46.2809 11.1174 46.2476 11.1482 46.1298 11.1442C45.8259 11.135 45.5209 11.135 45.2167 11.1442C45.0984 11.1482 45.0642 11.1174 45.0648 10.9835C45.0694 9.81103 45.0691 8.63831 45.0688 7.46598L45.0686 6.81897L45.0687 6.27428C45.0687 4.9107 45.0688 3.54722 45.0646 2.18345C45.0641 2.04278 45.094 1.9951 45.2299 2.00133C45.5068 2.01381 45.7856 2.01032 46.0632 2.00225C46.1639 1.9995 46.2281 2.03398 46.2908 2.11908C46.6346 2.58352 46.9791 3.04726 47.3237 3.51099L47.3249 3.51265L47.3261 3.51431L47.3274 3.51604L47.3282 3.51708L47.3287 3.51779L47.329 3.51816L47.3292 3.51844L47.3293 3.51855L47.3293 3.51858L47.3293 3.51861L47.3293 3.51863L47.3294 3.51866L47.3294 3.51869C47.8485 4.21741 48.3676 4.91611 48.884 5.61712C48.9733 5.73817 49.0034 5.73487 49.0914 5.61548C49.549 4.99627 50.0088 4.37903 50.4686 3.76181L50.4687 3.76172L50.4696 3.76051L50.4702 3.75965L50.4706 3.75913L50.4709 3.75872L50.4711 3.75843L50.4712 3.75825L50.4714 3.75808L50.4715 3.7579L50.4716 3.75773L50.4717 3.75755L50.4719 3.75738C50.8744 3.21703 51.2769 2.67669 51.6779 2.13504C51.7541 2.03288 51.8318 1.99858 51.9479 2.00225C52.2205 2.01106 52.4934 2.01124 52.7655 2.00225C52.8796 1.9984 52.9062 2.03692 52.9062 2.15796C52.9035 4.11595 52.9037 6.07393 52.904 8.03181L52.9042 9.25438C52.9042 9.41464 52.9039 9.5749 52.9036 9.73514V9.73605V9.73609V9.73613V9.73617V9.73621V9.73625V9.73629V9.73633V9.73637V9.73641V9.73645C52.9027 10.1512 52.9019 10.5658 52.9066 10.9804C52.9078 11.1104 52.878 11.1487 52.7562 11.1445C52.4523 11.1344 52.1471 11.133 51.843 11.1451C51.7124 11.1502 51.6889 11.1034 51.6893 10.9719C51.6923 9.22218 51.6923 7.47253 51.6923 5.72299L51.6924 4.17026V4.00079ZM21.26 9.8926C22.5605 9.45206 23.3875 8.37439 23.4992 6.88919C23.594 5.59124 23.1888 4.50862 22.1988 3.74034C21.454 3.15895 20.61 2.99994 19.7141 3.13566C19.0039 3.2435 18.3795 3.56207 17.8755 4.12916C17.2686 4.8039 16.9973 5.62847 16.9931 6.55649C16.9842 7.30166 17.1608 7.99493 17.5656 8.60419C18.2201 9.59273 19.1373 10.0237 20.3001 10.0567C20.3554 10.0501 20.4186 10.044 20.4869 10.0374C20.6095 10.0255 20.7487 10.012 20.8897 9.99108C21.0146 9.97237 21.1393 9.93478 21.26 9.8926ZM22.3668 2.38591C23.5292 2.9904 24.2786 3.97436 24.6102 5.32421C24.9328 6.6548 24.7694 7.91992 24.1022 9.08691C23.4905 10.1552 22.5865 10.8065 21.4626 11.1062C21.0579 11.2144 20.6443 11.2566 20.2656 11.2611C19.1417 11.2566 18.1512 10.9424 17.303 10.1928C16.5623 9.53643 16.0629 8.69791 15.8646 7.68571C15.5075 5.85828 15.9295 4.27918 17.2298 3.02342C17.8713 2.40938 18.6421 2.07211 19.4815 1.95014C20.4807 1.80012 21.4496 1.90796 22.3668 2.38591ZM8.41654 8.05908V8.05913C8.41602 9.0286 8.41551 9.99826 8.42045 10.9677C8.42102 11.1172 8.38298 11.1496 8.25295 11.1449C7.95428 11.1335 7.65445 11.132 7.35578 11.1451C7.21872 11.1513 7.20346 11.0944 7.20383 10.9672C7.20658 9.60783 7.20654 8.24851 7.2065 6.88935L7.20654 5.6679C7.20654 5.46083 7.20615 5.25374 7.20577 5.04663V5.0466V5.04658V5.04655V5.04652V5.0465V5.04647V5.04644V5.04641V5.04639V5.04631C7.20472 4.4864 7.20368 3.92642 7.21026 3.36674C7.21214 3.20627 7.16658 3.18096 7.0326 3.18206C6.59325 3.18552 6.15393 3.18559 5.71464 3.18566C5.29391 3.18573 4.8732 3.18579 4.45249 3.18884C4.33034 3.18976 4.29903 3.15418 4.30325 3.02433C4.3125 2.73419 4.30949 2.44331 4.30441 2.15262C4.30276 2.04899 4.31565 2.00168 4.43107 2.00186C6.68514 2.0059 8.93928 2.00553 11.1937 2.00296C11.2959 2.00259 11.3333 2.02699 11.3305 2.14492C11.3234 2.44111 11.3234 2.73786 11.331 3.03405C11.3339 3.15583 11.2993 3.18921 11.1869 3.18866C10.796 3.18619 10.405 3.18616 10.0141 3.18613H10.014C9.53429 3.18609 9.05458 3.18606 8.57499 3.18151C8.43598 3.18023 8.41313 3.22516 8.41372 3.36455C8.41765 4.36069 8.41734 5.35694 8.41703 6.35313L8.41685 7.16612C8.41685 7.4636 8.4167 7.76111 8.41654 8.05863V8.05869V8.05874V8.0588V8.05885V8.05891V8.05896V8.05902V8.05908ZM58.4988 2.00559C58.3784 2.00539 58.2563 2.00519 58.1321 2.00519L58.1652 2.05467C58.1881 2.08895 58.2051 2.11442 58.223 2.13907L58.5962 2.65452C59.4488 3.83204 60.3013 5.00958 61.1558 6.18531C61.2191 6.27224 61.2464 6.3568 61.2464 6.46775C61.2451 7.11293 61.2449 7.75804 61.2447 8.40314C61.2444 9.26342 61.2441 10.1237 61.2411 10.9841C61.2406 11.1157 61.2712 11.1484 61.3904 11.1445C61.6947 11.1346 61.9995 11.1328 62.3032 11.1451C62.4369 11.1504 62.4584 11.099 62.4582 10.9688C62.4561 10.1217 62.4558 9.27462 62.4555 8.42761V8.42758V8.42755V8.42751V8.42748V8.42745V8.42742V8.42739V8.42187C62.4552 7.77132 62.455 7.1208 62.454 6.47032C62.454 6.36633 62.4745 6.28252 62.5345 6.19962C63.4102 4.99264 64.2843 3.78365 65.1583 2.57447C65.244 2.45576 65.3291 2.33624 65.4197 2.20889L65.5647 2.00537L65.2464 2.00546H65.2463C64.8743 2.00562 64.5177 2.00576 64.1613 2.0039C64.1095 2.00375 64.086 2.03728 64.062 2.07153L64.0546 2.08197L64.0501 2.08809C63.9177 2.27002 63.7855 2.45233 63.6534 2.63481C63.0807 3.42758 62.5077 4.22002 61.9286 5.02092L61.9165 5.03767L61.8915 5.07227L61.8901 5.07411L61.8675 5.10534L61.8359 5.14908L61.7497 5.02937L61.6853 4.94001L61.2451 4.32581L61.242 4.32145L61.2389 4.31709C60.7119 3.58182 60.1849 2.84646 59.6587 2.11065C59.6154 2.04994 59.5786 2.00134 59.4935 2.00262C59.1663 2.00669 58.839 2.00615 58.4989 2.00559H58.4988ZM47.2258 40.9476C46.9115 40.7599 46.6171 40.5841 46.305 40.4586C45.5625 40.159 44.8078 40.0011 44.0179 40.1371C42.874 40.3342 41.8605 41.5355 41.7131 42.8839C41.6247 43.693 41.7069 44.4643 42.0694 45.171C42.4949 46.0008 43.138 46.4718 43.9317 46.6723C44.6641 46.8569 45.3806 46.7426 46.0878 46.4915C46.3009 46.4163 46.3009 46.4144 46.3007 46.1482V46.1461C46.3006 46.0226 46.3002 45.8991 46.2998 45.7757C46.2987 45.4362 46.2975 45.097 46.3018 44.7576C46.3033 44.6439 46.2732 44.6197 46.183 44.6212C45.9892 44.6236 45.7953 44.6234 45.6015 44.6232C45.3974 44.623 45.1933 44.6227 44.9892 44.6256C44.8961 44.627 44.8684 44.5967 44.8706 44.486C44.877 44.1907 44.8753 43.8948 44.8711 43.5992C44.8698 43.5106 44.892 43.4866 44.9665 43.4869C45.739 43.4897 46.5113 43.4903 47.2838 43.4866C47.363 43.4863 47.3749 43.5207 47.3749 43.602C47.3729 44.7678 47.3729 45.9341 47.3751 47.0999C47.3755 47.1796 47.3533 47.2125 47.2913 47.2449C46.2778 47.7797 45.215 48.0159 44.1107 47.9013C42.9892 47.7848 42.0351 47.2479 41.3307 46.1821C40.8058 45.3882 40.5716 44.4739 40.5723 43.4751C40.5727 42.4388 40.8324 41.5019 41.3789 40.6832C41.9346 39.8509 42.6582 39.3233 43.528 39.0764C44.6463 38.7588 45.7245 38.9562 46.7752 39.4547C46.8146 39.4733 46.8538 39.4924 46.8931 39.5115C46.9763 39.5519 47.0595 39.5924 47.1438 39.6281C47.2086 39.6554 47.228 39.6985 47.2271 39.777C47.2248 40.0513 47.2252 40.3256 47.2256 40.6124V40.6125V40.6126V40.6127V40.6128V40.6129V40.6131V40.6145L47.2258 40.9476ZM4.68807 42.4354L4.68779 43.4116H4.68902L4.68909 44.2278V44.2279V44.2279V44.2279V44.228V44.228V44.228C4.68926 45.377 4.68942 46.5257 4.68665 47.6744C4.68643 47.7859 4.71123 47.814 4.80328 47.8118C5.08247 47.8047 5.36238 47.803 5.64192 47.8124C5.74888 47.816 5.76407 47.7684 5.76378 47.6586C5.7626 47.1777 5.76254 46.6968 5.76248 46.2159C5.76239 45.5315 5.76231 44.847 5.75899 44.1625C5.7584 44.0231 5.78434 43.9885 5.90369 43.9888C7.19755 43.9945 8.49133 43.9947 9.78496 43.9885C9.90777 43.988 9.92917 44.0296 9.9286 44.1639C9.92603 44.7909 9.92579 45.4178 9.92555 46.0448V46.0456C9.92534 46.5844 9.92514 47.1233 9.92345 47.6622C9.92323 47.7766 9.94408 47.8154 10.0468 47.812C10.3263 47.8034 10.6061 47.8047 10.8857 47.8118C10.9775 47.814 11.0042 47.7853 11.004 47.6744C11.0011 44.8398 11.0011 42.0054 11.0042 39.1712C11.0042 39.0525 10.9677 39.0369 10.8818 39.0386C10.6118 39.0439 10.3416 39.0477 10.0718 39.0371C9.95498 39.0323 9.92202 39.0668 9.92266 39.2084C9.92532 39.7824 9.92549 40.3564 9.92565 40.9306V40.9312C9.92583 41.5175 9.926 42.1038 9.92882 42.6901C9.92969 42.8343 9.89451 42.8594 9.78045 42.859C8.4866 42.854 7.19282 42.8542 5.89889 42.8585C5.79079 42.859 5.75926 42.8321 5.75978 42.6972C5.76256 42.0712 5.7625 41.4454 5.76245 40.8195C5.7624 40.2855 5.76236 39.7516 5.76407 39.2176C5.76436 39.0876 5.74945 39.0301 5.62164 39.0366C5.36145 39.0499 5.10032 39.0487 4.83981 39.0369C4.71796 39.0312 4.68364 39.0644 4.68443 39.2159C4.68899 40.2889 4.68853 41.3622 4.68807 42.4354ZM61.44 42.8512C61.2649 42.8681 61.0897 42.8674 60.9146 42.8666C60.8108 42.8661 60.707 42.8656 60.6033 42.8688C60.5158 42.8736 60.5042 42.8286 60.5042 42.7433C60.5077 42.325 60.5077 41.907 60.5077 41.4883L60.5075 41.3148L60.5073 41.19L60.5069 41.0746C60.5062 40.7988 60.5054 40.523 60.5077 40.2471C60.5077 40.2381 60.5071 40.2284 60.5064 40.2186C60.5032 40.1698 60.4997 40.1168 60.5728 40.1168C60.6649 40.1188 60.7571 40.1188 60.8495 40.1188C61.1672 40.1187 61.4862 40.1186 61.8029 40.2023C62.4753 40.3868 62.7197 40.9757 62.6279 41.7403C62.5363 42.5004 62.0397 42.8016 61.44 42.8512ZM65.1148 47.6901C64.6983 47.0204 64.301 46.3366 63.9342 45.6258C63.5524 44.8884 63.1551 44.1596 62.5134 43.6428C62.5745 43.607 62.6163 43.5842 62.6583 43.5617C63.285 43.202 63.6516 42.6262 63.7356 41.8034C63.8425 40.7781 63.4798 39.8963 62.75 39.4242C62.2996 39.1317 61.8068 39.042 61.2985 39.042C61.0523 39.04 60.8061 39.0406 60.56 39.0411C60.2333 39.0419 59.9065 39.0426 59.5797 39.0374C59.4576 39.0329 59.4271 39.0687 59.4271 39.2173C59.4296 40.9344 59.4287 42.6516 59.4279 44.37V44.3709V44.3718V44.3728V44.3737V44.3806C59.4275 45.2421 59.4271 46.1038 59.4271 46.966C59.4271 47.044 59.4279 47.122 59.4288 47.2C59.4305 47.356 59.4321 47.512 59.4271 47.6679C59.4233 47.7892 59.4576 47.8162 59.5529 47.8118C59.8277 47.803 60.1029 47.803 60.3781 47.8118C60.489 47.8162 60.5077 47.7757 60.5077 47.6544C60.5042 46.5615 60.5042 45.4686 60.5042 44.371C60.5042 44.0115 60.5076 44.0113 60.799 43.9987L60.8212 43.9978C61.2874 43.98 61.6731 44.1596 61.99 44.5647C62.0699 44.6635 62.1501 44.7671 62.2268 44.8705C62.6152 45.4257 62.939 46.0306 63.2627 46.6354L63.2628 46.6355C63.3848 46.8635 63.5069 47.0915 63.6324 47.3168C63.6584 47.3648 63.6821 47.4167 63.7058 47.4685L63.7058 47.4686C63.762 47.5917 63.8178 47.714 63.9038 47.7805C63.9926 47.848 64.1098 47.8338 64.2287 47.8193C64.2838 47.8127 64.3392 47.8059 64.3924 47.8073C64.5615 47.8102 64.7306 47.8093 64.9063 47.8083H64.9071H64.908C64.9978 47.8078 65.0894 47.8073 65.1836 47.8073C65.1608 47.7714 65.1463 47.7455 65.1336 47.7229L65.1334 47.7227C65.127 47.7113 65.1211 47.7007 65.1148 47.6901ZM51.4417 42.4495L51.4415 43.4318L51.4416 44.4864C51.4418 45.541 51.4419 46.5956 51.4408 47.6503L51.4407 47.6694C51.4401 47.7537 51.4397 47.813 51.5518 47.8127C52.9212 47.8071 54.2909 47.8083 55.6604 47.8116C55.7486 47.8119 55.7748 47.7843 55.7728 47.6821C55.7675 47.4034 55.7638 47.1241 55.7739 46.846C55.7787 46.7078 55.7491 46.6697 55.6285 46.6706C55.0885 46.674 54.5485 46.6742 54.0086 46.6744H54.0066C53.5519 46.6746 53.0973 46.6747 52.6426 46.6768C52.5443 46.6774 52.5161 46.6515 52.517 46.5324C52.5218 45.729 52.5229 44.9255 52.5165 44.122C52.5154 43.9818 52.5454 43.9495 52.6632 43.9503C53.1137 43.9534 53.5643 43.9535 54.0148 43.9537C54.4837 43.9538 54.9526 43.9539 55.4216 43.9574C55.5434 43.9582 55.5712 43.9177 55.5665 43.7813C55.5569 43.514 55.5556 43.2455 55.5666 42.9783C55.5727 42.8383 55.5285 42.8192 55.4245 42.8198C55.0006 42.8219 54.5768 42.822 54.153 42.8222C53.6621 42.8223 53.1712 42.8225 52.6804 42.8257C52.5587 42.8263 52.5143 42.8023 52.5159 42.6415C52.5244 41.8716 52.5229 41.1016 52.5165 40.3317C52.5154 40.1966 52.55 40.1701 52.6571 40.1707C53.1306 40.1732 53.6042 40.1733 54.0776 40.1735H54.08C54.5678 40.1737 55.0556 40.1739 55.5434 40.1766C55.6503 40.1771 55.6813 40.1448 55.6776 40.0197C55.6695 39.7465 55.6675 39.4728 55.6774 39.1997C55.682 39.0623 55.6428 39.0376 55.5353 39.0379C54.2173 39.042 52.9 39.0429 51.5824 39.0367C51.459 39.0361 51.4386 39.0801 51.4392 39.2135C51.4424 40.2923 51.4421 41.3709 51.4417 42.4495ZM28.3942 43.4215L28.3943 42.4845C28.3946 41.391 28.3948 40.2974 28.392 39.2039C28.3916 39.076 28.4156 39.0367 28.5303 39.0373C29.7669 39.0423 31.0038 39.0423 32.2405 39.0373C32.3531 39.0369 32.385 39.0716 32.3808 39.2033C32.3718 39.4705 32.3707 39.739 32.381 40.0062C32.3867 40.1523 32.3419 40.1774 32.2288 40.1768C31.7934 40.1739 31.3581 40.1737 30.9228 40.1736H30.921C30.4851 40.1734 30.0491 40.1733 29.6131 40.1704C29.4992 40.1694 29.461 40.1963 29.4623 40.3407C29.4693 41.0267 29.4696 41.713 29.4623 42.3991C29.4607 42.5556 29.4876 42.6052 29.6298 42.6035C30.104 42.5986 30.5783 42.5985 31.0527 42.5985C31.4455 42.5984 31.8382 42.5984 32.231 42.5956C32.3487 42.5951 32.3861 42.6303 32.3808 42.771C32.3713 43.0384 32.3724 43.3069 32.3808 43.5741C32.3845 43.6989 32.3562 43.733 32.2478 43.7324C31.8292 43.7297 31.4106 43.7295 30.9919 43.7294C30.534 43.7293 30.0759 43.7291 29.6178 43.7256C29.4931 43.7244 29.4614 43.7589 29.4623 43.908C29.4652 44.5412 29.4654 45.1743 29.4656 45.8074C29.4658 46.4183 29.4659 47.0292 29.4685 47.6401C29.4691 47.7805 29.4388 47.8177 29.3209 47.8127C29.0557 47.8014 28.79 47.8028 28.5249 47.8124C28.4182 47.8161 28.3914 47.7823 28.3916 47.6562C28.3948 46.5417 28.3945 45.4272 28.3943 44.3127L28.3942 43.4215ZM20.8876 42.5285L20.8875 43.4224H20.888L20.8882 44.3654C20.8884 45.4658 20.8887 46.5663 20.8858 47.6666C20.8855 47.7862 20.9153 47.8129 21.0122 47.8118C21.3798 47.8075 21.7471 47.8081 22.1147 47.8088H22.1147H22.1148C22.2493 47.8091 22.3839 47.8093 22.5185 47.8093C22.7326 47.8093 22.9467 47.8091 23.1609 47.8089L23.1737 47.8089C23.8458 47.8083 24.518 47.8078 25.1901 47.8127C25.3062 47.8135 25.3326 47.7721 25.3289 47.6446C25.3212 47.3775 25.319 47.1092 25.33 46.842C25.3361 46.697 25.2937 46.6706 25.1797 46.6711C24.6439 46.6737 24.1081 46.674 23.5723 46.6743C23.0754 46.6746 22.5785 46.6748 22.0818 46.677C21.982 46.6773 21.9558 46.6452 21.956 46.5295C21.9599 45.558 21.96 44.586 21.9602 43.6142V43.6127L21.9602 43.37L21.9599 42.1902C21.9596 41.1849 21.9593 40.1796 21.9611 39.174C21.9613 39.062 21.9307 39.0358 21.8406 39.0383C21.5706 39.0449 21.3003 39.0493 21.0307 39.0367C20.9082 39.0305 20.8845 39.078 20.8853 39.2114C20.888 40.3169 20.8878 41.4227 20.8876 42.5285ZM37.1882 43.4229L37.188 44.3505V44.3533C37.1876 45.4483 37.1873 46.5433 37.1913 47.6387C37.1918 47.7791 37.1603 47.8169 37.0429 47.8124C36.7731 47.8023 36.503 47.8053 36.2328 47.8112C36.1457 47.8132 36.112 47.7938 36.112 47.6772C36.1147 44.8437 36.1147 42.01 36.1123 39.1763C36.1123 39.067 36.1362 39.0355 36.2297 39.038C36.5089 39.0451 36.7887 39.0465 37.0681 39.0375C37.173 39.034 37.1902 39.0782 37.1902 39.1903C37.1872 40.4061 37.1876 41.6215 37.188 42.8373V42.8375L37.1882 43.4229ZM16.498 44.4085C16.4981 44.0806 16.4983 43.7526 16.4983 43.4247C16.4983 43.1056 16.4982 42.7866 16.4981 42.4675C16.4978 41.3861 16.4975 40.3048 16.5006 39.223C16.5011 39.0868 16.4862 39.0282 16.3511 39.0361C16.0861 39.0516 15.8202 39.0465 15.5549 39.0375C15.4542 39.0341 15.4303 39.0698 15.4308 39.185C15.4343 39.7568 15.4339 40.3283 15.4336 40.8999C15.4334 41.0754 15.4333 41.2509 15.4333 41.4264C15.4333 41.7998 15.4334 42.1731 15.4334 42.5464C15.4335 44.2527 15.4336 45.9589 15.4311 47.6651C15.4308 47.7817 15.4553 47.8155 15.5553 47.8121C15.816 47.8033 16.0769 47.8016 16.337 47.8124C16.4618 47.8177 16.5026 47.7851 16.5017 47.6262C16.497 46.5537 16.4975 45.4811 16.498 44.4085Z" fill="white"/>
</svg>
